G04 #@! TF.GenerationSoftware,KiCad,Pcbnew,5.1.10*
G04 #@! TF.CreationDate,2021-06-22T10:21:35-06:00*
G04 #@! TF.ProjectId,dev_cart_pcb,6465765f-6361-4727-945f-7063622e6b69,rev?*
G04 #@! TF.SameCoordinates,Original*
G04 #@! TF.FileFunction,Soldermask,Top*
G04 #@! TF.FilePolarity,Negative*
%FSLAX46Y46*%
G04 Gerber Fmt 4.6, Leading zero omitted, Abs format (unit mm)*
G04 Created by KiCad (PCBNEW 5.1.10) date 2021-06-22 10:21:35*
%MOMM*%
%LPD*%
G01*
G04 APERTURE LIST*
%ADD10C,0.100000*%
%ADD11C,1.524000*%
G04 APERTURE END LIST*
D10*
G36*
X92059755Y-111498961D02*
G01*
X92069134Y-111501806D01*
X92077779Y-111506427D01*
X92085355Y-111512645D01*
X92091573Y-111520221D01*
X92096194Y-111528866D01*
X92099039Y-111538245D01*
X92100000Y-111548000D01*
X92100000Y-115448000D01*
X92099039Y-115457755D01*
X92096194Y-115467134D01*
X92091573Y-115475779D01*
X92085355Y-115483355D01*
X92077779Y-115489573D01*
X92069134Y-115494194D01*
X92059755Y-115497039D01*
X92050000Y-115498000D01*
X90650000Y-115498000D01*
X90640245Y-115497039D01*
X90630866Y-115494194D01*
X90622221Y-115489573D01*
X90614645Y-115483355D01*
X90608427Y-115475779D01*
X90603806Y-115467134D01*
X90600961Y-115457755D01*
X90600000Y-115448000D01*
X90600000Y-111548000D01*
X90600961Y-111538245D01*
X90603806Y-111528866D01*
X90608427Y-111520221D01*
X90614645Y-111512645D01*
X90622221Y-111506427D01*
X90630866Y-111501806D01*
X90640245Y-111498961D01*
X90650000Y-111498000D01*
X92050000Y-111498000D01*
X92059755Y-111498961D01*
G37*
G36*
X79559755Y-111498961D02*
G01*
X79569134Y-111501806D01*
X79577779Y-111506427D01*
X79585355Y-111512645D01*
X79591573Y-111520221D01*
X79596194Y-111528866D01*
X79599039Y-111538245D01*
X79600000Y-111548000D01*
X79600000Y-115448000D01*
X79599039Y-115457755D01*
X79596194Y-115467134D01*
X79591573Y-115475779D01*
X79585355Y-115483355D01*
X79577779Y-115489573D01*
X79569134Y-115494194D01*
X79559755Y-115497039D01*
X79550000Y-115498000D01*
X78150000Y-115498000D01*
X78140245Y-115497039D01*
X78130866Y-115494194D01*
X78122221Y-115489573D01*
X78114645Y-115483355D01*
X78108427Y-115475779D01*
X78103806Y-115467134D01*
X78100961Y-115457755D01*
X78100000Y-115448000D01*
X78100000Y-111548000D01*
X78100961Y-111538245D01*
X78103806Y-111528866D01*
X78108427Y-111520221D01*
X78114645Y-111512645D01*
X78122221Y-111506427D01*
X78130866Y-111501806D01*
X78140245Y-111498961D01*
X78150000Y-111498000D01*
X79550000Y-111498000D01*
X79559755Y-111498961D01*
G37*
G36*
X99559755Y-111498961D02*
G01*
X99569134Y-111501806D01*
X99577779Y-111506427D01*
X99585355Y-111512645D01*
X99591573Y-111520221D01*
X99596194Y-111528866D01*
X99599039Y-111538245D01*
X99600000Y-111548000D01*
X99600000Y-115448000D01*
X99599039Y-115457755D01*
X99596194Y-115467134D01*
X99591573Y-115475779D01*
X99585355Y-115483355D01*
X99577779Y-115489573D01*
X99569134Y-115494194D01*
X99559755Y-115497039D01*
X99550000Y-115498000D01*
X98150000Y-115498000D01*
X98140245Y-115497039D01*
X98130866Y-115494194D01*
X98122221Y-115489573D01*
X98114645Y-115483355D01*
X98108427Y-115475779D01*
X98103806Y-115467134D01*
X98100961Y-115457755D01*
X98100000Y-115448000D01*
X98100000Y-111548000D01*
X98100961Y-111538245D01*
X98103806Y-111528866D01*
X98108427Y-111520221D01*
X98114645Y-111512645D01*
X98122221Y-111506427D01*
X98130866Y-111501806D01*
X98140245Y-111498961D01*
X98150000Y-111498000D01*
X99550000Y-111498000D01*
X99559755Y-111498961D01*
G37*
G36*
X119559755Y-111498961D02*
G01*
X119569134Y-111501806D01*
X119577779Y-111506427D01*
X119585355Y-111512645D01*
X119591573Y-111520221D01*
X119596194Y-111528866D01*
X119599039Y-111538245D01*
X119600000Y-111548000D01*
X119600000Y-115448000D01*
X119599039Y-115457755D01*
X119596194Y-115467134D01*
X119591573Y-115475779D01*
X119585355Y-115483355D01*
X119577779Y-115489573D01*
X119569134Y-115494194D01*
X119559755Y-115497039D01*
X119550000Y-115498000D01*
X118150000Y-115498000D01*
X118140245Y-115497039D01*
X118130866Y-115494194D01*
X118122221Y-115489573D01*
X118114645Y-115483355D01*
X118108427Y-115475779D01*
X118103806Y-115467134D01*
X118100961Y-115457755D01*
X118100000Y-115448000D01*
X118100000Y-111548000D01*
X118100961Y-111538245D01*
X118103806Y-111528866D01*
X118108427Y-111520221D01*
X118114645Y-111512645D01*
X118122221Y-111506427D01*
X118130866Y-111501806D01*
X118140245Y-111498961D01*
X118150000Y-111498000D01*
X119550000Y-111498000D01*
X119559755Y-111498961D01*
G37*
G36*
X122059755Y-111498961D02*
G01*
X122069134Y-111501806D01*
X122077779Y-111506427D01*
X122085355Y-111512645D01*
X122091573Y-111520221D01*
X122096194Y-111528866D01*
X122099039Y-111538245D01*
X122100000Y-111548000D01*
X122100000Y-115448000D01*
X122099039Y-115457755D01*
X122096194Y-115467134D01*
X122091573Y-115475779D01*
X122085355Y-115483355D01*
X122077779Y-115489573D01*
X122069134Y-115494194D01*
X122059755Y-115497039D01*
X122050000Y-115498000D01*
X120650000Y-115498000D01*
X120640245Y-115497039D01*
X120630866Y-115494194D01*
X120622221Y-115489573D01*
X120614645Y-115483355D01*
X120608427Y-115475779D01*
X120603806Y-115467134D01*
X120600961Y-115457755D01*
X120600000Y-115448000D01*
X120600000Y-111548000D01*
X120600961Y-111538245D01*
X120603806Y-111528866D01*
X120608427Y-111520221D01*
X120614645Y-111512645D01*
X120622221Y-111506427D01*
X120630866Y-111501806D01*
X120640245Y-111498961D01*
X120650000Y-111498000D01*
X122050000Y-111498000D01*
X122059755Y-111498961D01*
G37*
G36*
X94559755Y-111498961D02*
G01*
X94569134Y-111501806D01*
X94577779Y-111506427D01*
X94585355Y-111512645D01*
X94591573Y-111520221D01*
X94596194Y-111528866D01*
X94599039Y-111538245D01*
X94600000Y-111548000D01*
X94600000Y-115448000D01*
X94599039Y-115457755D01*
X94596194Y-115467134D01*
X94591573Y-115475779D01*
X94585355Y-115483355D01*
X94577779Y-115489573D01*
X94569134Y-115494194D01*
X94559755Y-115497039D01*
X94550000Y-115498000D01*
X93150000Y-115498000D01*
X93140245Y-115497039D01*
X93130866Y-115494194D01*
X93122221Y-115489573D01*
X93114645Y-115483355D01*
X93108427Y-115475779D01*
X93103806Y-115467134D01*
X93100961Y-115457755D01*
X93100000Y-115448000D01*
X93100000Y-111548000D01*
X93100961Y-111538245D01*
X93103806Y-111528866D01*
X93108427Y-111520221D01*
X93114645Y-111512645D01*
X93122221Y-111506427D01*
X93130866Y-111501806D01*
X93140245Y-111498961D01*
X93150000Y-111498000D01*
X94550000Y-111498000D01*
X94559755Y-111498961D01*
G37*
G36*
X114559755Y-111498961D02*
G01*
X114569134Y-111501806D01*
X114577779Y-111506427D01*
X114585355Y-111512645D01*
X114591573Y-111520221D01*
X114596194Y-111528866D01*
X114599039Y-111538245D01*
X114600000Y-111548000D01*
X114600000Y-115448000D01*
X114599039Y-115457755D01*
X114596194Y-115467134D01*
X114591573Y-115475779D01*
X114585355Y-115483355D01*
X114577779Y-115489573D01*
X114569134Y-115494194D01*
X114559755Y-115497039D01*
X114550000Y-115498000D01*
X113150000Y-115498000D01*
X113140245Y-115497039D01*
X113130866Y-115494194D01*
X113122221Y-115489573D01*
X113114645Y-115483355D01*
X113108427Y-115475779D01*
X113103806Y-115467134D01*
X113100961Y-115457755D01*
X113100000Y-115448000D01*
X113100000Y-111548000D01*
X113100961Y-111538245D01*
X113103806Y-111528866D01*
X113108427Y-111520221D01*
X113114645Y-111512645D01*
X113122221Y-111506427D01*
X113130866Y-111501806D01*
X113140245Y-111498961D01*
X113150000Y-111498000D01*
X114550000Y-111498000D01*
X114559755Y-111498961D01*
G37*
G36*
X117059755Y-111498961D02*
G01*
X117069134Y-111501806D01*
X117077779Y-111506427D01*
X117085355Y-111512645D01*
X117091573Y-111520221D01*
X117096194Y-111528866D01*
X117099039Y-111538245D01*
X117100000Y-111548000D01*
X117100000Y-115448000D01*
X117099039Y-115457755D01*
X117096194Y-115467134D01*
X117091573Y-115475779D01*
X117085355Y-115483355D01*
X117077779Y-115489573D01*
X117069134Y-115494194D01*
X117059755Y-115497039D01*
X117050000Y-115498000D01*
X115650000Y-115498000D01*
X115640245Y-115497039D01*
X115630866Y-115494194D01*
X115622221Y-115489573D01*
X115614645Y-115483355D01*
X115608427Y-115475779D01*
X115603806Y-115467134D01*
X115600961Y-115457755D01*
X115600000Y-115448000D01*
X115600000Y-111548000D01*
X115600961Y-111538245D01*
X115603806Y-111528866D01*
X115608427Y-111520221D01*
X115614645Y-111512645D01*
X115622221Y-111506427D01*
X115630866Y-111501806D01*
X115640245Y-111498961D01*
X115650000Y-111498000D01*
X117050000Y-111498000D01*
X117059755Y-111498961D01*
G37*
G36*
X89559755Y-111498961D02*
G01*
X89569134Y-111501806D01*
X89577779Y-111506427D01*
X89585355Y-111512645D01*
X89591573Y-111520221D01*
X89596194Y-111528866D01*
X89599039Y-111538245D01*
X89600000Y-111548000D01*
X89600000Y-115448000D01*
X89599039Y-115457755D01*
X89596194Y-115467134D01*
X89591573Y-115475779D01*
X89585355Y-115483355D01*
X89577779Y-115489573D01*
X89569134Y-115494194D01*
X89559755Y-115497039D01*
X89550000Y-115498000D01*
X88150000Y-115498000D01*
X88140245Y-115497039D01*
X88130866Y-115494194D01*
X88122221Y-115489573D01*
X88114645Y-115483355D01*
X88108427Y-115475779D01*
X88103806Y-115467134D01*
X88100961Y-115457755D01*
X88100000Y-115448000D01*
X88100000Y-111548000D01*
X88100961Y-111538245D01*
X88103806Y-111528866D01*
X88108427Y-111520221D01*
X88114645Y-111512645D01*
X88122221Y-111506427D01*
X88130866Y-111501806D01*
X88140245Y-111498961D01*
X88150000Y-111498000D01*
X89550000Y-111498000D01*
X89559755Y-111498961D01*
G37*
G36*
X124559755Y-111498961D02*
G01*
X124569134Y-111501806D01*
X124577779Y-111506427D01*
X124585355Y-111512645D01*
X124591573Y-111520221D01*
X124596194Y-111528866D01*
X124599039Y-111538245D01*
X124600000Y-111548000D01*
X124600000Y-115448000D01*
X124599039Y-115457755D01*
X124596194Y-115467134D01*
X124591573Y-115475779D01*
X124585355Y-115483355D01*
X124577779Y-115489573D01*
X124569134Y-115494194D01*
X124559755Y-115497039D01*
X124550000Y-115498000D01*
X123150000Y-115498000D01*
X123140245Y-115497039D01*
X123130866Y-115494194D01*
X123122221Y-115489573D01*
X123114645Y-115483355D01*
X123108427Y-115475779D01*
X123103806Y-115467134D01*
X123100961Y-115457755D01*
X123100000Y-115448000D01*
X123100000Y-111548000D01*
X123100961Y-111538245D01*
X123103806Y-111528866D01*
X123108427Y-111520221D01*
X123114645Y-111512645D01*
X123122221Y-111506427D01*
X123130866Y-111501806D01*
X123140245Y-111498961D01*
X123150000Y-111498000D01*
X124550000Y-111498000D01*
X124559755Y-111498961D01*
G37*
G36*
X127059755Y-111498961D02*
G01*
X127069134Y-111501806D01*
X127077779Y-111506427D01*
X127085355Y-111512645D01*
X127091573Y-111520221D01*
X127096194Y-111528866D01*
X127099039Y-111538245D01*
X127100000Y-111548000D01*
X127100000Y-115448000D01*
X127099039Y-115457755D01*
X127096194Y-115467134D01*
X127091573Y-115475779D01*
X127085355Y-115483355D01*
X127077779Y-115489573D01*
X127069134Y-115494194D01*
X127059755Y-115497039D01*
X127050000Y-115498000D01*
X125650000Y-115498000D01*
X125640245Y-115497039D01*
X125630866Y-115494194D01*
X125622221Y-115489573D01*
X125614645Y-115483355D01*
X125608427Y-115475779D01*
X125603806Y-115467134D01*
X125600961Y-115457755D01*
X125600000Y-115448000D01*
X125600000Y-111548000D01*
X125600961Y-111538245D01*
X125603806Y-111528866D01*
X125608427Y-111520221D01*
X125614645Y-111512645D01*
X125622221Y-111506427D01*
X125630866Y-111501806D01*
X125640245Y-111498961D01*
X125650000Y-111498000D01*
X127050000Y-111498000D01*
X127059755Y-111498961D01*
G37*
G36*
X109559755Y-111498961D02*
G01*
X109569134Y-111501806D01*
X109577779Y-111506427D01*
X109585355Y-111512645D01*
X109591573Y-111520221D01*
X109596194Y-111528866D01*
X109599039Y-111538245D01*
X109600000Y-111548000D01*
X109600000Y-115448000D01*
X109599039Y-115457755D01*
X109596194Y-115467134D01*
X109591573Y-115475779D01*
X109585355Y-115483355D01*
X109577779Y-115489573D01*
X109569134Y-115494194D01*
X109559755Y-115497039D01*
X109550000Y-115498000D01*
X108150000Y-115498000D01*
X108140245Y-115497039D01*
X108130866Y-115494194D01*
X108122221Y-115489573D01*
X108114645Y-115483355D01*
X108108427Y-115475779D01*
X108103806Y-115467134D01*
X108100961Y-115457755D01*
X108100000Y-115448000D01*
X108100000Y-111548000D01*
X108100961Y-111538245D01*
X108103806Y-111528866D01*
X108108427Y-111520221D01*
X108114645Y-111512645D01*
X108122221Y-111506427D01*
X108130866Y-111501806D01*
X108140245Y-111498961D01*
X108150000Y-111498000D01*
X109550000Y-111498000D01*
X109559755Y-111498961D01*
G37*
G36*
X112059755Y-111498961D02*
G01*
X112069134Y-111501806D01*
X112077779Y-111506427D01*
X112085355Y-111512645D01*
X112091573Y-111520221D01*
X112096194Y-111528866D01*
X112099039Y-111538245D01*
X112100000Y-111548000D01*
X112100000Y-115448000D01*
X112099039Y-115457755D01*
X112096194Y-115467134D01*
X112091573Y-115475779D01*
X112085355Y-115483355D01*
X112077779Y-115489573D01*
X112069134Y-115494194D01*
X112059755Y-115497039D01*
X112050000Y-115498000D01*
X110650000Y-115498000D01*
X110640245Y-115497039D01*
X110630866Y-115494194D01*
X110622221Y-115489573D01*
X110614645Y-115483355D01*
X110608427Y-115475779D01*
X110603806Y-115467134D01*
X110600961Y-115457755D01*
X110600000Y-115448000D01*
X110600000Y-111548000D01*
X110600961Y-111538245D01*
X110603806Y-111528866D01*
X110608427Y-111520221D01*
X110614645Y-111512645D01*
X110622221Y-111506427D01*
X110630866Y-111501806D01*
X110640245Y-111498961D01*
X110650000Y-111498000D01*
X112050000Y-111498000D01*
X112059755Y-111498961D01*
G37*
G36*
X87059755Y-111498961D02*
G01*
X87069134Y-111501806D01*
X87077779Y-111506427D01*
X87085355Y-111512645D01*
X87091573Y-111520221D01*
X87096194Y-111528866D01*
X87099039Y-111538245D01*
X87100000Y-111548000D01*
X87100000Y-115448000D01*
X87099039Y-115457755D01*
X87096194Y-115467134D01*
X87091573Y-115475779D01*
X87085355Y-115483355D01*
X87077779Y-115489573D01*
X87069134Y-115494194D01*
X87059755Y-115497039D01*
X87050000Y-115498000D01*
X85650000Y-115498000D01*
X85640245Y-115497039D01*
X85630866Y-115494194D01*
X85622221Y-115489573D01*
X85614645Y-115483355D01*
X85608427Y-115475779D01*
X85603806Y-115467134D01*
X85600961Y-115457755D01*
X85600000Y-115448000D01*
X85600000Y-111548000D01*
X85600961Y-111538245D01*
X85603806Y-111528866D01*
X85608427Y-111520221D01*
X85614645Y-111512645D01*
X85622221Y-111506427D01*
X85630866Y-111501806D01*
X85640245Y-111498961D01*
X85650000Y-111498000D01*
X87050000Y-111498000D01*
X87059755Y-111498961D01*
G37*
G36*
X104559755Y-111498961D02*
G01*
X104569134Y-111501806D01*
X104577779Y-111506427D01*
X104585355Y-111512645D01*
X104591573Y-111520221D01*
X104596194Y-111528866D01*
X104599039Y-111538245D01*
X104600000Y-111548000D01*
X104600000Y-115448000D01*
X104599039Y-115457755D01*
X104596194Y-115467134D01*
X104591573Y-115475779D01*
X104585355Y-115483355D01*
X104577779Y-115489573D01*
X104569134Y-115494194D01*
X104559755Y-115497039D01*
X104550000Y-115498000D01*
X103150000Y-115498000D01*
X103140245Y-115497039D01*
X103130866Y-115494194D01*
X103122221Y-115489573D01*
X103114645Y-115483355D01*
X103108427Y-115475779D01*
X103103806Y-115467134D01*
X103100961Y-115457755D01*
X103100000Y-115448000D01*
X103100000Y-111548000D01*
X103100961Y-111538245D01*
X103103806Y-111528866D01*
X103108427Y-111520221D01*
X103114645Y-111512645D01*
X103122221Y-111506427D01*
X103130866Y-111501806D01*
X103140245Y-111498961D01*
X103150000Y-111498000D01*
X104550000Y-111498000D01*
X104559755Y-111498961D01*
G37*
G36*
X107059755Y-111498961D02*
G01*
X107069134Y-111501806D01*
X107077779Y-111506427D01*
X107085355Y-111512645D01*
X107091573Y-111520221D01*
X107096194Y-111528866D01*
X107099039Y-111538245D01*
X107100000Y-111548000D01*
X107100000Y-115448000D01*
X107099039Y-115457755D01*
X107096194Y-115467134D01*
X107091573Y-115475779D01*
X107085355Y-115483355D01*
X107077779Y-115489573D01*
X107069134Y-115494194D01*
X107059755Y-115497039D01*
X107050000Y-115498000D01*
X105650000Y-115498000D01*
X105640245Y-115497039D01*
X105630866Y-115494194D01*
X105622221Y-115489573D01*
X105614645Y-115483355D01*
X105608427Y-115475779D01*
X105603806Y-115467134D01*
X105600961Y-115457755D01*
X105600000Y-115448000D01*
X105600000Y-111548000D01*
X105600961Y-111538245D01*
X105603806Y-111528866D01*
X105608427Y-111520221D01*
X105614645Y-111512645D01*
X105622221Y-111506427D01*
X105630866Y-111501806D01*
X105640245Y-111498961D01*
X105650000Y-111498000D01*
X107050000Y-111498000D01*
X107059755Y-111498961D01*
G37*
G36*
X97059755Y-111498961D02*
G01*
X97069134Y-111501806D01*
X97077779Y-111506427D01*
X97085355Y-111512645D01*
X97091573Y-111520221D01*
X97096194Y-111528866D01*
X97099039Y-111538245D01*
X97100000Y-111548000D01*
X97100000Y-115448000D01*
X97099039Y-115457755D01*
X97096194Y-115467134D01*
X97091573Y-115475779D01*
X97085355Y-115483355D01*
X97077779Y-115489573D01*
X97069134Y-115494194D01*
X97059755Y-115497039D01*
X97050000Y-115498000D01*
X95650000Y-115498000D01*
X95640245Y-115497039D01*
X95630866Y-115494194D01*
X95622221Y-115489573D01*
X95614645Y-115483355D01*
X95608427Y-115475779D01*
X95603806Y-115467134D01*
X95600961Y-115457755D01*
X95600000Y-115448000D01*
X95600000Y-111548000D01*
X95600961Y-111538245D01*
X95603806Y-111528866D01*
X95608427Y-111520221D01*
X95614645Y-111512645D01*
X95622221Y-111506427D01*
X95630866Y-111501806D01*
X95640245Y-111498961D01*
X95650000Y-111498000D01*
X97050000Y-111498000D01*
X97059755Y-111498961D01*
G37*
G36*
X129559755Y-111498961D02*
G01*
X129569134Y-111501806D01*
X129577779Y-111506427D01*
X129585355Y-111512645D01*
X129591573Y-111520221D01*
X129596194Y-111528866D01*
X129599039Y-111538245D01*
X129600000Y-111548000D01*
X129600000Y-115448000D01*
X129599039Y-115457755D01*
X129596194Y-115467134D01*
X129591573Y-115475779D01*
X129585355Y-115483355D01*
X129577779Y-115489573D01*
X129569134Y-115494194D01*
X129559755Y-115497039D01*
X129550000Y-115498000D01*
X128150000Y-115498000D01*
X128140245Y-115497039D01*
X128130866Y-115494194D01*
X128122221Y-115489573D01*
X128114645Y-115483355D01*
X128108427Y-115475779D01*
X128103806Y-115467134D01*
X128100961Y-115457755D01*
X128100000Y-115448000D01*
X128100000Y-111548000D01*
X128100961Y-111538245D01*
X128103806Y-111528866D01*
X128108427Y-111520221D01*
X128114645Y-111512645D01*
X128122221Y-111506427D01*
X128130866Y-111501806D01*
X128140245Y-111498961D01*
X128150000Y-111498000D01*
X129550000Y-111498000D01*
X129559755Y-111498961D01*
G37*
G36*
X77059755Y-111498961D02*
G01*
X77069134Y-111501806D01*
X77077779Y-111506427D01*
X77085355Y-111512645D01*
X77091573Y-111520221D01*
X77096194Y-111528866D01*
X77099039Y-111538245D01*
X77100000Y-111548000D01*
X77100000Y-115448000D01*
X77099039Y-115457755D01*
X77096194Y-115467134D01*
X77091573Y-115475779D01*
X77085355Y-115483355D01*
X77077779Y-115489573D01*
X77069134Y-115494194D01*
X77059755Y-115497039D01*
X77050000Y-115498000D01*
X75650000Y-115498000D01*
X75640245Y-115497039D01*
X75630866Y-115494194D01*
X75622221Y-115489573D01*
X75614645Y-115483355D01*
X75608427Y-115475779D01*
X75603806Y-115467134D01*
X75600961Y-115457755D01*
X75600000Y-115448000D01*
X75600000Y-111548000D01*
X75600961Y-111538245D01*
X75603806Y-111528866D01*
X75608427Y-111520221D01*
X75614645Y-111512645D01*
X75622221Y-111506427D01*
X75630866Y-111501806D01*
X75640245Y-111498961D01*
X75650000Y-111498000D01*
X77050000Y-111498000D01*
X77059755Y-111498961D01*
G37*
G36*
X102059755Y-111498961D02*
G01*
X102069134Y-111501806D01*
X102077779Y-111506427D01*
X102085355Y-111512645D01*
X102091573Y-111520221D01*
X102096194Y-111528866D01*
X102099039Y-111538245D01*
X102100000Y-111548000D01*
X102100000Y-115448000D01*
X102099039Y-115457755D01*
X102096194Y-115467134D01*
X102091573Y-115475779D01*
X102085355Y-115483355D01*
X102077779Y-115489573D01*
X102069134Y-115494194D01*
X102059755Y-115497039D01*
X102050000Y-115498000D01*
X100650000Y-115498000D01*
X100640245Y-115497039D01*
X100630866Y-115494194D01*
X100622221Y-115489573D01*
X100614645Y-115483355D01*
X100608427Y-115475779D01*
X100603806Y-115467134D01*
X100600961Y-115457755D01*
X100600000Y-115448000D01*
X100600000Y-111548000D01*
X100600961Y-111538245D01*
X100603806Y-111528866D01*
X100608427Y-111520221D01*
X100614645Y-111512645D01*
X100622221Y-111506427D01*
X100630866Y-111501806D01*
X100640245Y-111498961D01*
X100650000Y-111498000D01*
X102050000Y-111498000D01*
X102059755Y-111498961D01*
G37*
G36*
X84559755Y-111498961D02*
G01*
X84569134Y-111501806D01*
X84577779Y-111506427D01*
X84585355Y-111512645D01*
X84591573Y-111520221D01*
X84596194Y-111528866D01*
X84599039Y-111538245D01*
X84600000Y-111548000D01*
X84600000Y-115448000D01*
X84599039Y-115457755D01*
X84596194Y-115467134D01*
X84591573Y-115475779D01*
X84585355Y-115483355D01*
X84577779Y-115489573D01*
X84569134Y-115494194D01*
X84559755Y-115497039D01*
X84550000Y-115498000D01*
X83150000Y-115498000D01*
X83140245Y-115497039D01*
X83130866Y-115494194D01*
X83122221Y-115489573D01*
X83114645Y-115483355D01*
X83108427Y-115475779D01*
X83103806Y-115467134D01*
X83100961Y-115457755D01*
X83100000Y-115448000D01*
X83100000Y-111548000D01*
X83100961Y-111538245D01*
X83103806Y-111528866D01*
X83108427Y-111520221D01*
X83114645Y-111512645D01*
X83122221Y-111506427D01*
X83130866Y-111501806D01*
X83140245Y-111498961D01*
X83150000Y-111498000D01*
X84550000Y-111498000D01*
X84559755Y-111498961D01*
G37*
G36*
X82059755Y-111498961D02*
G01*
X82069134Y-111501806D01*
X82077779Y-111506427D01*
X82085355Y-111512645D01*
X82091573Y-111520221D01*
X82096194Y-111528866D01*
X82099039Y-111538245D01*
X82100000Y-111548000D01*
X82100000Y-115448000D01*
X82099039Y-115457755D01*
X82096194Y-115467134D01*
X82091573Y-115475779D01*
X82085355Y-115483355D01*
X82077779Y-115489573D01*
X82069134Y-115494194D01*
X82059755Y-115497039D01*
X82050000Y-115498000D01*
X80650000Y-115498000D01*
X80640245Y-115497039D01*
X80630866Y-115494194D01*
X80622221Y-115489573D01*
X80614645Y-115483355D01*
X80608427Y-115475779D01*
X80603806Y-115467134D01*
X80600961Y-115457755D01*
X80600000Y-115448000D01*
X80600000Y-111548000D01*
X80600961Y-111538245D01*
X80603806Y-111528866D01*
X80608427Y-111520221D01*
X80614645Y-111512645D01*
X80622221Y-111506427D01*
X80630866Y-111501806D01*
X80640245Y-111498961D01*
X80650000Y-111498000D01*
X82050000Y-111498000D01*
X82059755Y-111498961D01*
G37*
G36*
X130809755Y-116600961D02*
G01*
X130819134Y-116603806D01*
X130827779Y-116608427D01*
X130835355Y-116614645D01*
X130841573Y-116622221D01*
X130846194Y-116630866D01*
X130849039Y-116640245D01*
X130850000Y-116650000D01*
X130850000Y-120550000D01*
X130849039Y-120559755D01*
X130846194Y-120569134D01*
X130841573Y-120577779D01*
X130835355Y-120585355D01*
X130827779Y-120591573D01*
X130819134Y-120596194D01*
X130809755Y-120599039D01*
X130800000Y-120600000D01*
X129400000Y-120600000D01*
X129390245Y-120599039D01*
X129380866Y-120596194D01*
X129372221Y-120591573D01*
X129364645Y-120585355D01*
X129358427Y-120577779D01*
X129353806Y-120569134D01*
X129350961Y-120559755D01*
X129350000Y-120550000D01*
X129350000Y-116650000D01*
X129350961Y-116640245D01*
X129353806Y-116630866D01*
X129358427Y-116622221D01*
X129364645Y-116614645D01*
X129372221Y-116608427D01*
X129380866Y-116603806D01*
X129390245Y-116600961D01*
X129400000Y-116600000D01*
X130800000Y-116600000D01*
X130809755Y-116600961D01*
G37*
G36*
X123309755Y-116600961D02*
G01*
X123319134Y-116603806D01*
X123327779Y-116608427D01*
X123335355Y-116614645D01*
X123341573Y-116622221D01*
X123346194Y-116630866D01*
X123349039Y-116640245D01*
X123350000Y-116650000D01*
X123350000Y-120550000D01*
X123349039Y-120559755D01*
X123346194Y-120569134D01*
X123341573Y-120577779D01*
X123335355Y-120585355D01*
X123327779Y-120591573D01*
X123319134Y-120596194D01*
X123309755Y-120599039D01*
X123300000Y-120600000D01*
X121900000Y-120600000D01*
X121890245Y-120599039D01*
X121880866Y-120596194D01*
X121872221Y-120591573D01*
X121864645Y-120585355D01*
X121858427Y-120577779D01*
X121853806Y-120569134D01*
X121850961Y-120559755D01*
X121850000Y-120550000D01*
X121850000Y-116650000D01*
X121850961Y-116640245D01*
X121853806Y-116630866D01*
X121858427Y-116622221D01*
X121864645Y-116614645D01*
X121872221Y-116608427D01*
X121880866Y-116603806D01*
X121890245Y-116600961D01*
X121900000Y-116600000D01*
X123300000Y-116600000D01*
X123309755Y-116600961D01*
G37*
G36*
X115809755Y-116600961D02*
G01*
X115819134Y-116603806D01*
X115827779Y-116608427D01*
X115835355Y-116614645D01*
X115841573Y-116622221D01*
X115846194Y-116630866D01*
X115849039Y-116640245D01*
X115850000Y-116650000D01*
X115850000Y-120550000D01*
X115849039Y-120559755D01*
X115846194Y-120569134D01*
X115841573Y-120577779D01*
X115835355Y-120585355D01*
X115827779Y-120591573D01*
X115819134Y-120596194D01*
X115809755Y-120599039D01*
X115800000Y-120600000D01*
X114400000Y-120600000D01*
X114390245Y-120599039D01*
X114380866Y-120596194D01*
X114372221Y-120591573D01*
X114364645Y-120585355D01*
X114358427Y-120577779D01*
X114353806Y-120569134D01*
X114350961Y-120559755D01*
X114350000Y-120550000D01*
X114350000Y-116650000D01*
X114350961Y-116640245D01*
X114353806Y-116630866D01*
X114358427Y-116622221D01*
X114364645Y-116614645D01*
X114372221Y-116608427D01*
X114380866Y-116603806D01*
X114390245Y-116600961D01*
X114400000Y-116600000D01*
X115800000Y-116600000D01*
X115809755Y-116600961D01*
G37*
G36*
X118309755Y-116600961D02*
G01*
X118319134Y-116603806D01*
X118327779Y-116608427D01*
X118335355Y-116614645D01*
X118341573Y-116622221D01*
X118346194Y-116630866D01*
X118349039Y-116640245D01*
X118350000Y-116650000D01*
X118350000Y-120550000D01*
X118349039Y-120559755D01*
X118346194Y-120569134D01*
X118341573Y-120577779D01*
X118335355Y-120585355D01*
X118327779Y-120591573D01*
X118319134Y-120596194D01*
X118309755Y-120599039D01*
X118300000Y-120600000D01*
X116900000Y-120600000D01*
X116890245Y-120599039D01*
X116880866Y-120596194D01*
X116872221Y-120591573D01*
X116864645Y-120585355D01*
X116858427Y-120577779D01*
X116853806Y-120569134D01*
X116850961Y-120559755D01*
X116850000Y-120550000D01*
X116850000Y-116650000D01*
X116850961Y-116640245D01*
X116853806Y-116630866D01*
X116858427Y-116622221D01*
X116864645Y-116614645D01*
X116872221Y-116608427D01*
X116880866Y-116603806D01*
X116890245Y-116600961D01*
X116900000Y-116600000D01*
X118300000Y-116600000D01*
X118309755Y-116600961D01*
G37*
G36*
X90809755Y-116600961D02*
G01*
X90819134Y-116603806D01*
X90827779Y-116608427D01*
X90835355Y-116614645D01*
X90841573Y-116622221D01*
X90846194Y-116630866D01*
X90849039Y-116640245D01*
X90850000Y-116650000D01*
X90850000Y-120550000D01*
X90849039Y-120559755D01*
X90846194Y-120569134D01*
X90841573Y-120577779D01*
X90835355Y-120585355D01*
X90827779Y-120591573D01*
X90819134Y-120596194D01*
X90809755Y-120599039D01*
X90800000Y-120600000D01*
X89400000Y-120600000D01*
X89390245Y-120599039D01*
X89380866Y-120596194D01*
X89372221Y-120591573D01*
X89364645Y-120585355D01*
X89358427Y-120577779D01*
X89353806Y-120569134D01*
X89350961Y-120559755D01*
X89350000Y-120550000D01*
X89350000Y-116650000D01*
X89350961Y-116640245D01*
X89353806Y-116630866D01*
X89358427Y-116622221D01*
X89364645Y-116614645D01*
X89372221Y-116608427D01*
X89380866Y-116603806D01*
X89390245Y-116600961D01*
X89400000Y-116600000D01*
X90800000Y-116600000D01*
X90809755Y-116600961D01*
G37*
G36*
X128309755Y-116600961D02*
G01*
X128319134Y-116603806D01*
X128327779Y-116608427D01*
X128335355Y-116614645D01*
X128341573Y-116622221D01*
X128346194Y-116630866D01*
X128349039Y-116640245D01*
X128350000Y-116650000D01*
X128350000Y-120550000D01*
X128349039Y-120559755D01*
X128346194Y-120569134D01*
X128341573Y-120577779D01*
X128335355Y-120585355D01*
X128327779Y-120591573D01*
X128319134Y-120596194D01*
X128309755Y-120599039D01*
X128300000Y-120600000D01*
X126900000Y-120600000D01*
X126890245Y-120599039D01*
X126880866Y-120596194D01*
X126872221Y-120591573D01*
X126864645Y-120585355D01*
X126858427Y-120577779D01*
X126853806Y-120569134D01*
X126850961Y-120559755D01*
X126850000Y-120550000D01*
X126850000Y-116650000D01*
X126850961Y-116640245D01*
X126853806Y-116630866D01*
X126858427Y-116622221D01*
X126864645Y-116614645D01*
X126872221Y-116608427D01*
X126880866Y-116603806D01*
X126890245Y-116600961D01*
X126900000Y-116600000D01*
X128300000Y-116600000D01*
X128309755Y-116600961D01*
G37*
G36*
X85809755Y-116600961D02*
G01*
X85819134Y-116603806D01*
X85827779Y-116608427D01*
X85835355Y-116614645D01*
X85841573Y-116622221D01*
X85846194Y-116630866D01*
X85849039Y-116640245D01*
X85850000Y-116650000D01*
X85850000Y-120550000D01*
X85849039Y-120559755D01*
X85846194Y-120569134D01*
X85841573Y-120577779D01*
X85835355Y-120585355D01*
X85827779Y-120591573D01*
X85819134Y-120596194D01*
X85809755Y-120599039D01*
X85800000Y-120600000D01*
X84400000Y-120600000D01*
X84390245Y-120599039D01*
X84380866Y-120596194D01*
X84372221Y-120591573D01*
X84364645Y-120585355D01*
X84358427Y-120577779D01*
X84353806Y-120569134D01*
X84350961Y-120559755D01*
X84350000Y-120550000D01*
X84350000Y-116650000D01*
X84350961Y-116640245D01*
X84353806Y-116630866D01*
X84358427Y-116622221D01*
X84364645Y-116614645D01*
X84372221Y-116608427D01*
X84380866Y-116603806D01*
X84390245Y-116600961D01*
X84400000Y-116600000D01*
X85800000Y-116600000D01*
X85809755Y-116600961D01*
G37*
G36*
X95809755Y-116600961D02*
G01*
X95819134Y-116603806D01*
X95827779Y-116608427D01*
X95835355Y-116614645D01*
X95841573Y-116622221D01*
X95846194Y-116630866D01*
X95849039Y-116640245D01*
X95850000Y-116650000D01*
X95850000Y-120550000D01*
X95849039Y-120559755D01*
X95846194Y-120569134D01*
X95841573Y-120577779D01*
X95835355Y-120585355D01*
X95827779Y-120591573D01*
X95819134Y-120596194D01*
X95809755Y-120599039D01*
X95800000Y-120600000D01*
X94400000Y-120600000D01*
X94390245Y-120599039D01*
X94380866Y-120596194D01*
X94372221Y-120591573D01*
X94364645Y-120585355D01*
X94358427Y-120577779D01*
X94353806Y-120569134D01*
X94350961Y-120559755D01*
X94350000Y-120550000D01*
X94350000Y-116650000D01*
X94350961Y-116640245D01*
X94353806Y-116630866D01*
X94358427Y-116622221D01*
X94364645Y-116614645D01*
X94372221Y-116608427D01*
X94380866Y-116603806D01*
X94390245Y-116600961D01*
X94400000Y-116600000D01*
X95800000Y-116600000D01*
X95809755Y-116600961D01*
G37*
G36*
X103309755Y-116600961D02*
G01*
X103319134Y-116603806D01*
X103327779Y-116608427D01*
X103335355Y-116614645D01*
X103341573Y-116622221D01*
X103346194Y-116630866D01*
X103349039Y-116640245D01*
X103350000Y-116650000D01*
X103350000Y-120550000D01*
X103349039Y-120559755D01*
X103346194Y-120569134D01*
X103341573Y-120577779D01*
X103335355Y-120585355D01*
X103327779Y-120591573D01*
X103319134Y-120596194D01*
X103309755Y-120599039D01*
X103300000Y-120600000D01*
X101900000Y-120600000D01*
X101890245Y-120599039D01*
X101880866Y-120596194D01*
X101872221Y-120591573D01*
X101864645Y-120585355D01*
X101858427Y-120577779D01*
X101853806Y-120569134D01*
X101850961Y-120559755D01*
X101850000Y-120550000D01*
X101850000Y-116650000D01*
X101850961Y-116640245D01*
X101853806Y-116630866D01*
X101858427Y-116622221D01*
X101864645Y-116614645D01*
X101872221Y-116608427D01*
X101880866Y-116603806D01*
X101890245Y-116600961D01*
X101900000Y-116600000D01*
X103300000Y-116600000D01*
X103309755Y-116600961D01*
G37*
G36*
X113309755Y-116600961D02*
G01*
X113319134Y-116603806D01*
X113327779Y-116608427D01*
X113335355Y-116614645D01*
X113341573Y-116622221D01*
X113346194Y-116630866D01*
X113349039Y-116640245D01*
X113350000Y-116650000D01*
X113350000Y-120550000D01*
X113349039Y-120559755D01*
X113346194Y-120569134D01*
X113341573Y-120577779D01*
X113335355Y-120585355D01*
X113327779Y-120591573D01*
X113319134Y-120596194D01*
X113309755Y-120599039D01*
X113300000Y-120600000D01*
X111900000Y-120600000D01*
X111890245Y-120599039D01*
X111880866Y-120596194D01*
X111872221Y-120591573D01*
X111864645Y-120585355D01*
X111858427Y-120577779D01*
X111853806Y-120569134D01*
X111850961Y-120559755D01*
X111850000Y-120550000D01*
X111850000Y-116650000D01*
X111850961Y-116640245D01*
X111853806Y-116630866D01*
X111858427Y-116622221D01*
X111864645Y-116614645D01*
X111872221Y-116608427D01*
X111880866Y-116603806D01*
X111890245Y-116600961D01*
X111900000Y-116600000D01*
X113300000Y-116600000D01*
X113309755Y-116600961D01*
G37*
G36*
X83309755Y-116600961D02*
G01*
X83319134Y-116603806D01*
X83327779Y-116608427D01*
X83335355Y-116614645D01*
X83341573Y-116622221D01*
X83346194Y-116630866D01*
X83349039Y-116640245D01*
X83350000Y-116650000D01*
X83350000Y-120550000D01*
X83349039Y-120559755D01*
X83346194Y-120569134D01*
X83341573Y-120577779D01*
X83335355Y-120585355D01*
X83327779Y-120591573D01*
X83319134Y-120596194D01*
X83309755Y-120599039D01*
X83300000Y-120600000D01*
X81900000Y-120600000D01*
X81890245Y-120599039D01*
X81880866Y-120596194D01*
X81872221Y-120591573D01*
X81864645Y-120585355D01*
X81858427Y-120577779D01*
X81853806Y-120569134D01*
X81850961Y-120559755D01*
X81850000Y-120550000D01*
X81850000Y-116650000D01*
X81850961Y-116640245D01*
X81853806Y-116630866D01*
X81858427Y-116622221D01*
X81864645Y-116614645D01*
X81872221Y-116608427D01*
X81880866Y-116603806D01*
X81890245Y-116600961D01*
X81900000Y-116600000D01*
X83300000Y-116600000D01*
X83309755Y-116600961D01*
G37*
G36*
X125809755Y-116600961D02*
G01*
X125819134Y-116603806D01*
X125827779Y-116608427D01*
X125835355Y-116614645D01*
X125841573Y-116622221D01*
X125846194Y-116630866D01*
X125849039Y-116640245D01*
X125850000Y-116650000D01*
X125850000Y-120550000D01*
X125849039Y-120559755D01*
X125846194Y-120569134D01*
X125841573Y-120577779D01*
X125835355Y-120585355D01*
X125827779Y-120591573D01*
X125819134Y-120596194D01*
X125809755Y-120599039D01*
X125800000Y-120600000D01*
X124400000Y-120600000D01*
X124390245Y-120599039D01*
X124380866Y-120596194D01*
X124372221Y-120591573D01*
X124364645Y-120585355D01*
X124358427Y-120577779D01*
X124353806Y-120569134D01*
X124350961Y-120559755D01*
X124350000Y-120550000D01*
X124350000Y-116650000D01*
X124350961Y-116640245D01*
X124353806Y-116630866D01*
X124358427Y-116622221D01*
X124364645Y-116614645D01*
X124372221Y-116608427D01*
X124380866Y-116603806D01*
X124390245Y-116600961D01*
X124400000Y-116600000D01*
X125800000Y-116600000D01*
X125809755Y-116600961D01*
G37*
G36*
X120809755Y-116600961D02*
G01*
X120819134Y-116603806D01*
X120827779Y-116608427D01*
X120835355Y-116614645D01*
X120841573Y-116622221D01*
X120846194Y-116630866D01*
X120849039Y-116640245D01*
X120850000Y-116650000D01*
X120850000Y-120550000D01*
X120849039Y-120559755D01*
X120846194Y-120569134D01*
X120841573Y-120577779D01*
X120835355Y-120585355D01*
X120827779Y-120591573D01*
X120819134Y-120596194D01*
X120809755Y-120599039D01*
X120800000Y-120600000D01*
X119400000Y-120600000D01*
X119390245Y-120599039D01*
X119380866Y-120596194D01*
X119372221Y-120591573D01*
X119364645Y-120585355D01*
X119358427Y-120577779D01*
X119353806Y-120569134D01*
X119350961Y-120559755D01*
X119350000Y-120550000D01*
X119350000Y-116650000D01*
X119350961Y-116640245D01*
X119353806Y-116630866D01*
X119358427Y-116622221D01*
X119364645Y-116614645D01*
X119372221Y-116608427D01*
X119380866Y-116603806D01*
X119390245Y-116600961D01*
X119400000Y-116600000D01*
X120800000Y-116600000D01*
X120809755Y-116600961D01*
G37*
G36*
X80809755Y-116600961D02*
G01*
X80819134Y-116603806D01*
X80827779Y-116608427D01*
X80835355Y-116614645D01*
X80841573Y-116622221D01*
X80846194Y-116630866D01*
X80849039Y-116640245D01*
X80850000Y-116650000D01*
X80850000Y-120550000D01*
X80849039Y-120559755D01*
X80846194Y-120569134D01*
X80841573Y-120577779D01*
X80835355Y-120585355D01*
X80827779Y-120591573D01*
X80819134Y-120596194D01*
X80809755Y-120599039D01*
X80800000Y-120600000D01*
X79400000Y-120600000D01*
X79390245Y-120599039D01*
X79380866Y-120596194D01*
X79372221Y-120591573D01*
X79364645Y-120585355D01*
X79358427Y-120577779D01*
X79353806Y-120569134D01*
X79350961Y-120559755D01*
X79350000Y-120550000D01*
X79350000Y-116650000D01*
X79350961Y-116640245D01*
X79353806Y-116630866D01*
X79358427Y-116622221D01*
X79364645Y-116614645D01*
X79372221Y-116608427D01*
X79380866Y-116603806D01*
X79390245Y-116600961D01*
X79400000Y-116600000D01*
X80800000Y-116600000D01*
X80809755Y-116600961D01*
G37*
G36*
X78309755Y-116600961D02*
G01*
X78319134Y-116603806D01*
X78327779Y-116608427D01*
X78335355Y-116614645D01*
X78341573Y-116622221D01*
X78346194Y-116630866D01*
X78349039Y-116640245D01*
X78350000Y-116650000D01*
X78350000Y-120550000D01*
X78349039Y-120559755D01*
X78346194Y-120569134D01*
X78341573Y-120577779D01*
X78335355Y-120585355D01*
X78327779Y-120591573D01*
X78319134Y-120596194D01*
X78309755Y-120599039D01*
X78300000Y-120600000D01*
X76900000Y-120600000D01*
X76890245Y-120599039D01*
X76880866Y-120596194D01*
X76872221Y-120591573D01*
X76864645Y-120585355D01*
X76858427Y-120577779D01*
X76853806Y-120569134D01*
X76850961Y-120559755D01*
X76850000Y-120550000D01*
X76850000Y-116650000D01*
X76850961Y-116640245D01*
X76853806Y-116630866D01*
X76858427Y-116622221D01*
X76864645Y-116614645D01*
X76872221Y-116608427D01*
X76880866Y-116603806D01*
X76890245Y-116600961D01*
X76900000Y-116600000D01*
X78300000Y-116600000D01*
X78309755Y-116600961D01*
G37*
G36*
X75809755Y-116600961D02*
G01*
X75819134Y-116603806D01*
X75827779Y-116608427D01*
X75835355Y-116614645D01*
X75841573Y-116622221D01*
X75846194Y-116630866D01*
X75849039Y-116640245D01*
X75850000Y-116650000D01*
X75850000Y-120550000D01*
X75849039Y-120559755D01*
X75846194Y-120569134D01*
X75841573Y-120577779D01*
X75835355Y-120585355D01*
X75827779Y-120591573D01*
X75819134Y-120596194D01*
X75809755Y-120599039D01*
X75800000Y-120600000D01*
X74400000Y-120600000D01*
X74390245Y-120599039D01*
X74380866Y-120596194D01*
X74372221Y-120591573D01*
X74364645Y-120585355D01*
X74358427Y-120577779D01*
X74353806Y-120569134D01*
X74350961Y-120559755D01*
X74350000Y-120550000D01*
X74350000Y-116650000D01*
X74350961Y-116640245D01*
X74353806Y-116630866D01*
X74358427Y-116622221D01*
X74364645Y-116614645D01*
X74372221Y-116608427D01*
X74380866Y-116603806D01*
X74390245Y-116600961D01*
X74400000Y-116600000D01*
X75800000Y-116600000D01*
X75809755Y-116600961D01*
G37*
G36*
X105809755Y-116600961D02*
G01*
X105819134Y-116603806D01*
X105827779Y-116608427D01*
X105835355Y-116614645D01*
X105841573Y-116622221D01*
X105846194Y-116630866D01*
X105849039Y-116640245D01*
X105850000Y-116650000D01*
X105850000Y-120550000D01*
X105849039Y-120559755D01*
X105846194Y-120569134D01*
X105841573Y-120577779D01*
X105835355Y-120585355D01*
X105827779Y-120591573D01*
X105819134Y-120596194D01*
X105809755Y-120599039D01*
X105800000Y-120600000D01*
X104400000Y-120600000D01*
X104390245Y-120599039D01*
X104380866Y-120596194D01*
X104372221Y-120591573D01*
X104364645Y-120585355D01*
X104358427Y-120577779D01*
X104353806Y-120569134D01*
X104350961Y-120559755D01*
X104350000Y-120550000D01*
X104350000Y-116650000D01*
X104350961Y-116640245D01*
X104353806Y-116630866D01*
X104358427Y-116622221D01*
X104364645Y-116614645D01*
X104372221Y-116608427D01*
X104380866Y-116603806D01*
X104390245Y-116600961D01*
X104400000Y-116600000D01*
X105800000Y-116600000D01*
X105809755Y-116600961D01*
G37*
G36*
X98309755Y-116600961D02*
G01*
X98319134Y-116603806D01*
X98327779Y-116608427D01*
X98335355Y-116614645D01*
X98341573Y-116622221D01*
X98346194Y-116630866D01*
X98349039Y-116640245D01*
X98350000Y-116650000D01*
X98350000Y-120550000D01*
X98349039Y-120559755D01*
X98346194Y-120569134D01*
X98341573Y-120577779D01*
X98335355Y-120585355D01*
X98327779Y-120591573D01*
X98319134Y-120596194D01*
X98309755Y-120599039D01*
X98300000Y-120600000D01*
X96900000Y-120600000D01*
X96890245Y-120599039D01*
X96880866Y-120596194D01*
X96872221Y-120591573D01*
X96864645Y-120585355D01*
X96858427Y-120577779D01*
X96853806Y-120569134D01*
X96850961Y-120559755D01*
X96850000Y-120550000D01*
X96850000Y-116650000D01*
X96850961Y-116640245D01*
X96853806Y-116630866D01*
X96858427Y-116622221D01*
X96864645Y-116614645D01*
X96872221Y-116608427D01*
X96880866Y-116603806D01*
X96890245Y-116600961D01*
X96900000Y-116600000D01*
X98300000Y-116600000D01*
X98309755Y-116600961D01*
G37*
G36*
X88309755Y-116600961D02*
G01*
X88319134Y-116603806D01*
X88327779Y-116608427D01*
X88335355Y-116614645D01*
X88341573Y-116622221D01*
X88346194Y-116630866D01*
X88349039Y-116640245D01*
X88350000Y-116650000D01*
X88350000Y-120550000D01*
X88349039Y-120559755D01*
X88346194Y-120569134D01*
X88341573Y-120577779D01*
X88335355Y-120585355D01*
X88327779Y-120591573D01*
X88319134Y-120596194D01*
X88309755Y-120599039D01*
X88300000Y-120600000D01*
X86900000Y-120600000D01*
X86890245Y-120599039D01*
X86880866Y-120596194D01*
X86872221Y-120591573D01*
X86864645Y-120585355D01*
X86858427Y-120577779D01*
X86853806Y-120569134D01*
X86850961Y-120559755D01*
X86850000Y-120550000D01*
X86850000Y-116650000D01*
X86850961Y-116640245D01*
X86853806Y-116630866D01*
X86858427Y-116622221D01*
X86864645Y-116614645D01*
X86872221Y-116608427D01*
X86880866Y-116603806D01*
X86890245Y-116600961D01*
X86900000Y-116600000D01*
X88300000Y-116600000D01*
X88309755Y-116600961D01*
G37*
G36*
X108309755Y-116600961D02*
G01*
X108319134Y-116603806D01*
X108327779Y-116608427D01*
X108335355Y-116614645D01*
X108341573Y-116622221D01*
X108346194Y-116630866D01*
X108349039Y-116640245D01*
X108350000Y-116650000D01*
X108350000Y-120550000D01*
X108349039Y-120559755D01*
X108346194Y-120569134D01*
X108341573Y-120577779D01*
X108335355Y-120585355D01*
X108327779Y-120591573D01*
X108319134Y-120596194D01*
X108309755Y-120599039D01*
X108300000Y-120600000D01*
X106900000Y-120600000D01*
X106890245Y-120599039D01*
X106880866Y-120596194D01*
X106872221Y-120591573D01*
X106864645Y-120585355D01*
X106858427Y-120577779D01*
X106853806Y-120569134D01*
X106850961Y-120559755D01*
X106850000Y-120550000D01*
X106850000Y-116650000D01*
X106850961Y-116640245D01*
X106853806Y-116630866D01*
X106858427Y-116622221D01*
X106864645Y-116614645D01*
X106872221Y-116608427D01*
X106880866Y-116603806D01*
X106890245Y-116600961D01*
X106900000Y-116600000D01*
X108300000Y-116600000D01*
X108309755Y-116600961D01*
G37*
G36*
X110809755Y-116600961D02*
G01*
X110819134Y-116603806D01*
X110827779Y-116608427D01*
X110835355Y-116614645D01*
X110841573Y-116622221D01*
X110846194Y-116630866D01*
X110849039Y-116640245D01*
X110850000Y-116650000D01*
X110850000Y-120550000D01*
X110849039Y-120559755D01*
X110846194Y-120569134D01*
X110841573Y-120577779D01*
X110835355Y-120585355D01*
X110827779Y-120591573D01*
X110819134Y-120596194D01*
X110809755Y-120599039D01*
X110800000Y-120600000D01*
X109400000Y-120600000D01*
X109390245Y-120599039D01*
X109380866Y-120596194D01*
X109372221Y-120591573D01*
X109364645Y-120585355D01*
X109358427Y-120577779D01*
X109353806Y-120569134D01*
X109350961Y-120559755D01*
X109350000Y-120550000D01*
X109350000Y-116650000D01*
X109350961Y-116640245D01*
X109353806Y-116630866D01*
X109358427Y-116622221D01*
X109364645Y-116614645D01*
X109372221Y-116608427D01*
X109380866Y-116603806D01*
X109390245Y-116600961D01*
X109400000Y-116600000D01*
X110800000Y-116600000D01*
X110809755Y-116600961D01*
G37*
G36*
X100809755Y-116600961D02*
G01*
X100819134Y-116603806D01*
X100827779Y-116608427D01*
X100835355Y-116614645D01*
X100841573Y-116622221D01*
X100846194Y-116630866D01*
X100849039Y-116640245D01*
X100850000Y-116650000D01*
X100850000Y-120550000D01*
X100849039Y-120559755D01*
X100846194Y-120569134D01*
X100841573Y-120577779D01*
X100835355Y-120585355D01*
X100827779Y-120591573D01*
X100819134Y-120596194D01*
X100809755Y-120599039D01*
X100800000Y-120600000D01*
X99400000Y-120600000D01*
X99390245Y-120599039D01*
X99380866Y-120596194D01*
X99372221Y-120591573D01*
X99364645Y-120585355D01*
X99358427Y-120577779D01*
X99353806Y-120569134D01*
X99350961Y-120559755D01*
X99350000Y-120550000D01*
X99350000Y-116650000D01*
X99350961Y-116640245D01*
X99353806Y-116630866D01*
X99358427Y-116622221D01*
X99364645Y-116614645D01*
X99372221Y-116608427D01*
X99380866Y-116603806D01*
X99390245Y-116600961D01*
X99400000Y-116600000D01*
X100800000Y-116600000D01*
X100809755Y-116600961D01*
G37*
G36*
X93309755Y-116600961D02*
G01*
X93319134Y-116603806D01*
X93327779Y-116608427D01*
X93335355Y-116614645D01*
X93341573Y-116622221D01*
X93346194Y-116630866D01*
X93349039Y-116640245D01*
X93350000Y-116650000D01*
X93350000Y-120550000D01*
X93349039Y-120559755D01*
X93346194Y-120569134D01*
X93341573Y-120577779D01*
X93335355Y-120585355D01*
X93327779Y-120591573D01*
X93319134Y-120596194D01*
X93309755Y-120599039D01*
X93300000Y-120600000D01*
X91900000Y-120600000D01*
X91890245Y-120599039D01*
X91880866Y-120596194D01*
X91872221Y-120591573D01*
X91864645Y-120585355D01*
X91858427Y-120577779D01*
X91853806Y-120569134D01*
X91850961Y-120559755D01*
X91850000Y-120550000D01*
X91850000Y-116650000D01*
X91850961Y-116640245D01*
X91853806Y-116630866D01*
X91858427Y-116622221D01*
X91864645Y-116614645D01*
X91872221Y-116608427D01*
X91880866Y-116603806D01*
X91890245Y-116600961D01*
X91900000Y-116600000D01*
X93300000Y-116600000D01*
X93309755Y-116600961D01*
G37*
D11*
X129210000Y-45600000D03*
X126670000Y-45600000D03*
X124130000Y-45600000D03*
X121590000Y-45600000D03*
X119050000Y-45600000D03*
X116510000Y-45600000D03*
X113970000Y-45600000D03*
X111430000Y-45600000D03*
X108890000Y-45600000D03*
X106350000Y-45600000D03*
X103810000Y-45600000D03*
X101270000Y-45600000D03*
X98730000Y-45600000D03*
X96190000Y-45600000D03*
X93650000Y-45600000D03*
X91110000Y-45600000D03*
X88570000Y-45600000D03*
X86030000Y-45600000D03*
X83490000Y-45600000D03*
X80950000Y-45600000D03*
X78410000Y-45600000D03*
X75870000Y-45600000D03*
X130480000Y-48850000D03*
X127940000Y-48850000D03*
X125400000Y-48850000D03*
X122860000Y-48850000D03*
X120320000Y-48850000D03*
X117780000Y-48850000D03*
X115240000Y-48850000D03*
X112700000Y-48850000D03*
X110160000Y-48850000D03*
X107620000Y-48850000D03*
X105080000Y-48850000D03*
X102540000Y-48850000D03*
X100000000Y-48850000D03*
X97460000Y-48850000D03*
X94920000Y-48850000D03*
X92380000Y-48850000D03*
X89840000Y-48850000D03*
X87300000Y-48850000D03*
X84760000Y-48850000D03*
X82220000Y-48850000D03*
X79680000Y-48850000D03*
X77140000Y-48850000D03*
X74600000Y-48850000D03*
M02*
