%FSLAX45Y45*%
G04 Gerber Fmt 4.5, Leading zero omitted, Abs format (unit mm)*
G04 Created by KiCad (PCBNEW 5.1.10) date 2021-06-22 10:22:03*
%MOMM*%
%LPD*%
G01*
G04 APERTURE LIST*
%TA.AperFunction,Profile*%
%ADD10C,0.050000*%
%TD*%
%ADD11C,0.200000*%
%ADD12C,0.300000*%
G04 APERTURE END LIST*
D10*
X7760000Y-9225000D02*
G75*
G03*
X7760000Y-9225000I-100000J0D01*
G01*
X12960000Y-9225000D02*
G75*
G03*
X12960000Y-9225000I-100000J0D01*
G01*
X10760000Y-10125000D02*
G75*
G03*
X10760000Y-10125000I-500000J0D01*
G01*
X7260000Y-4330000D02*
X7260000Y-12130000D01*
X13260000Y-4330000D02*
X7260000Y-4330000D01*
X13260000Y-12130000D02*
X13260000Y-4330000D01*
X7260000Y-12130000D02*
X13260000Y-12130000D01*
D11*
X7610000Y-10950000D02*
X7650000Y-10990000D01*
X7650000Y-10950000D02*
X7610000Y-10990000D01*
X9860000Y-10990000D02*
X9900000Y-11030000D01*
X9900000Y-10990000D02*
X9860000Y-11030000D01*
X9990000Y-10990000D02*
X10030000Y-11030000D01*
X10030000Y-10990000D02*
X9990000Y-11030000D01*
X10110000Y-10990000D02*
X10150000Y-11030000D01*
X10150000Y-10990000D02*
X10110000Y-11030000D01*
X10240000Y-10990000D02*
X10280000Y-11030000D01*
X10280000Y-10990000D02*
X10240000Y-11030000D01*
X10360000Y-10990000D02*
X10400000Y-11030000D01*
X10400000Y-10990000D02*
X10360000Y-11030000D01*
X7498100Y-4885000D02*
G75*
G03*
X7498100Y-4885000I-38100J0D01*
G01*
X7625100Y-4560000D02*
G75*
G03*
X7625100Y-4560000I-38100J0D01*
G01*
X7752100Y-4885000D02*
G75*
G03*
X7752100Y-4885000I-38100J0D01*
G01*
X7879100Y-4560000D02*
G75*
G03*
X7879100Y-4560000I-38100J0D01*
G01*
X8006100Y-4885000D02*
G75*
G03*
X8006100Y-4885000I-38100J0D01*
G01*
X8133100Y-4560000D02*
G75*
G03*
X8133100Y-4560000I-38100J0D01*
G01*
X8260100Y-4885000D02*
G75*
G03*
X8260100Y-4885000I-38100J0D01*
G01*
X8387100Y-4560000D02*
G75*
G03*
X8387100Y-4560000I-38100J0D01*
G01*
X8514100Y-4885000D02*
G75*
G03*
X8514100Y-4885000I-38100J0D01*
G01*
X8641100Y-4560000D02*
G75*
G03*
X8641100Y-4560000I-38100J0D01*
G01*
X8768100Y-4885000D02*
G75*
G03*
X8768100Y-4885000I-38100J0D01*
G01*
X8895100Y-4560000D02*
G75*
G03*
X8895100Y-4560000I-38100J0D01*
G01*
X9022100Y-4885000D02*
G75*
G03*
X9022100Y-4885000I-38100J0D01*
G01*
X9149100Y-4560000D02*
G75*
G03*
X9149100Y-4560000I-38100J0D01*
G01*
X9276100Y-4885000D02*
G75*
G03*
X9276100Y-4885000I-38100J0D01*
G01*
X9403100Y-4560000D02*
G75*
G03*
X9403100Y-4560000I-38100J0D01*
G01*
X9530100Y-4885000D02*
G75*
G03*
X9530100Y-4885000I-38100J0D01*
G01*
X9657100Y-4560000D02*
G75*
G03*
X9657100Y-4560000I-38100J0D01*
G01*
X9784100Y-4885000D02*
G75*
G03*
X9784100Y-4885000I-38100J0D01*
G01*
X9911100Y-4560000D02*
G75*
G03*
X9911100Y-4560000I-38100J0D01*
G01*
X10038100Y-4885000D02*
G75*
G03*
X10038100Y-4885000I-38100J0D01*
G01*
X10165100Y-4560000D02*
G75*
G03*
X10165100Y-4560000I-38100J0D01*
G01*
X10292100Y-4885000D02*
G75*
G03*
X10292100Y-4885000I-38100J0D01*
G01*
X10419100Y-4560000D02*
G75*
G03*
X10419100Y-4560000I-38100J0D01*
G01*
X10546100Y-4885000D02*
G75*
G03*
X10546100Y-4885000I-38100J0D01*
G01*
X10673100Y-4560000D02*
G75*
G03*
X10673100Y-4560000I-38100J0D01*
G01*
X10800100Y-4885000D02*
G75*
G03*
X10800100Y-4885000I-38100J0D01*
G01*
X10927100Y-4560000D02*
G75*
G03*
X10927100Y-4560000I-38100J0D01*
G01*
X11054100Y-4885000D02*
G75*
G03*
X11054100Y-4885000I-38100J0D01*
G01*
X11181100Y-4560000D02*
G75*
G03*
X11181100Y-4560000I-38100J0D01*
G01*
X11308100Y-4885000D02*
G75*
G03*
X11308100Y-4885000I-38100J0D01*
G01*
X11435100Y-4560000D02*
G75*
G03*
X11435100Y-4560000I-38100J0D01*
G01*
X11562100Y-4885000D02*
G75*
G03*
X11562100Y-4885000I-38100J0D01*
G01*
X11689100Y-4560000D02*
G75*
G03*
X11689100Y-4560000I-38100J0D01*
G01*
X11816100Y-4885000D02*
G75*
G03*
X11816100Y-4885000I-38100J0D01*
G01*
X11943100Y-4560000D02*
G75*
G03*
X11943100Y-4560000I-38100J0D01*
G01*
X12070100Y-4885000D02*
G75*
G03*
X12070100Y-4885000I-38100J0D01*
G01*
X12197100Y-4560000D02*
G75*
G03*
X12197100Y-4560000I-38100J0D01*
G01*
X12324100Y-4885000D02*
G75*
G03*
X12324100Y-4885000I-38100J0D01*
G01*
X12451100Y-4560000D02*
G75*
G03*
X12451100Y-4560000I-38100J0D01*
G01*
X12578100Y-4885000D02*
G75*
G03*
X12578100Y-4885000I-38100J0D01*
G01*
X12705100Y-4560000D02*
G75*
G03*
X12705100Y-4560000I-38100J0D01*
G01*
X12832100Y-4885000D02*
G75*
G03*
X12832100Y-4885000I-38100J0D01*
G01*
X12959100Y-4560000D02*
G75*
G03*
X12959100Y-4560000I-38100J0D01*
G01*
X13086100Y-4885000D02*
G75*
G03*
X13086100Y-4885000I-38100J0D01*
G01*
D12*
X7543928Y-12598214D02*
X7543928Y-12298214D01*
X7615357Y-12298214D01*
X7658214Y-12312500D01*
X7686786Y-12341071D01*
X7701071Y-12369643D01*
X7715357Y-12426786D01*
X7715357Y-12469643D01*
X7701071Y-12526786D01*
X7686786Y-12555357D01*
X7658214Y-12583929D01*
X7615357Y-12598214D01*
X7543928Y-12598214D01*
X7843928Y-12598214D02*
X7843928Y-12398214D01*
X7843928Y-12455357D02*
X7858214Y-12426786D01*
X7872500Y-12412500D01*
X7901071Y-12398214D01*
X7929643Y-12398214D01*
X8029643Y-12598214D02*
X8029643Y-12398214D01*
X8029643Y-12298214D02*
X8015357Y-12312500D01*
X8029643Y-12326786D01*
X8043928Y-12312500D01*
X8029643Y-12298214D01*
X8029643Y-12326786D01*
X8215357Y-12598214D02*
X8186786Y-12583929D01*
X8172500Y-12555357D01*
X8172500Y-12298214D01*
X8372500Y-12598214D02*
X8343928Y-12583929D01*
X8329643Y-12555357D01*
X8329643Y-12298214D01*
X8715357Y-12598214D02*
X8715357Y-12298214D01*
X8815357Y-12512500D01*
X8915357Y-12298214D01*
X8915357Y-12598214D01*
X9186786Y-12598214D02*
X9186786Y-12441071D01*
X9172500Y-12412500D01*
X9143928Y-12398214D01*
X9086786Y-12398214D01*
X9058214Y-12412500D01*
X9186786Y-12583929D02*
X9158214Y-12598214D01*
X9086786Y-12598214D01*
X9058214Y-12583929D01*
X9043928Y-12555357D01*
X9043928Y-12526786D01*
X9058214Y-12498214D01*
X9086786Y-12483929D01*
X9158214Y-12483929D01*
X9186786Y-12469643D01*
X9329643Y-12398214D02*
X9329643Y-12698214D01*
X9329643Y-12412500D02*
X9358214Y-12398214D01*
X9415357Y-12398214D01*
X9443928Y-12412500D01*
X9458214Y-12426786D01*
X9472500Y-12455357D01*
X9472500Y-12541071D01*
X9458214Y-12569643D01*
X9443928Y-12583929D01*
X9415357Y-12598214D01*
X9358214Y-12598214D01*
X9329643Y-12583929D01*
X9601071Y-12569643D02*
X9615357Y-12583929D01*
X9601071Y-12598214D01*
X9586786Y-12583929D01*
X9601071Y-12569643D01*
X9601071Y-12598214D01*
X9601071Y-12412500D02*
X9615357Y-12426786D01*
X9601071Y-12441071D01*
X9586786Y-12426786D01*
X9601071Y-12412500D01*
X9601071Y-12441071D01*
X7217500Y-13072500D02*
X7257500Y-13112500D01*
X7257500Y-13072500D02*
X7217500Y-13112500D01*
X7601071Y-12928214D02*
X7629643Y-12928214D01*
X7658214Y-12942500D01*
X7672500Y-12956786D01*
X7686786Y-12985357D01*
X7701071Y-13042500D01*
X7701071Y-13113929D01*
X7686786Y-13171071D01*
X7672500Y-13199643D01*
X7658214Y-13213929D01*
X7629643Y-13228214D01*
X7601071Y-13228214D01*
X7572500Y-13213929D01*
X7558214Y-13199643D01*
X7543928Y-13171071D01*
X7529643Y-13113929D01*
X7529643Y-13042500D01*
X7543928Y-12985357D01*
X7558214Y-12956786D01*
X7572500Y-12942500D01*
X7601071Y-12928214D01*
X7829643Y-13199643D02*
X7843928Y-13213929D01*
X7829643Y-13228214D01*
X7815357Y-13213929D01*
X7829643Y-13199643D01*
X7829643Y-13228214D01*
X8101071Y-13028214D02*
X8101071Y-13228214D01*
X8029643Y-12913929D02*
X7958214Y-13128214D01*
X8143928Y-13128214D01*
X8315357Y-12928214D02*
X8343928Y-12928214D01*
X8372500Y-12942500D01*
X8386786Y-12956786D01*
X8401071Y-12985357D01*
X8415357Y-13042500D01*
X8415357Y-13113929D01*
X8401071Y-13171071D01*
X8386786Y-13199643D01*
X8372500Y-13213929D01*
X8343928Y-13228214D01*
X8315357Y-13228214D01*
X8286786Y-13213929D01*
X8272500Y-13199643D01*
X8258214Y-13171071D01*
X8243928Y-13113929D01*
X8243928Y-13042500D01*
X8258214Y-12985357D01*
X8272500Y-12956786D01*
X8286786Y-12942500D01*
X8315357Y-12928214D01*
X8601071Y-12928214D02*
X8629643Y-12928214D01*
X8658214Y-12942500D01*
X8672500Y-12956786D01*
X8686786Y-12985357D01*
X8701071Y-13042500D01*
X8701071Y-13113929D01*
X8686786Y-13171071D01*
X8672500Y-13199643D01*
X8658214Y-13213929D01*
X8629643Y-13228214D01*
X8601071Y-13228214D01*
X8572500Y-13213929D01*
X8558214Y-13199643D01*
X8543928Y-13171071D01*
X8529643Y-13113929D01*
X8529643Y-13042500D01*
X8543928Y-12985357D01*
X8558214Y-12956786D01*
X8572500Y-12942500D01*
X8601071Y-12928214D01*
X8829643Y-13228214D02*
X8829643Y-13028214D01*
X8829643Y-13056786D02*
X8843928Y-13042500D01*
X8872500Y-13028214D01*
X8915357Y-13028214D01*
X8943928Y-13042500D01*
X8958214Y-13071071D01*
X8958214Y-13228214D01*
X8958214Y-13071071D02*
X8972500Y-13042500D01*
X9001071Y-13028214D01*
X9043928Y-13028214D01*
X9072500Y-13042500D01*
X9086786Y-13071071D01*
X9086786Y-13228214D01*
X9229643Y-13228214D02*
X9229643Y-13028214D01*
X9229643Y-13056786D02*
X9243928Y-13042500D01*
X9272500Y-13028214D01*
X9315357Y-13028214D01*
X9343928Y-13042500D01*
X9358214Y-13071071D01*
X9358214Y-13228214D01*
X9358214Y-13071071D02*
X9372500Y-13042500D01*
X9401071Y-13028214D01*
X9443928Y-13028214D01*
X9472500Y-13042500D01*
X9486786Y-13071071D01*
X9486786Y-13228214D01*
X10072500Y-12913929D02*
X9815357Y-13299643D01*
X10458214Y-12928214D02*
X10486786Y-12928214D01*
X10515357Y-12942500D01*
X10529643Y-12956786D01*
X10543928Y-12985357D01*
X10558214Y-13042500D01*
X10558214Y-13113929D01*
X10543928Y-13171071D01*
X10529643Y-13199643D01*
X10515357Y-13213929D01*
X10486786Y-13228214D01*
X10458214Y-13228214D01*
X10429643Y-13213929D01*
X10415357Y-13199643D01*
X10401071Y-13171071D01*
X10386786Y-13113929D01*
X10386786Y-13042500D01*
X10401071Y-12985357D01*
X10415357Y-12956786D01*
X10429643Y-12942500D01*
X10458214Y-12928214D01*
X10686786Y-13199643D02*
X10701071Y-13213929D01*
X10686786Y-13228214D01*
X10672500Y-13213929D01*
X10686786Y-13199643D01*
X10686786Y-13228214D01*
X10886786Y-12928214D02*
X10915357Y-12928214D01*
X10943928Y-12942500D01*
X10958214Y-12956786D01*
X10972500Y-12985357D01*
X10986786Y-13042500D01*
X10986786Y-13113929D01*
X10972500Y-13171071D01*
X10958214Y-13199643D01*
X10943928Y-13213929D01*
X10915357Y-13228214D01*
X10886786Y-13228214D01*
X10858214Y-13213929D01*
X10843928Y-13199643D01*
X10829643Y-13171071D01*
X10815357Y-13113929D01*
X10815357Y-13042500D01*
X10829643Y-12985357D01*
X10843928Y-12956786D01*
X10858214Y-12942500D01*
X10886786Y-12928214D01*
X11272500Y-13228214D02*
X11101071Y-13228214D01*
X11186786Y-13228214D02*
X11186786Y-12928214D01*
X11158214Y-12971071D01*
X11129643Y-12999643D01*
X11101071Y-13013929D01*
X11543928Y-12928214D02*
X11401071Y-12928214D01*
X11386786Y-13071071D01*
X11401071Y-13056786D01*
X11429643Y-13042500D01*
X11501071Y-13042500D01*
X11529643Y-13056786D01*
X11543928Y-13071071D01*
X11558214Y-13099643D01*
X11558214Y-13171071D01*
X11543928Y-13199643D01*
X11529643Y-13213929D01*
X11501071Y-13228214D01*
X11429643Y-13228214D01*
X11401071Y-13213929D01*
X11386786Y-13199643D01*
X11658214Y-12928214D02*
X11858214Y-12928214D01*
X11729643Y-13228214D01*
X11958214Y-12928214D02*
X11958214Y-12985357D01*
X12072500Y-12928214D02*
X12072500Y-12985357D01*
X12515357Y-13342500D02*
X12501071Y-13328214D01*
X12472500Y-13285357D01*
X12458214Y-13256786D01*
X12443928Y-13213929D01*
X12429643Y-13142500D01*
X12429643Y-13085357D01*
X12443928Y-13013929D01*
X12458214Y-12971071D01*
X12472500Y-12942500D01*
X12501071Y-12899643D01*
X12515357Y-12885357D01*
X12758214Y-12928214D02*
X12701071Y-12928214D01*
X12672500Y-12942500D01*
X12658214Y-12956786D01*
X12629643Y-12999643D01*
X12615357Y-13056786D01*
X12615357Y-13171071D01*
X12629643Y-13199643D01*
X12643928Y-13213929D01*
X12672500Y-13228214D01*
X12729643Y-13228214D01*
X12758214Y-13213929D01*
X12772500Y-13199643D01*
X12786786Y-13171071D01*
X12786786Y-13099643D01*
X12772500Y-13071071D01*
X12758214Y-13056786D01*
X12729643Y-13042500D01*
X12672500Y-13042500D01*
X12643928Y-13056786D01*
X12629643Y-13071071D01*
X12615357Y-13099643D01*
X13143928Y-13228214D02*
X13143928Y-12928214D01*
X13272500Y-13228214D02*
X13272500Y-13071071D01*
X13258214Y-13042500D01*
X13229643Y-13028214D01*
X13186786Y-13028214D01*
X13158214Y-13042500D01*
X13143928Y-13056786D01*
X13458214Y-13228214D02*
X13429643Y-13213929D01*
X13415357Y-13199643D01*
X13401071Y-13171071D01*
X13401071Y-13085357D01*
X13415357Y-13056786D01*
X13429643Y-13042500D01*
X13458214Y-13028214D01*
X13501071Y-13028214D01*
X13529643Y-13042500D01*
X13543928Y-13056786D01*
X13558214Y-13085357D01*
X13558214Y-13171071D01*
X13543928Y-13199643D01*
X13529643Y-13213929D01*
X13501071Y-13228214D01*
X13458214Y-13228214D01*
X13729643Y-13228214D02*
X13701071Y-13213929D01*
X13686786Y-13185357D01*
X13686786Y-12928214D01*
X13958214Y-13213929D02*
X13929643Y-13228214D01*
X13872500Y-13228214D01*
X13843928Y-13213929D01*
X13829643Y-13185357D01*
X13829643Y-13071071D01*
X13843928Y-13042500D01*
X13872500Y-13028214D01*
X13929643Y-13028214D01*
X13958214Y-13042500D01*
X13972500Y-13071071D01*
X13972500Y-13099643D01*
X13829643Y-13128214D01*
X14086786Y-13213929D02*
X14115357Y-13228214D01*
X14172500Y-13228214D01*
X14201071Y-13213929D01*
X14215357Y-13185357D01*
X14215357Y-13171071D01*
X14201071Y-13142500D01*
X14172500Y-13128214D01*
X14129643Y-13128214D01*
X14101071Y-13113929D01*
X14086786Y-13085357D01*
X14086786Y-13071071D01*
X14101071Y-13042500D01*
X14129643Y-13028214D01*
X14172500Y-13028214D01*
X14201071Y-13042500D01*
X14315357Y-13342500D02*
X14329643Y-13328214D01*
X14358214Y-13285357D01*
X14372500Y-13256786D01*
X14386786Y-13213929D01*
X14401071Y-13142500D01*
X14401071Y-13085357D01*
X14386786Y-13013929D01*
X14372500Y-12971071D01*
X14358214Y-12942500D01*
X14329643Y-12899643D01*
X14315357Y-12885357D01*
X7257500Y-13488500D02*
G75*
G03*
X7257500Y-13488500I-38100J0D01*
G01*
X7601071Y-13324214D02*
X7629643Y-13324214D01*
X7658214Y-13338500D01*
X7672500Y-13352786D01*
X7686786Y-13381357D01*
X7701071Y-13438500D01*
X7701071Y-13509929D01*
X7686786Y-13567071D01*
X7672500Y-13595643D01*
X7658214Y-13609929D01*
X7629643Y-13624214D01*
X7601071Y-13624214D01*
X7572500Y-13609929D01*
X7558214Y-13595643D01*
X7543928Y-13567071D01*
X7529643Y-13509929D01*
X7529643Y-13438500D01*
X7543928Y-13381357D01*
X7558214Y-13352786D01*
X7572500Y-13338500D01*
X7601071Y-13324214D01*
X7829643Y-13595643D02*
X7843928Y-13609929D01*
X7829643Y-13624214D01*
X7815357Y-13609929D01*
X7829643Y-13595643D01*
X7829643Y-13624214D01*
X7943928Y-13324214D02*
X8143928Y-13324214D01*
X8015357Y-13624214D01*
X8386786Y-13324214D02*
X8329643Y-13324214D01*
X8301071Y-13338500D01*
X8286786Y-13352786D01*
X8258214Y-13395643D01*
X8243928Y-13452786D01*
X8243928Y-13567071D01*
X8258214Y-13595643D01*
X8272500Y-13609929D01*
X8301071Y-13624214D01*
X8358214Y-13624214D01*
X8386786Y-13609929D01*
X8401071Y-13595643D01*
X8415357Y-13567071D01*
X8415357Y-13495643D01*
X8401071Y-13467071D01*
X8386786Y-13452786D01*
X8358214Y-13438500D01*
X8301071Y-13438500D01*
X8272500Y-13452786D01*
X8258214Y-13467071D01*
X8243928Y-13495643D01*
X8529643Y-13352786D02*
X8543928Y-13338500D01*
X8572500Y-13324214D01*
X8643928Y-13324214D01*
X8672500Y-13338500D01*
X8686786Y-13352786D01*
X8701071Y-13381357D01*
X8701071Y-13409929D01*
X8686786Y-13452786D01*
X8515357Y-13624214D01*
X8701071Y-13624214D01*
X8829643Y-13624214D02*
X8829643Y-13424214D01*
X8829643Y-13452786D02*
X8843928Y-13438500D01*
X8872500Y-13424214D01*
X8915357Y-13424214D01*
X8943928Y-13438500D01*
X8958214Y-13467071D01*
X8958214Y-13624214D01*
X8958214Y-13467071D02*
X8972500Y-13438500D01*
X9001071Y-13424214D01*
X9043928Y-13424214D01*
X9072500Y-13438500D01*
X9086786Y-13467071D01*
X9086786Y-13624214D01*
X9229643Y-13624214D02*
X9229643Y-13424214D01*
X9229643Y-13452786D02*
X9243928Y-13438500D01*
X9272500Y-13424214D01*
X9315357Y-13424214D01*
X9343928Y-13438500D01*
X9358214Y-13467071D01*
X9358214Y-13624214D01*
X9358214Y-13467071D02*
X9372500Y-13438500D01*
X9401071Y-13424214D01*
X9443928Y-13424214D01*
X9472500Y-13438500D01*
X9486786Y-13467071D01*
X9486786Y-13624214D01*
X10072500Y-13309929D02*
X9815357Y-13695643D01*
X10458214Y-13324214D02*
X10486786Y-13324214D01*
X10515357Y-13338500D01*
X10529643Y-13352786D01*
X10543928Y-13381357D01*
X10558214Y-13438500D01*
X10558214Y-13509929D01*
X10543928Y-13567071D01*
X10529643Y-13595643D01*
X10515357Y-13609929D01*
X10486786Y-13624214D01*
X10458214Y-13624214D01*
X10429643Y-13609929D01*
X10415357Y-13595643D01*
X10401071Y-13567071D01*
X10386786Y-13509929D01*
X10386786Y-13438500D01*
X10401071Y-13381357D01*
X10415357Y-13352786D01*
X10429643Y-13338500D01*
X10458214Y-13324214D01*
X10686786Y-13595643D02*
X10701071Y-13609929D01*
X10686786Y-13624214D01*
X10672500Y-13609929D01*
X10686786Y-13595643D01*
X10686786Y-13624214D01*
X10886786Y-13324214D02*
X10915357Y-13324214D01*
X10943928Y-13338500D01*
X10958214Y-13352786D01*
X10972500Y-13381357D01*
X10986786Y-13438500D01*
X10986786Y-13509929D01*
X10972500Y-13567071D01*
X10958214Y-13595643D01*
X10943928Y-13609929D01*
X10915357Y-13624214D01*
X10886786Y-13624214D01*
X10858214Y-13609929D01*
X10843928Y-13595643D01*
X10829643Y-13567071D01*
X10815357Y-13509929D01*
X10815357Y-13438500D01*
X10829643Y-13381357D01*
X10843928Y-13352786D01*
X10858214Y-13338500D01*
X10886786Y-13324214D01*
X11086786Y-13324214D02*
X11272500Y-13324214D01*
X11172500Y-13438500D01*
X11215357Y-13438500D01*
X11243928Y-13452786D01*
X11258214Y-13467071D01*
X11272500Y-13495643D01*
X11272500Y-13567071D01*
X11258214Y-13595643D01*
X11243928Y-13609929D01*
X11215357Y-13624214D01*
X11129643Y-13624214D01*
X11101071Y-13609929D01*
X11086786Y-13595643D01*
X11458214Y-13324214D02*
X11486786Y-13324214D01*
X11515357Y-13338500D01*
X11529643Y-13352786D01*
X11543928Y-13381357D01*
X11558214Y-13438500D01*
X11558214Y-13509929D01*
X11543928Y-13567071D01*
X11529643Y-13595643D01*
X11515357Y-13609929D01*
X11486786Y-13624214D01*
X11458214Y-13624214D01*
X11429643Y-13609929D01*
X11415357Y-13595643D01*
X11401071Y-13567071D01*
X11386786Y-13509929D01*
X11386786Y-13438500D01*
X11401071Y-13381357D01*
X11415357Y-13352786D01*
X11429643Y-13338500D01*
X11458214Y-13324214D01*
X11743928Y-13324214D02*
X11772500Y-13324214D01*
X11801071Y-13338500D01*
X11815357Y-13352786D01*
X11829643Y-13381357D01*
X11843928Y-13438500D01*
X11843928Y-13509929D01*
X11829643Y-13567071D01*
X11815357Y-13595643D01*
X11801071Y-13609929D01*
X11772500Y-13624214D01*
X11743928Y-13624214D01*
X11715357Y-13609929D01*
X11701071Y-13595643D01*
X11686786Y-13567071D01*
X11672500Y-13509929D01*
X11672500Y-13438500D01*
X11686786Y-13381357D01*
X11701071Y-13352786D01*
X11715357Y-13338500D01*
X11743928Y-13324214D01*
X11958214Y-13324214D02*
X11958214Y-13381357D01*
X12072500Y-13324214D02*
X12072500Y-13381357D01*
X12515357Y-13738500D02*
X12501071Y-13724214D01*
X12472500Y-13681357D01*
X12458214Y-13652786D01*
X12443928Y-13609929D01*
X12429643Y-13538500D01*
X12429643Y-13481357D01*
X12443928Y-13409929D01*
X12458214Y-13367071D01*
X12472500Y-13338500D01*
X12501071Y-13295643D01*
X12515357Y-13281357D01*
X12758214Y-13424214D02*
X12758214Y-13624214D01*
X12686786Y-13309929D02*
X12615357Y-13524214D01*
X12801071Y-13524214D01*
X13058214Y-13324214D02*
X12915357Y-13324214D01*
X12901071Y-13467071D01*
X12915357Y-13452786D01*
X12943928Y-13438500D01*
X13015357Y-13438500D01*
X13043928Y-13452786D01*
X13058214Y-13467071D01*
X13072500Y-13495643D01*
X13072500Y-13567071D01*
X13058214Y-13595643D01*
X13043928Y-13609929D01*
X13015357Y-13624214D01*
X12943928Y-13624214D01*
X12915357Y-13609929D01*
X12901071Y-13595643D01*
X13429643Y-13624214D02*
X13429643Y-13324214D01*
X13558214Y-13624214D02*
X13558214Y-13467071D01*
X13543928Y-13438500D01*
X13515357Y-13424214D01*
X13472500Y-13424214D01*
X13443928Y-13438500D01*
X13429643Y-13452786D01*
X13743928Y-13624214D02*
X13715357Y-13609929D01*
X13701071Y-13595643D01*
X13686786Y-13567071D01*
X13686786Y-13481357D01*
X13701071Y-13452786D01*
X13715357Y-13438500D01*
X13743928Y-13424214D01*
X13786786Y-13424214D01*
X13815357Y-13438500D01*
X13829643Y-13452786D01*
X13843928Y-13481357D01*
X13843928Y-13567071D01*
X13829643Y-13595643D01*
X13815357Y-13609929D01*
X13786786Y-13624214D01*
X13743928Y-13624214D01*
X14015357Y-13624214D02*
X13986786Y-13609929D01*
X13972500Y-13581357D01*
X13972500Y-13324214D01*
X14243928Y-13609929D02*
X14215357Y-13624214D01*
X14158214Y-13624214D01*
X14129643Y-13609929D01*
X14115357Y-13581357D01*
X14115357Y-13467071D01*
X14129643Y-13438500D01*
X14158214Y-13424214D01*
X14215357Y-13424214D01*
X14243928Y-13438500D01*
X14258214Y-13467071D01*
X14258214Y-13495643D01*
X14115357Y-13524214D01*
X14372500Y-13609929D02*
X14401071Y-13624214D01*
X14458214Y-13624214D01*
X14486786Y-13609929D01*
X14501071Y-13581357D01*
X14501071Y-13567071D01*
X14486786Y-13538500D01*
X14458214Y-13524214D01*
X14415357Y-13524214D01*
X14386786Y-13509929D01*
X14372500Y-13481357D01*
X14372500Y-13467071D01*
X14386786Y-13438500D01*
X14415357Y-13424214D01*
X14458214Y-13424214D01*
X14486786Y-13438500D01*
X14601071Y-13738500D02*
X14615357Y-13724214D01*
X14643928Y-13681357D01*
X14658214Y-13652786D01*
X14672500Y-13609929D01*
X14686786Y-13538500D01*
X14686786Y-13481357D01*
X14672500Y-13409929D01*
X14658214Y-13367071D01*
X14643928Y-13338500D01*
X14615357Y-13295643D01*
X14601071Y-13281357D01*
M02*
