M48
; DRILL file {KiCad 5.1.10} date Tue Jun 22 10:21:48 2021
; FORMAT={-:-/ absolute / metric / decimal}
; #@! TF.CreationDate,2021-06-22T10:21:48-06:00
; #@! TF.GenerationSoftware,Kicad,Pcbnew,5.1.10
; #@! TF.FileFunction,Plated,1,2,PTH
FMAT,2
METRIC
T1C0.400
T2C0.762
%
G90
G05
T1
X76.3Y-109.7
X98.8Y-110.1
X100.1Y-110.1
X101.3Y-110.1
X102.6Y-110.1
X103.8Y-110.1
T2
X74.6Y-48.85
X75.87Y-45.6
X77.14Y-48.85
X78.41Y-45.6
X79.68Y-48.85
X80.95Y-45.6
X82.22Y-48.85
X83.49Y-45.6
X84.76Y-48.85
X86.03Y-45.6
X87.3Y-48.85
X88.57Y-45.6
X89.84Y-48.85
X91.11Y-45.6
X92.38Y-48.85
X93.65Y-45.6
X94.92Y-48.85
X96.19Y-45.6
X97.46Y-48.85
X98.73Y-45.6
X100.0Y-48.85
X101.27Y-45.6
X102.54Y-48.85
X103.81Y-45.6
X105.08Y-48.85
X106.35Y-45.6
X107.62Y-48.85
X108.89Y-45.6
X110.16Y-48.85
X111.43Y-45.6
X112.7Y-48.85
X113.97Y-45.6
X115.24Y-48.85
X116.51Y-45.6
X117.78Y-48.85
X119.05Y-45.6
X120.32Y-48.85
X121.59Y-45.6
X122.86Y-48.85
X124.13Y-45.6
X125.4Y-48.85
X126.67Y-45.6
X127.94Y-48.85
X129.21Y-45.6
X130.48Y-48.85
T0
M30
