G04 #@! TF.GenerationSoftware,KiCad,Pcbnew,5.1.10*
G04 #@! TF.CreationDate,2021-06-22T10:21:35-06:00*
G04 #@! TF.ProjectId,dev_cart_pcb,6465765f-6361-4727-945f-7063622e6b69,rev?*
G04 #@! TF.SameCoordinates,Original*
G04 #@! TF.FileFunction,Copper,L1,Top*
G04 #@! TF.FilePolarity,Positive*
%FSLAX46Y46*%
G04 Gerber Fmt 4.6, Leading zero omitted, Abs format (unit mm)*
G04 Created by KiCad (PCBNEW 5.1.10) date 2021-06-22 10:21:35*
%MOMM*%
%LPD*%
G01*
G04 APERTURE LIST*
G04 #@! TA.AperFunction,SMDPad,CuDef*
%ADD10C,0.100000*%
G04 #@! TD*
G04 #@! TA.AperFunction,ComponentPad*
%ADD11C,1.524000*%
G04 #@! TD*
G04 #@! TA.AperFunction,ViaPad*
%ADD12C,0.800000*%
G04 #@! TD*
G04 #@! TA.AperFunction,Conductor*
%ADD13C,0.250000*%
G04 #@! TD*
G04 #@! TA.AperFunction,NonConductor*
%ADD14C,0.500000*%
G04 #@! TD*
G04 #@! TA.AperFunction,NonConductor*
%ADD15C,0.100000*%
G04 #@! TD*
G04 APERTURE END LIST*
G04 #@! TA.AperFunction,SMDPad,CuDef*
D10*
G36*
X92059755Y-111498961D02*
G01*
X92069134Y-111501806D01*
X92077779Y-111506427D01*
X92085355Y-111512645D01*
X92091573Y-111520221D01*
X92096194Y-111528866D01*
X92099039Y-111538245D01*
X92100000Y-111548000D01*
X92100000Y-115448000D01*
X92099039Y-115457755D01*
X92096194Y-115467134D01*
X92091573Y-115475779D01*
X92085355Y-115483355D01*
X92077779Y-115489573D01*
X92069134Y-115494194D01*
X92059755Y-115497039D01*
X92050000Y-115498000D01*
X90650000Y-115498000D01*
X90640245Y-115497039D01*
X90630866Y-115494194D01*
X90622221Y-115489573D01*
X90614645Y-115483355D01*
X90608427Y-115475779D01*
X90603806Y-115467134D01*
X90600961Y-115457755D01*
X90600000Y-115448000D01*
X90600000Y-111548000D01*
X90600961Y-111538245D01*
X90603806Y-111528866D01*
X90608427Y-111520221D01*
X90614645Y-111512645D01*
X90622221Y-111506427D01*
X90630866Y-111501806D01*
X90640245Y-111498961D01*
X90650000Y-111498000D01*
X92050000Y-111498000D01*
X92059755Y-111498961D01*
G37*
G04 #@! TD.AperFunction*
G04 #@! TA.AperFunction,SMDPad,CuDef*
G36*
X79559755Y-111498961D02*
G01*
X79569134Y-111501806D01*
X79577779Y-111506427D01*
X79585355Y-111512645D01*
X79591573Y-111520221D01*
X79596194Y-111528866D01*
X79599039Y-111538245D01*
X79600000Y-111548000D01*
X79600000Y-115448000D01*
X79599039Y-115457755D01*
X79596194Y-115467134D01*
X79591573Y-115475779D01*
X79585355Y-115483355D01*
X79577779Y-115489573D01*
X79569134Y-115494194D01*
X79559755Y-115497039D01*
X79550000Y-115498000D01*
X78150000Y-115498000D01*
X78140245Y-115497039D01*
X78130866Y-115494194D01*
X78122221Y-115489573D01*
X78114645Y-115483355D01*
X78108427Y-115475779D01*
X78103806Y-115467134D01*
X78100961Y-115457755D01*
X78100000Y-115448000D01*
X78100000Y-111548000D01*
X78100961Y-111538245D01*
X78103806Y-111528866D01*
X78108427Y-111520221D01*
X78114645Y-111512645D01*
X78122221Y-111506427D01*
X78130866Y-111501806D01*
X78140245Y-111498961D01*
X78150000Y-111498000D01*
X79550000Y-111498000D01*
X79559755Y-111498961D01*
G37*
G04 #@! TD.AperFunction*
G04 #@! TA.AperFunction,SMDPad,CuDef*
G36*
X99559755Y-111498961D02*
G01*
X99569134Y-111501806D01*
X99577779Y-111506427D01*
X99585355Y-111512645D01*
X99591573Y-111520221D01*
X99596194Y-111528866D01*
X99599039Y-111538245D01*
X99600000Y-111548000D01*
X99600000Y-115448000D01*
X99599039Y-115457755D01*
X99596194Y-115467134D01*
X99591573Y-115475779D01*
X99585355Y-115483355D01*
X99577779Y-115489573D01*
X99569134Y-115494194D01*
X99559755Y-115497039D01*
X99550000Y-115498000D01*
X98150000Y-115498000D01*
X98140245Y-115497039D01*
X98130866Y-115494194D01*
X98122221Y-115489573D01*
X98114645Y-115483355D01*
X98108427Y-115475779D01*
X98103806Y-115467134D01*
X98100961Y-115457755D01*
X98100000Y-115448000D01*
X98100000Y-111548000D01*
X98100961Y-111538245D01*
X98103806Y-111528866D01*
X98108427Y-111520221D01*
X98114645Y-111512645D01*
X98122221Y-111506427D01*
X98130866Y-111501806D01*
X98140245Y-111498961D01*
X98150000Y-111498000D01*
X99550000Y-111498000D01*
X99559755Y-111498961D01*
G37*
G04 #@! TD.AperFunction*
G04 #@! TA.AperFunction,SMDPad,CuDef*
G36*
X119559755Y-111498961D02*
G01*
X119569134Y-111501806D01*
X119577779Y-111506427D01*
X119585355Y-111512645D01*
X119591573Y-111520221D01*
X119596194Y-111528866D01*
X119599039Y-111538245D01*
X119600000Y-111548000D01*
X119600000Y-115448000D01*
X119599039Y-115457755D01*
X119596194Y-115467134D01*
X119591573Y-115475779D01*
X119585355Y-115483355D01*
X119577779Y-115489573D01*
X119569134Y-115494194D01*
X119559755Y-115497039D01*
X119550000Y-115498000D01*
X118150000Y-115498000D01*
X118140245Y-115497039D01*
X118130866Y-115494194D01*
X118122221Y-115489573D01*
X118114645Y-115483355D01*
X118108427Y-115475779D01*
X118103806Y-115467134D01*
X118100961Y-115457755D01*
X118100000Y-115448000D01*
X118100000Y-111548000D01*
X118100961Y-111538245D01*
X118103806Y-111528866D01*
X118108427Y-111520221D01*
X118114645Y-111512645D01*
X118122221Y-111506427D01*
X118130866Y-111501806D01*
X118140245Y-111498961D01*
X118150000Y-111498000D01*
X119550000Y-111498000D01*
X119559755Y-111498961D01*
G37*
G04 #@! TD.AperFunction*
G04 #@! TA.AperFunction,SMDPad,CuDef*
G36*
X122059755Y-111498961D02*
G01*
X122069134Y-111501806D01*
X122077779Y-111506427D01*
X122085355Y-111512645D01*
X122091573Y-111520221D01*
X122096194Y-111528866D01*
X122099039Y-111538245D01*
X122100000Y-111548000D01*
X122100000Y-115448000D01*
X122099039Y-115457755D01*
X122096194Y-115467134D01*
X122091573Y-115475779D01*
X122085355Y-115483355D01*
X122077779Y-115489573D01*
X122069134Y-115494194D01*
X122059755Y-115497039D01*
X122050000Y-115498000D01*
X120650000Y-115498000D01*
X120640245Y-115497039D01*
X120630866Y-115494194D01*
X120622221Y-115489573D01*
X120614645Y-115483355D01*
X120608427Y-115475779D01*
X120603806Y-115467134D01*
X120600961Y-115457755D01*
X120600000Y-115448000D01*
X120600000Y-111548000D01*
X120600961Y-111538245D01*
X120603806Y-111528866D01*
X120608427Y-111520221D01*
X120614645Y-111512645D01*
X120622221Y-111506427D01*
X120630866Y-111501806D01*
X120640245Y-111498961D01*
X120650000Y-111498000D01*
X122050000Y-111498000D01*
X122059755Y-111498961D01*
G37*
G04 #@! TD.AperFunction*
G04 #@! TA.AperFunction,SMDPad,CuDef*
G36*
X94559755Y-111498961D02*
G01*
X94569134Y-111501806D01*
X94577779Y-111506427D01*
X94585355Y-111512645D01*
X94591573Y-111520221D01*
X94596194Y-111528866D01*
X94599039Y-111538245D01*
X94600000Y-111548000D01*
X94600000Y-115448000D01*
X94599039Y-115457755D01*
X94596194Y-115467134D01*
X94591573Y-115475779D01*
X94585355Y-115483355D01*
X94577779Y-115489573D01*
X94569134Y-115494194D01*
X94559755Y-115497039D01*
X94550000Y-115498000D01*
X93150000Y-115498000D01*
X93140245Y-115497039D01*
X93130866Y-115494194D01*
X93122221Y-115489573D01*
X93114645Y-115483355D01*
X93108427Y-115475779D01*
X93103806Y-115467134D01*
X93100961Y-115457755D01*
X93100000Y-115448000D01*
X93100000Y-111548000D01*
X93100961Y-111538245D01*
X93103806Y-111528866D01*
X93108427Y-111520221D01*
X93114645Y-111512645D01*
X93122221Y-111506427D01*
X93130866Y-111501806D01*
X93140245Y-111498961D01*
X93150000Y-111498000D01*
X94550000Y-111498000D01*
X94559755Y-111498961D01*
G37*
G04 #@! TD.AperFunction*
G04 #@! TA.AperFunction,SMDPad,CuDef*
G36*
X114559755Y-111498961D02*
G01*
X114569134Y-111501806D01*
X114577779Y-111506427D01*
X114585355Y-111512645D01*
X114591573Y-111520221D01*
X114596194Y-111528866D01*
X114599039Y-111538245D01*
X114600000Y-111548000D01*
X114600000Y-115448000D01*
X114599039Y-115457755D01*
X114596194Y-115467134D01*
X114591573Y-115475779D01*
X114585355Y-115483355D01*
X114577779Y-115489573D01*
X114569134Y-115494194D01*
X114559755Y-115497039D01*
X114550000Y-115498000D01*
X113150000Y-115498000D01*
X113140245Y-115497039D01*
X113130866Y-115494194D01*
X113122221Y-115489573D01*
X113114645Y-115483355D01*
X113108427Y-115475779D01*
X113103806Y-115467134D01*
X113100961Y-115457755D01*
X113100000Y-115448000D01*
X113100000Y-111548000D01*
X113100961Y-111538245D01*
X113103806Y-111528866D01*
X113108427Y-111520221D01*
X113114645Y-111512645D01*
X113122221Y-111506427D01*
X113130866Y-111501806D01*
X113140245Y-111498961D01*
X113150000Y-111498000D01*
X114550000Y-111498000D01*
X114559755Y-111498961D01*
G37*
G04 #@! TD.AperFunction*
G04 #@! TA.AperFunction,SMDPad,CuDef*
G36*
X117059755Y-111498961D02*
G01*
X117069134Y-111501806D01*
X117077779Y-111506427D01*
X117085355Y-111512645D01*
X117091573Y-111520221D01*
X117096194Y-111528866D01*
X117099039Y-111538245D01*
X117100000Y-111548000D01*
X117100000Y-115448000D01*
X117099039Y-115457755D01*
X117096194Y-115467134D01*
X117091573Y-115475779D01*
X117085355Y-115483355D01*
X117077779Y-115489573D01*
X117069134Y-115494194D01*
X117059755Y-115497039D01*
X117050000Y-115498000D01*
X115650000Y-115498000D01*
X115640245Y-115497039D01*
X115630866Y-115494194D01*
X115622221Y-115489573D01*
X115614645Y-115483355D01*
X115608427Y-115475779D01*
X115603806Y-115467134D01*
X115600961Y-115457755D01*
X115600000Y-115448000D01*
X115600000Y-111548000D01*
X115600961Y-111538245D01*
X115603806Y-111528866D01*
X115608427Y-111520221D01*
X115614645Y-111512645D01*
X115622221Y-111506427D01*
X115630866Y-111501806D01*
X115640245Y-111498961D01*
X115650000Y-111498000D01*
X117050000Y-111498000D01*
X117059755Y-111498961D01*
G37*
G04 #@! TD.AperFunction*
G04 #@! TA.AperFunction,SMDPad,CuDef*
G36*
X89559755Y-111498961D02*
G01*
X89569134Y-111501806D01*
X89577779Y-111506427D01*
X89585355Y-111512645D01*
X89591573Y-111520221D01*
X89596194Y-111528866D01*
X89599039Y-111538245D01*
X89600000Y-111548000D01*
X89600000Y-115448000D01*
X89599039Y-115457755D01*
X89596194Y-115467134D01*
X89591573Y-115475779D01*
X89585355Y-115483355D01*
X89577779Y-115489573D01*
X89569134Y-115494194D01*
X89559755Y-115497039D01*
X89550000Y-115498000D01*
X88150000Y-115498000D01*
X88140245Y-115497039D01*
X88130866Y-115494194D01*
X88122221Y-115489573D01*
X88114645Y-115483355D01*
X88108427Y-115475779D01*
X88103806Y-115467134D01*
X88100961Y-115457755D01*
X88100000Y-115448000D01*
X88100000Y-111548000D01*
X88100961Y-111538245D01*
X88103806Y-111528866D01*
X88108427Y-111520221D01*
X88114645Y-111512645D01*
X88122221Y-111506427D01*
X88130866Y-111501806D01*
X88140245Y-111498961D01*
X88150000Y-111498000D01*
X89550000Y-111498000D01*
X89559755Y-111498961D01*
G37*
G04 #@! TD.AperFunction*
G04 #@! TA.AperFunction,SMDPad,CuDef*
G36*
X124559755Y-111498961D02*
G01*
X124569134Y-111501806D01*
X124577779Y-111506427D01*
X124585355Y-111512645D01*
X124591573Y-111520221D01*
X124596194Y-111528866D01*
X124599039Y-111538245D01*
X124600000Y-111548000D01*
X124600000Y-115448000D01*
X124599039Y-115457755D01*
X124596194Y-115467134D01*
X124591573Y-115475779D01*
X124585355Y-115483355D01*
X124577779Y-115489573D01*
X124569134Y-115494194D01*
X124559755Y-115497039D01*
X124550000Y-115498000D01*
X123150000Y-115498000D01*
X123140245Y-115497039D01*
X123130866Y-115494194D01*
X123122221Y-115489573D01*
X123114645Y-115483355D01*
X123108427Y-115475779D01*
X123103806Y-115467134D01*
X123100961Y-115457755D01*
X123100000Y-115448000D01*
X123100000Y-111548000D01*
X123100961Y-111538245D01*
X123103806Y-111528866D01*
X123108427Y-111520221D01*
X123114645Y-111512645D01*
X123122221Y-111506427D01*
X123130866Y-111501806D01*
X123140245Y-111498961D01*
X123150000Y-111498000D01*
X124550000Y-111498000D01*
X124559755Y-111498961D01*
G37*
G04 #@! TD.AperFunction*
G04 #@! TA.AperFunction,SMDPad,CuDef*
G36*
X127059755Y-111498961D02*
G01*
X127069134Y-111501806D01*
X127077779Y-111506427D01*
X127085355Y-111512645D01*
X127091573Y-111520221D01*
X127096194Y-111528866D01*
X127099039Y-111538245D01*
X127100000Y-111548000D01*
X127100000Y-115448000D01*
X127099039Y-115457755D01*
X127096194Y-115467134D01*
X127091573Y-115475779D01*
X127085355Y-115483355D01*
X127077779Y-115489573D01*
X127069134Y-115494194D01*
X127059755Y-115497039D01*
X127050000Y-115498000D01*
X125650000Y-115498000D01*
X125640245Y-115497039D01*
X125630866Y-115494194D01*
X125622221Y-115489573D01*
X125614645Y-115483355D01*
X125608427Y-115475779D01*
X125603806Y-115467134D01*
X125600961Y-115457755D01*
X125600000Y-115448000D01*
X125600000Y-111548000D01*
X125600961Y-111538245D01*
X125603806Y-111528866D01*
X125608427Y-111520221D01*
X125614645Y-111512645D01*
X125622221Y-111506427D01*
X125630866Y-111501806D01*
X125640245Y-111498961D01*
X125650000Y-111498000D01*
X127050000Y-111498000D01*
X127059755Y-111498961D01*
G37*
G04 #@! TD.AperFunction*
G04 #@! TA.AperFunction,SMDPad,CuDef*
G36*
X109559755Y-111498961D02*
G01*
X109569134Y-111501806D01*
X109577779Y-111506427D01*
X109585355Y-111512645D01*
X109591573Y-111520221D01*
X109596194Y-111528866D01*
X109599039Y-111538245D01*
X109600000Y-111548000D01*
X109600000Y-115448000D01*
X109599039Y-115457755D01*
X109596194Y-115467134D01*
X109591573Y-115475779D01*
X109585355Y-115483355D01*
X109577779Y-115489573D01*
X109569134Y-115494194D01*
X109559755Y-115497039D01*
X109550000Y-115498000D01*
X108150000Y-115498000D01*
X108140245Y-115497039D01*
X108130866Y-115494194D01*
X108122221Y-115489573D01*
X108114645Y-115483355D01*
X108108427Y-115475779D01*
X108103806Y-115467134D01*
X108100961Y-115457755D01*
X108100000Y-115448000D01*
X108100000Y-111548000D01*
X108100961Y-111538245D01*
X108103806Y-111528866D01*
X108108427Y-111520221D01*
X108114645Y-111512645D01*
X108122221Y-111506427D01*
X108130866Y-111501806D01*
X108140245Y-111498961D01*
X108150000Y-111498000D01*
X109550000Y-111498000D01*
X109559755Y-111498961D01*
G37*
G04 #@! TD.AperFunction*
G04 #@! TA.AperFunction,SMDPad,CuDef*
G36*
X112059755Y-111498961D02*
G01*
X112069134Y-111501806D01*
X112077779Y-111506427D01*
X112085355Y-111512645D01*
X112091573Y-111520221D01*
X112096194Y-111528866D01*
X112099039Y-111538245D01*
X112100000Y-111548000D01*
X112100000Y-115448000D01*
X112099039Y-115457755D01*
X112096194Y-115467134D01*
X112091573Y-115475779D01*
X112085355Y-115483355D01*
X112077779Y-115489573D01*
X112069134Y-115494194D01*
X112059755Y-115497039D01*
X112050000Y-115498000D01*
X110650000Y-115498000D01*
X110640245Y-115497039D01*
X110630866Y-115494194D01*
X110622221Y-115489573D01*
X110614645Y-115483355D01*
X110608427Y-115475779D01*
X110603806Y-115467134D01*
X110600961Y-115457755D01*
X110600000Y-115448000D01*
X110600000Y-111548000D01*
X110600961Y-111538245D01*
X110603806Y-111528866D01*
X110608427Y-111520221D01*
X110614645Y-111512645D01*
X110622221Y-111506427D01*
X110630866Y-111501806D01*
X110640245Y-111498961D01*
X110650000Y-111498000D01*
X112050000Y-111498000D01*
X112059755Y-111498961D01*
G37*
G04 #@! TD.AperFunction*
G04 #@! TA.AperFunction,SMDPad,CuDef*
G36*
X87059755Y-111498961D02*
G01*
X87069134Y-111501806D01*
X87077779Y-111506427D01*
X87085355Y-111512645D01*
X87091573Y-111520221D01*
X87096194Y-111528866D01*
X87099039Y-111538245D01*
X87100000Y-111548000D01*
X87100000Y-115448000D01*
X87099039Y-115457755D01*
X87096194Y-115467134D01*
X87091573Y-115475779D01*
X87085355Y-115483355D01*
X87077779Y-115489573D01*
X87069134Y-115494194D01*
X87059755Y-115497039D01*
X87050000Y-115498000D01*
X85650000Y-115498000D01*
X85640245Y-115497039D01*
X85630866Y-115494194D01*
X85622221Y-115489573D01*
X85614645Y-115483355D01*
X85608427Y-115475779D01*
X85603806Y-115467134D01*
X85600961Y-115457755D01*
X85600000Y-115448000D01*
X85600000Y-111548000D01*
X85600961Y-111538245D01*
X85603806Y-111528866D01*
X85608427Y-111520221D01*
X85614645Y-111512645D01*
X85622221Y-111506427D01*
X85630866Y-111501806D01*
X85640245Y-111498961D01*
X85650000Y-111498000D01*
X87050000Y-111498000D01*
X87059755Y-111498961D01*
G37*
G04 #@! TD.AperFunction*
G04 #@! TA.AperFunction,SMDPad,CuDef*
G36*
X104559755Y-111498961D02*
G01*
X104569134Y-111501806D01*
X104577779Y-111506427D01*
X104585355Y-111512645D01*
X104591573Y-111520221D01*
X104596194Y-111528866D01*
X104599039Y-111538245D01*
X104600000Y-111548000D01*
X104600000Y-115448000D01*
X104599039Y-115457755D01*
X104596194Y-115467134D01*
X104591573Y-115475779D01*
X104585355Y-115483355D01*
X104577779Y-115489573D01*
X104569134Y-115494194D01*
X104559755Y-115497039D01*
X104550000Y-115498000D01*
X103150000Y-115498000D01*
X103140245Y-115497039D01*
X103130866Y-115494194D01*
X103122221Y-115489573D01*
X103114645Y-115483355D01*
X103108427Y-115475779D01*
X103103806Y-115467134D01*
X103100961Y-115457755D01*
X103100000Y-115448000D01*
X103100000Y-111548000D01*
X103100961Y-111538245D01*
X103103806Y-111528866D01*
X103108427Y-111520221D01*
X103114645Y-111512645D01*
X103122221Y-111506427D01*
X103130866Y-111501806D01*
X103140245Y-111498961D01*
X103150000Y-111498000D01*
X104550000Y-111498000D01*
X104559755Y-111498961D01*
G37*
G04 #@! TD.AperFunction*
G04 #@! TA.AperFunction,SMDPad,CuDef*
G36*
X107059755Y-111498961D02*
G01*
X107069134Y-111501806D01*
X107077779Y-111506427D01*
X107085355Y-111512645D01*
X107091573Y-111520221D01*
X107096194Y-111528866D01*
X107099039Y-111538245D01*
X107100000Y-111548000D01*
X107100000Y-115448000D01*
X107099039Y-115457755D01*
X107096194Y-115467134D01*
X107091573Y-115475779D01*
X107085355Y-115483355D01*
X107077779Y-115489573D01*
X107069134Y-115494194D01*
X107059755Y-115497039D01*
X107050000Y-115498000D01*
X105650000Y-115498000D01*
X105640245Y-115497039D01*
X105630866Y-115494194D01*
X105622221Y-115489573D01*
X105614645Y-115483355D01*
X105608427Y-115475779D01*
X105603806Y-115467134D01*
X105600961Y-115457755D01*
X105600000Y-115448000D01*
X105600000Y-111548000D01*
X105600961Y-111538245D01*
X105603806Y-111528866D01*
X105608427Y-111520221D01*
X105614645Y-111512645D01*
X105622221Y-111506427D01*
X105630866Y-111501806D01*
X105640245Y-111498961D01*
X105650000Y-111498000D01*
X107050000Y-111498000D01*
X107059755Y-111498961D01*
G37*
G04 #@! TD.AperFunction*
G04 #@! TA.AperFunction,SMDPad,CuDef*
G36*
X97059755Y-111498961D02*
G01*
X97069134Y-111501806D01*
X97077779Y-111506427D01*
X97085355Y-111512645D01*
X97091573Y-111520221D01*
X97096194Y-111528866D01*
X97099039Y-111538245D01*
X97100000Y-111548000D01*
X97100000Y-115448000D01*
X97099039Y-115457755D01*
X97096194Y-115467134D01*
X97091573Y-115475779D01*
X97085355Y-115483355D01*
X97077779Y-115489573D01*
X97069134Y-115494194D01*
X97059755Y-115497039D01*
X97050000Y-115498000D01*
X95650000Y-115498000D01*
X95640245Y-115497039D01*
X95630866Y-115494194D01*
X95622221Y-115489573D01*
X95614645Y-115483355D01*
X95608427Y-115475779D01*
X95603806Y-115467134D01*
X95600961Y-115457755D01*
X95600000Y-115448000D01*
X95600000Y-111548000D01*
X95600961Y-111538245D01*
X95603806Y-111528866D01*
X95608427Y-111520221D01*
X95614645Y-111512645D01*
X95622221Y-111506427D01*
X95630866Y-111501806D01*
X95640245Y-111498961D01*
X95650000Y-111498000D01*
X97050000Y-111498000D01*
X97059755Y-111498961D01*
G37*
G04 #@! TD.AperFunction*
G04 #@! TA.AperFunction,SMDPad,CuDef*
G36*
X129559755Y-111498961D02*
G01*
X129569134Y-111501806D01*
X129577779Y-111506427D01*
X129585355Y-111512645D01*
X129591573Y-111520221D01*
X129596194Y-111528866D01*
X129599039Y-111538245D01*
X129600000Y-111548000D01*
X129600000Y-115448000D01*
X129599039Y-115457755D01*
X129596194Y-115467134D01*
X129591573Y-115475779D01*
X129585355Y-115483355D01*
X129577779Y-115489573D01*
X129569134Y-115494194D01*
X129559755Y-115497039D01*
X129550000Y-115498000D01*
X128150000Y-115498000D01*
X128140245Y-115497039D01*
X128130866Y-115494194D01*
X128122221Y-115489573D01*
X128114645Y-115483355D01*
X128108427Y-115475779D01*
X128103806Y-115467134D01*
X128100961Y-115457755D01*
X128100000Y-115448000D01*
X128100000Y-111548000D01*
X128100961Y-111538245D01*
X128103806Y-111528866D01*
X128108427Y-111520221D01*
X128114645Y-111512645D01*
X128122221Y-111506427D01*
X128130866Y-111501806D01*
X128140245Y-111498961D01*
X128150000Y-111498000D01*
X129550000Y-111498000D01*
X129559755Y-111498961D01*
G37*
G04 #@! TD.AperFunction*
G04 #@! TA.AperFunction,SMDPad,CuDef*
G36*
X77059755Y-111498961D02*
G01*
X77069134Y-111501806D01*
X77077779Y-111506427D01*
X77085355Y-111512645D01*
X77091573Y-111520221D01*
X77096194Y-111528866D01*
X77099039Y-111538245D01*
X77100000Y-111548000D01*
X77100000Y-115448000D01*
X77099039Y-115457755D01*
X77096194Y-115467134D01*
X77091573Y-115475779D01*
X77085355Y-115483355D01*
X77077779Y-115489573D01*
X77069134Y-115494194D01*
X77059755Y-115497039D01*
X77050000Y-115498000D01*
X75650000Y-115498000D01*
X75640245Y-115497039D01*
X75630866Y-115494194D01*
X75622221Y-115489573D01*
X75614645Y-115483355D01*
X75608427Y-115475779D01*
X75603806Y-115467134D01*
X75600961Y-115457755D01*
X75600000Y-115448000D01*
X75600000Y-111548000D01*
X75600961Y-111538245D01*
X75603806Y-111528866D01*
X75608427Y-111520221D01*
X75614645Y-111512645D01*
X75622221Y-111506427D01*
X75630866Y-111501806D01*
X75640245Y-111498961D01*
X75650000Y-111498000D01*
X77050000Y-111498000D01*
X77059755Y-111498961D01*
G37*
G04 #@! TD.AperFunction*
G04 #@! TA.AperFunction,SMDPad,CuDef*
G36*
X102059755Y-111498961D02*
G01*
X102069134Y-111501806D01*
X102077779Y-111506427D01*
X102085355Y-111512645D01*
X102091573Y-111520221D01*
X102096194Y-111528866D01*
X102099039Y-111538245D01*
X102100000Y-111548000D01*
X102100000Y-115448000D01*
X102099039Y-115457755D01*
X102096194Y-115467134D01*
X102091573Y-115475779D01*
X102085355Y-115483355D01*
X102077779Y-115489573D01*
X102069134Y-115494194D01*
X102059755Y-115497039D01*
X102050000Y-115498000D01*
X100650000Y-115498000D01*
X100640245Y-115497039D01*
X100630866Y-115494194D01*
X100622221Y-115489573D01*
X100614645Y-115483355D01*
X100608427Y-115475779D01*
X100603806Y-115467134D01*
X100600961Y-115457755D01*
X100600000Y-115448000D01*
X100600000Y-111548000D01*
X100600961Y-111538245D01*
X100603806Y-111528866D01*
X100608427Y-111520221D01*
X100614645Y-111512645D01*
X100622221Y-111506427D01*
X100630866Y-111501806D01*
X100640245Y-111498961D01*
X100650000Y-111498000D01*
X102050000Y-111498000D01*
X102059755Y-111498961D01*
G37*
G04 #@! TD.AperFunction*
G04 #@! TA.AperFunction,SMDPad,CuDef*
G36*
X84559755Y-111498961D02*
G01*
X84569134Y-111501806D01*
X84577779Y-111506427D01*
X84585355Y-111512645D01*
X84591573Y-111520221D01*
X84596194Y-111528866D01*
X84599039Y-111538245D01*
X84600000Y-111548000D01*
X84600000Y-115448000D01*
X84599039Y-115457755D01*
X84596194Y-115467134D01*
X84591573Y-115475779D01*
X84585355Y-115483355D01*
X84577779Y-115489573D01*
X84569134Y-115494194D01*
X84559755Y-115497039D01*
X84550000Y-115498000D01*
X83150000Y-115498000D01*
X83140245Y-115497039D01*
X83130866Y-115494194D01*
X83122221Y-115489573D01*
X83114645Y-115483355D01*
X83108427Y-115475779D01*
X83103806Y-115467134D01*
X83100961Y-115457755D01*
X83100000Y-115448000D01*
X83100000Y-111548000D01*
X83100961Y-111538245D01*
X83103806Y-111528866D01*
X83108427Y-111520221D01*
X83114645Y-111512645D01*
X83122221Y-111506427D01*
X83130866Y-111501806D01*
X83140245Y-111498961D01*
X83150000Y-111498000D01*
X84550000Y-111498000D01*
X84559755Y-111498961D01*
G37*
G04 #@! TD.AperFunction*
G04 #@! TA.AperFunction,SMDPad,CuDef*
G36*
X82059755Y-111498961D02*
G01*
X82069134Y-111501806D01*
X82077779Y-111506427D01*
X82085355Y-111512645D01*
X82091573Y-111520221D01*
X82096194Y-111528866D01*
X82099039Y-111538245D01*
X82100000Y-111548000D01*
X82100000Y-115448000D01*
X82099039Y-115457755D01*
X82096194Y-115467134D01*
X82091573Y-115475779D01*
X82085355Y-115483355D01*
X82077779Y-115489573D01*
X82069134Y-115494194D01*
X82059755Y-115497039D01*
X82050000Y-115498000D01*
X80650000Y-115498000D01*
X80640245Y-115497039D01*
X80630866Y-115494194D01*
X80622221Y-115489573D01*
X80614645Y-115483355D01*
X80608427Y-115475779D01*
X80603806Y-115467134D01*
X80600961Y-115457755D01*
X80600000Y-115448000D01*
X80600000Y-111548000D01*
X80600961Y-111538245D01*
X80603806Y-111528866D01*
X80608427Y-111520221D01*
X80614645Y-111512645D01*
X80622221Y-111506427D01*
X80630866Y-111501806D01*
X80640245Y-111498961D01*
X80650000Y-111498000D01*
X82050000Y-111498000D01*
X82059755Y-111498961D01*
G37*
G04 #@! TD.AperFunction*
G04 #@! TA.AperFunction,SMDPad,CuDef*
G36*
X130809755Y-116600961D02*
G01*
X130819134Y-116603806D01*
X130827779Y-116608427D01*
X130835355Y-116614645D01*
X130841573Y-116622221D01*
X130846194Y-116630866D01*
X130849039Y-116640245D01*
X130850000Y-116650000D01*
X130850000Y-120550000D01*
X130849039Y-120559755D01*
X130846194Y-120569134D01*
X130841573Y-120577779D01*
X130835355Y-120585355D01*
X130827779Y-120591573D01*
X130819134Y-120596194D01*
X130809755Y-120599039D01*
X130800000Y-120600000D01*
X129400000Y-120600000D01*
X129390245Y-120599039D01*
X129380866Y-120596194D01*
X129372221Y-120591573D01*
X129364645Y-120585355D01*
X129358427Y-120577779D01*
X129353806Y-120569134D01*
X129350961Y-120559755D01*
X129350000Y-120550000D01*
X129350000Y-116650000D01*
X129350961Y-116640245D01*
X129353806Y-116630866D01*
X129358427Y-116622221D01*
X129364645Y-116614645D01*
X129372221Y-116608427D01*
X129380866Y-116603806D01*
X129390245Y-116600961D01*
X129400000Y-116600000D01*
X130800000Y-116600000D01*
X130809755Y-116600961D01*
G37*
G04 #@! TD.AperFunction*
G04 #@! TA.AperFunction,SMDPad,CuDef*
G36*
X123309755Y-116600961D02*
G01*
X123319134Y-116603806D01*
X123327779Y-116608427D01*
X123335355Y-116614645D01*
X123341573Y-116622221D01*
X123346194Y-116630866D01*
X123349039Y-116640245D01*
X123350000Y-116650000D01*
X123350000Y-120550000D01*
X123349039Y-120559755D01*
X123346194Y-120569134D01*
X123341573Y-120577779D01*
X123335355Y-120585355D01*
X123327779Y-120591573D01*
X123319134Y-120596194D01*
X123309755Y-120599039D01*
X123300000Y-120600000D01*
X121900000Y-120600000D01*
X121890245Y-120599039D01*
X121880866Y-120596194D01*
X121872221Y-120591573D01*
X121864645Y-120585355D01*
X121858427Y-120577779D01*
X121853806Y-120569134D01*
X121850961Y-120559755D01*
X121850000Y-120550000D01*
X121850000Y-116650000D01*
X121850961Y-116640245D01*
X121853806Y-116630866D01*
X121858427Y-116622221D01*
X121864645Y-116614645D01*
X121872221Y-116608427D01*
X121880866Y-116603806D01*
X121890245Y-116600961D01*
X121900000Y-116600000D01*
X123300000Y-116600000D01*
X123309755Y-116600961D01*
G37*
G04 #@! TD.AperFunction*
G04 #@! TA.AperFunction,SMDPad,CuDef*
G36*
X115809755Y-116600961D02*
G01*
X115819134Y-116603806D01*
X115827779Y-116608427D01*
X115835355Y-116614645D01*
X115841573Y-116622221D01*
X115846194Y-116630866D01*
X115849039Y-116640245D01*
X115850000Y-116650000D01*
X115850000Y-120550000D01*
X115849039Y-120559755D01*
X115846194Y-120569134D01*
X115841573Y-120577779D01*
X115835355Y-120585355D01*
X115827779Y-120591573D01*
X115819134Y-120596194D01*
X115809755Y-120599039D01*
X115800000Y-120600000D01*
X114400000Y-120600000D01*
X114390245Y-120599039D01*
X114380866Y-120596194D01*
X114372221Y-120591573D01*
X114364645Y-120585355D01*
X114358427Y-120577779D01*
X114353806Y-120569134D01*
X114350961Y-120559755D01*
X114350000Y-120550000D01*
X114350000Y-116650000D01*
X114350961Y-116640245D01*
X114353806Y-116630866D01*
X114358427Y-116622221D01*
X114364645Y-116614645D01*
X114372221Y-116608427D01*
X114380866Y-116603806D01*
X114390245Y-116600961D01*
X114400000Y-116600000D01*
X115800000Y-116600000D01*
X115809755Y-116600961D01*
G37*
G04 #@! TD.AperFunction*
G04 #@! TA.AperFunction,SMDPad,CuDef*
G36*
X118309755Y-116600961D02*
G01*
X118319134Y-116603806D01*
X118327779Y-116608427D01*
X118335355Y-116614645D01*
X118341573Y-116622221D01*
X118346194Y-116630866D01*
X118349039Y-116640245D01*
X118350000Y-116650000D01*
X118350000Y-120550000D01*
X118349039Y-120559755D01*
X118346194Y-120569134D01*
X118341573Y-120577779D01*
X118335355Y-120585355D01*
X118327779Y-120591573D01*
X118319134Y-120596194D01*
X118309755Y-120599039D01*
X118300000Y-120600000D01*
X116900000Y-120600000D01*
X116890245Y-120599039D01*
X116880866Y-120596194D01*
X116872221Y-120591573D01*
X116864645Y-120585355D01*
X116858427Y-120577779D01*
X116853806Y-120569134D01*
X116850961Y-120559755D01*
X116850000Y-120550000D01*
X116850000Y-116650000D01*
X116850961Y-116640245D01*
X116853806Y-116630866D01*
X116858427Y-116622221D01*
X116864645Y-116614645D01*
X116872221Y-116608427D01*
X116880866Y-116603806D01*
X116890245Y-116600961D01*
X116900000Y-116600000D01*
X118300000Y-116600000D01*
X118309755Y-116600961D01*
G37*
G04 #@! TD.AperFunction*
G04 #@! TA.AperFunction,SMDPad,CuDef*
G36*
X90809755Y-116600961D02*
G01*
X90819134Y-116603806D01*
X90827779Y-116608427D01*
X90835355Y-116614645D01*
X90841573Y-116622221D01*
X90846194Y-116630866D01*
X90849039Y-116640245D01*
X90850000Y-116650000D01*
X90850000Y-120550000D01*
X90849039Y-120559755D01*
X90846194Y-120569134D01*
X90841573Y-120577779D01*
X90835355Y-120585355D01*
X90827779Y-120591573D01*
X90819134Y-120596194D01*
X90809755Y-120599039D01*
X90800000Y-120600000D01*
X89400000Y-120600000D01*
X89390245Y-120599039D01*
X89380866Y-120596194D01*
X89372221Y-120591573D01*
X89364645Y-120585355D01*
X89358427Y-120577779D01*
X89353806Y-120569134D01*
X89350961Y-120559755D01*
X89350000Y-120550000D01*
X89350000Y-116650000D01*
X89350961Y-116640245D01*
X89353806Y-116630866D01*
X89358427Y-116622221D01*
X89364645Y-116614645D01*
X89372221Y-116608427D01*
X89380866Y-116603806D01*
X89390245Y-116600961D01*
X89400000Y-116600000D01*
X90800000Y-116600000D01*
X90809755Y-116600961D01*
G37*
G04 #@! TD.AperFunction*
G04 #@! TA.AperFunction,SMDPad,CuDef*
G36*
X128309755Y-116600961D02*
G01*
X128319134Y-116603806D01*
X128327779Y-116608427D01*
X128335355Y-116614645D01*
X128341573Y-116622221D01*
X128346194Y-116630866D01*
X128349039Y-116640245D01*
X128350000Y-116650000D01*
X128350000Y-120550000D01*
X128349039Y-120559755D01*
X128346194Y-120569134D01*
X128341573Y-120577779D01*
X128335355Y-120585355D01*
X128327779Y-120591573D01*
X128319134Y-120596194D01*
X128309755Y-120599039D01*
X128300000Y-120600000D01*
X126900000Y-120600000D01*
X126890245Y-120599039D01*
X126880866Y-120596194D01*
X126872221Y-120591573D01*
X126864645Y-120585355D01*
X126858427Y-120577779D01*
X126853806Y-120569134D01*
X126850961Y-120559755D01*
X126850000Y-120550000D01*
X126850000Y-116650000D01*
X126850961Y-116640245D01*
X126853806Y-116630866D01*
X126858427Y-116622221D01*
X126864645Y-116614645D01*
X126872221Y-116608427D01*
X126880866Y-116603806D01*
X126890245Y-116600961D01*
X126900000Y-116600000D01*
X128300000Y-116600000D01*
X128309755Y-116600961D01*
G37*
G04 #@! TD.AperFunction*
G04 #@! TA.AperFunction,SMDPad,CuDef*
G36*
X85809755Y-116600961D02*
G01*
X85819134Y-116603806D01*
X85827779Y-116608427D01*
X85835355Y-116614645D01*
X85841573Y-116622221D01*
X85846194Y-116630866D01*
X85849039Y-116640245D01*
X85850000Y-116650000D01*
X85850000Y-120550000D01*
X85849039Y-120559755D01*
X85846194Y-120569134D01*
X85841573Y-120577779D01*
X85835355Y-120585355D01*
X85827779Y-120591573D01*
X85819134Y-120596194D01*
X85809755Y-120599039D01*
X85800000Y-120600000D01*
X84400000Y-120600000D01*
X84390245Y-120599039D01*
X84380866Y-120596194D01*
X84372221Y-120591573D01*
X84364645Y-120585355D01*
X84358427Y-120577779D01*
X84353806Y-120569134D01*
X84350961Y-120559755D01*
X84350000Y-120550000D01*
X84350000Y-116650000D01*
X84350961Y-116640245D01*
X84353806Y-116630866D01*
X84358427Y-116622221D01*
X84364645Y-116614645D01*
X84372221Y-116608427D01*
X84380866Y-116603806D01*
X84390245Y-116600961D01*
X84400000Y-116600000D01*
X85800000Y-116600000D01*
X85809755Y-116600961D01*
G37*
G04 #@! TD.AperFunction*
G04 #@! TA.AperFunction,SMDPad,CuDef*
G36*
X95809755Y-116600961D02*
G01*
X95819134Y-116603806D01*
X95827779Y-116608427D01*
X95835355Y-116614645D01*
X95841573Y-116622221D01*
X95846194Y-116630866D01*
X95849039Y-116640245D01*
X95850000Y-116650000D01*
X95850000Y-120550000D01*
X95849039Y-120559755D01*
X95846194Y-120569134D01*
X95841573Y-120577779D01*
X95835355Y-120585355D01*
X95827779Y-120591573D01*
X95819134Y-120596194D01*
X95809755Y-120599039D01*
X95800000Y-120600000D01*
X94400000Y-120600000D01*
X94390245Y-120599039D01*
X94380866Y-120596194D01*
X94372221Y-120591573D01*
X94364645Y-120585355D01*
X94358427Y-120577779D01*
X94353806Y-120569134D01*
X94350961Y-120559755D01*
X94350000Y-120550000D01*
X94350000Y-116650000D01*
X94350961Y-116640245D01*
X94353806Y-116630866D01*
X94358427Y-116622221D01*
X94364645Y-116614645D01*
X94372221Y-116608427D01*
X94380866Y-116603806D01*
X94390245Y-116600961D01*
X94400000Y-116600000D01*
X95800000Y-116600000D01*
X95809755Y-116600961D01*
G37*
G04 #@! TD.AperFunction*
G04 #@! TA.AperFunction,SMDPad,CuDef*
G36*
X103309755Y-116600961D02*
G01*
X103319134Y-116603806D01*
X103327779Y-116608427D01*
X103335355Y-116614645D01*
X103341573Y-116622221D01*
X103346194Y-116630866D01*
X103349039Y-116640245D01*
X103350000Y-116650000D01*
X103350000Y-120550000D01*
X103349039Y-120559755D01*
X103346194Y-120569134D01*
X103341573Y-120577779D01*
X103335355Y-120585355D01*
X103327779Y-120591573D01*
X103319134Y-120596194D01*
X103309755Y-120599039D01*
X103300000Y-120600000D01*
X101900000Y-120600000D01*
X101890245Y-120599039D01*
X101880866Y-120596194D01*
X101872221Y-120591573D01*
X101864645Y-120585355D01*
X101858427Y-120577779D01*
X101853806Y-120569134D01*
X101850961Y-120559755D01*
X101850000Y-120550000D01*
X101850000Y-116650000D01*
X101850961Y-116640245D01*
X101853806Y-116630866D01*
X101858427Y-116622221D01*
X101864645Y-116614645D01*
X101872221Y-116608427D01*
X101880866Y-116603806D01*
X101890245Y-116600961D01*
X101900000Y-116600000D01*
X103300000Y-116600000D01*
X103309755Y-116600961D01*
G37*
G04 #@! TD.AperFunction*
G04 #@! TA.AperFunction,SMDPad,CuDef*
G36*
X113309755Y-116600961D02*
G01*
X113319134Y-116603806D01*
X113327779Y-116608427D01*
X113335355Y-116614645D01*
X113341573Y-116622221D01*
X113346194Y-116630866D01*
X113349039Y-116640245D01*
X113350000Y-116650000D01*
X113350000Y-120550000D01*
X113349039Y-120559755D01*
X113346194Y-120569134D01*
X113341573Y-120577779D01*
X113335355Y-120585355D01*
X113327779Y-120591573D01*
X113319134Y-120596194D01*
X113309755Y-120599039D01*
X113300000Y-120600000D01*
X111900000Y-120600000D01*
X111890245Y-120599039D01*
X111880866Y-120596194D01*
X111872221Y-120591573D01*
X111864645Y-120585355D01*
X111858427Y-120577779D01*
X111853806Y-120569134D01*
X111850961Y-120559755D01*
X111850000Y-120550000D01*
X111850000Y-116650000D01*
X111850961Y-116640245D01*
X111853806Y-116630866D01*
X111858427Y-116622221D01*
X111864645Y-116614645D01*
X111872221Y-116608427D01*
X111880866Y-116603806D01*
X111890245Y-116600961D01*
X111900000Y-116600000D01*
X113300000Y-116600000D01*
X113309755Y-116600961D01*
G37*
G04 #@! TD.AperFunction*
G04 #@! TA.AperFunction,SMDPad,CuDef*
G36*
X83309755Y-116600961D02*
G01*
X83319134Y-116603806D01*
X83327779Y-116608427D01*
X83335355Y-116614645D01*
X83341573Y-116622221D01*
X83346194Y-116630866D01*
X83349039Y-116640245D01*
X83350000Y-116650000D01*
X83350000Y-120550000D01*
X83349039Y-120559755D01*
X83346194Y-120569134D01*
X83341573Y-120577779D01*
X83335355Y-120585355D01*
X83327779Y-120591573D01*
X83319134Y-120596194D01*
X83309755Y-120599039D01*
X83300000Y-120600000D01*
X81900000Y-120600000D01*
X81890245Y-120599039D01*
X81880866Y-120596194D01*
X81872221Y-120591573D01*
X81864645Y-120585355D01*
X81858427Y-120577779D01*
X81853806Y-120569134D01*
X81850961Y-120559755D01*
X81850000Y-120550000D01*
X81850000Y-116650000D01*
X81850961Y-116640245D01*
X81853806Y-116630866D01*
X81858427Y-116622221D01*
X81864645Y-116614645D01*
X81872221Y-116608427D01*
X81880866Y-116603806D01*
X81890245Y-116600961D01*
X81900000Y-116600000D01*
X83300000Y-116600000D01*
X83309755Y-116600961D01*
G37*
G04 #@! TD.AperFunction*
G04 #@! TA.AperFunction,SMDPad,CuDef*
G36*
X125809755Y-116600961D02*
G01*
X125819134Y-116603806D01*
X125827779Y-116608427D01*
X125835355Y-116614645D01*
X125841573Y-116622221D01*
X125846194Y-116630866D01*
X125849039Y-116640245D01*
X125850000Y-116650000D01*
X125850000Y-120550000D01*
X125849039Y-120559755D01*
X125846194Y-120569134D01*
X125841573Y-120577779D01*
X125835355Y-120585355D01*
X125827779Y-120591573D01*
X125819134Y-120596194D01*
X125809755Y-120599039D01*
X125800000Y-120600000D01*
X124400000Y-120600000D01*
X124390245Y-120599039D01*
X124380866Y-120596194D01*
X124372221Y-120591573D01*
X124364645Y-120585355D01*
X124358427Y-120577779D01*
X124353806Y-120569134D01*
X124350961Y-120559755D01*
X124350000Y-120550000D01*
X124350000Y-116650000D01*
X124350961Y-116640245D01*
X124353806Y-116630866D01*
X124358427Y-116622221D01*
X124364645Y-116614645D01*
X124372221Y-116608427D01*
X124380866Y-116603806D01*
X124390245Y-116600961D01*
X124400000Y-116600000D01*
X125800000Y-116600000D01*
X125809755Y-116600961D01*
G37*
G04 #@! TD.AperFunction*
G04 #@! TA.AperFunction,SMDPad,CuDef*
G36*
X120809755Y-116600961D02*
G01*
X120819134Y-116603806D01*
X120827779Y-116608427D01*
X120835355Y-116614645D01*
X120841573Y-116622221D01*
X120846194Y-116630866D01*
X120849039Y-116640245D01*
X120850000Y-116650000D01*
X120850000Y-120550000D01*
X120849039Y-120559755D01*
X120846194Y-120569134D01*
X120841573Y-120577779D01*
X120835355Y-120585355D01*
X120827779Y-120591573D01*
X120819134Y-120596194D01*
X120809755Y-120599039D01*
X120800000Y-120600000D01*
X119400000Y-120600000D01*
X119390245Y-120599039D01*
X119380866Y-120596194D01*
X119372221Y-120591573D01*
X119364645Y-120585355D01*
X119358427Y-120577779D01*
X119353806Y-120569134D01*
X119350961Y-120559755D01*
X119350000Y-120550000D01*
X119350000Y-116650000D01*
X119350961Y-116640245D01*
X119353806Y-116630866D01*
X119358427Y-116622221D01*
X119364645Y-116614645D01*
X119372221Y-116608427D01*
X119380866Y-116603806D01*
X119390245Y-116600961D01*
X119400000Y-116600000D01*
X120800000Y-116600000D01*
X120809755Y-116600961D01*
G37*
G04 #@! TD.AperFunction*
G04 #@! TA.AperFunction,SMDPad,CuDef*
G36*
X80809755Y-116600961D02*
G01*
X80819134Y-116603806D01*
X80827779Y-116608427D01*
X80835355Y-116614645D01*
X80841573Y-116622221D01*
X80846194Y-116630866D01*
X80849039Y-116640245D01*
X80850000Y-116650000D01*
X80850000Y-120550000D01*
X80849039Y-120559755D01*
X80846194Y-120569134D01*
X80841573Y-120577779D01*
X80835355Y-120585355D01*
X80827779Y-120591573D01*
X80819134Y-120596194D01*
X80809755Y-120599039D01*
X80800000Y-120600000D01*
X79400000Y-120600000D01*
X79390245Y-120599039D01*
X79380866Y-120596194D01*
X79372221Y-120591573D01*
X79364645Y-120585355D01*
X79358427Y-120577779D01*
X79353806Y-120569134D01*
X79350961Y-120559755D01*
X79350000Y-120550000D01*
X79350000Y-116650000D01*
X79350961Y-116640245D01*
X79353806Y-116630866D01*
X79358427Y-116622221D01*
X79364645Y-116614645D01*
X79372221Y-116608427D01*
X79380866Y-116603806D01*
X79390245Y-116600961D01*
X79400000Y-116600000D01*
X80800000Y-116600000D01*
X80809755Y-116600961D01*
G37*
G04 #@! TD.AperFunction*
G04 #@! TA.AperFunction,SMDPad,CuDef*
G36*
X78309755Y-116600961D02*
G01*
X78319134Y-116603806D01*
X78327779Y-116608427D01*
X78335355Y-116614645D01*
X78341573Y-116622221D01*
X78346194Y-116630866D01*
X78349039Y-116640245D01*
X78350000Y-116650000D01*
X78350000Y-120550000D01*
X78349039Y-120559755D01*
X78346194Y-120569134D01*
X78341573Y-120577779D01*
X78335355Y-120585355D01*
X78327779Y-120591573D01*
X78319134Y-120596194D01*
X78309755Y-120599039D01*
X78300000Y-120600000D01*
X76900000Y-120600000D01*
X76890245Y-120599039D01*
X76880866Y-120596194D01*
X76872221Y-120591573D01*
X76864645Y-120585355D01*
X76858427Y-120577779D01*
X76853806Y-120569134D01*
X76850961Y-120559755D01*
X76850000Y-120550000D01*
X76850000Y-116650000D01*
X76850961Y-116640245D01*
X76853806Y-116630866D01*
X76858427Y-116622221D01*
X76864645Y-116614645D01*
X76872221Y-116608427D01*
X76880866Y-116603806D01*
X76890245Y-116600961D01*
X76900000Y-116600000D01*
X78300000Y-116600000D01*
X78309755Y-116600961D01*
G37*
G04 #@! TD.AperFunction*
G04 #@! TA.AperFunction,SMDPad,CuDef*
G36*
X75809755Y-116600961D02*
G01*
X75819134Y-116603806D01*
X75827779Y-116608427D01*
X75835355Y-116614645D01*
X75841573Y-116622221D01*
X75846194Y-116630866D01*
X75849039Y-116640245D01*
X75850000Y-116650000D01*
X75850000Y-120550000D01*
X75849039Y-120559755D01*
X75846194Y-120569134D01*
X75841573Y-120577779D01*
X75835355Y-120585355D01*
X75827779Y-120591573D01*
X75819134Y-120596194D01*
X75809755Y-120599039D01*
X75800000Y-120600000D01*
X74400000Y-120600000D01*
X74390245Y-120599039D01*
X74380866Y-120596194D01*
X74372221Y-120591573D01*
X74364645Y-120585355D01*
X74358427Y-120577779D01*
X74353806Y-120569134D01*
X74350961Y-120559755D01*
X74350000Y-120550000D01*
X74350000Y-116650000D01*
X74350961Y-116640245D01*
X74353806Y-116630866D01*
X74358427Y-116622221D01*
X74364645Y-116614645D01*
X74372221Y-116608427D01*
X74380866Y-116603806D01*
X74390245Y-116600961D01*
X74400000Y-116600000D01*
X75800000Y-116600000D01*
X75809755Y-116600961D01*
G37*
G04 #@! TD.AperFunction*
G04 #@! TA.AperFunction,SMDPad,CuDef*
G36*
X105809755Y-116600961D02*
G01*
X105819134Y-116603806D01*
X105827779Y-116608427D01*
X105835355Y-116614645D01*
X105841573Y-116622221D01*
X105846194Y-116630866D01*
X105849039Y-116640245D01*
X105850000Y-116650000D01*
X105850000Y-120550000D01*
X105849039Y-120559755D01*
X105846194Y-120569134D01*
X105841573Y-120577779D01*
X105835355Y-120585355D01*
X105827779Y-120591573D01*
X105819134Y-120596194D01*
X105809755Y-120599039D01*
X105800000Y-120600000D01*
X104400000Y-120600000D01*
X104390245Y-120599039D01*
X104380866Y-120596194D01*
X104372221Y-120591573D01*
X104364645Y-120585355D01*
X104358427Y-120577779D01*
X104353806Y-120569134D01*
X104350961Y-120559755D01*
X104350000Y-120550000D01*
X104350000Y-116650000D01*
X104350961Y-116640245D01*
X104353806Y-116630866D01*
X104358427Y-116622221D01*
X104364645Y-116614645D01*
X104372221Y-116608427D01*
X104380866Y-116603806D01*
X104390245Y-116600961D01*
X104400000Y-116600000D01*
X105800000Y-116600000D01*
X105809755Y-116600961D01*
G37*
G04 #@! TD.AperFunction*
G04 #@! TA.AperFunction,SMDPad,CuDef*
G36*
X98309755Y-116600961D02*
G01*
X98319134Y-116603806D01*
X98327779Y-116608427D01*
X98335355Y-116614645D01*
X98341573Y-116622221D01*
X98346194Y-116630866D01*
X98349039Y-116640245D01*
X98350000Y-116650000D01*
X98350000Y-120550000D01*
X98349039Y-120559755D01*
X98346194Y-120569134D01*
X98341573Y-120577779D01*
X98335355Y-120585355D01*
X98327779Y-120591573D01*
X98319134Y-120596194D01*
X98309755Y-120599039D01*
X98300000Y-120600000D01*
X96900000Y-120600000D01*
X96890245Y-120599039D01*
X96880866Y-120596194D01*
X96872221Y-120591573D01*
X96864645Y-120585355D01*
X96858427Y-120577779D01*
X96853806Y-120569134D01*
X96850961Y-120559755D01*
X96850000Y-120550000D01*
X96850000Y-116650000D01*
X96850961Y-116640245D01*
X96853806Y-116630866D01*
X96858427Y-116622221D01*
X96864645Y-116614645D01*
X96872221Y-116608427D01*
X96880866Y-116603806D01*
X96890245Y-116600961D01*
X96900000Y-116600000D01*
X98300000Y-116600000D01*
X98309755Y-116600961D01*
G37*
G04 #@! TD.AperFunction*
G04 #@! TA.AperFunction,SMDPad,CuDef*
G36*
X88309755Y-116600961D02*
G01*
X88319134Y-116603806D01*
X88327779Y-116608427D01*
X88335355Y-116614645D01*
X88341573Y-116622221D01*
X88346194Y-116630866D01*
X88349039Y-116640245D01*
X88350000Y-116650000D01*
X88350000Y-120550000D01*
X88349039Y-120559755D01*
X88346194Y-120569134D01*
X88341573Y-120577779D01*
X88335355Y-120585355D01*
X88327779Y-120591573D01*
X88319134Y-120596194D01*
X88309755Y-120599039D01*
X88300000Y-120600000D01*
X86900000Y-120600000D01*
X86890245Y-120599039D01*
X86880866Y-120596194D01*
X86872221Y-120591573D01*
X86864645Y-120585355D01*
X86858427Y-120577779D01*
X86853806Y-120569134D01*
X86850961Y-120559755D01*
X86850000Y-120550000D01*
X86850000Y-116650000D01*
X86850961Y-116640245D01*
X86853806Y-116630866D01*
X86858427Y-116622221D01*
X86864645Y-116614645D01*
X86872221Y-116608427D01*
X86880866Y-116603806D01*
X86890245Y-116600961D01*
X86900000Y-116600000D01*
X88300000Y-116600000D01*
X88309755Y-116600961D01*
G37*
G04 #@! TD.AperFunction*
G04 #@! TA.AperFunction,SMDPad,CuDef*
G36*
X108309755Y-116600961D02*
G01*
X108319134Y-116603806D01*
X108327779Y-116608427D01*
X108335355Y-116614645D01*
X108341573Y-116622221D01*
X108346194Y-116630866D01*
X108349039Y-116640245D01*
X108350000Y-116650000D01*
X108350000Y-120550000D01*
X108349039Y-120559755D01*
X108346194Y-120569134D01*
X108341573Y-120577779D01*
X108335355Y-120585355D01*
X108327779Y-120591573D01*
X108319134Y-120596194D01*
X108309755Y-120599039D01*
X108300000Y-120600000D01*
X106900000Y-120600000D01*
X106890245Y-120599039D01*
X106880866Y-120596194D01*
X106872221Y-120591573D01*
X106864645Y-120585355D01*
X106858427Y-120577779D01*
X106853806Y-120569134D01*
X106850961Y-120559755D01*
X106850000Y-120550000D01*
X106850000Y-116650000D01*
X106850961Y-116640245D01*
X106853806Y-116630866D01*
X106858427Y-116622221D01*
X106864645Y-116614645D01*
X106872221Y-116608427D01*
X106880866Y-116603806D01*
X106890245Y-116600961D01*
X106900000Y-116600000D01*
X108300000Y-116600000D01*
X108309755Y-116600961D01*
G37*
G04 #@! TD.AperFunction*
G04 #@! TA.AperFunction,SMDPad,CuDef*
G36*
X110809755Y-116600961D02*
G01*
X110819134Y-116603806D01*
X110827779Y-116608427D01*
X110835355Y-116614645D01*
X110841573Y-116622221D01*
X110846194Y-116630866D01*
X110849039Y-116640245D01*
X110850000Y-116650000D01*
X110850000Y-120550000D01*
X110849039Y-120559755D01*
X110846194Y-120569134D01*
X110841573Y-120577779D01*
X110835355Y-120585355D01*
X110827779Y-120591573D01*
X110819134Y-120596194D01*
X110809755Y-120599039D01*
X110800000Y-120600000D01*
X109400000Y-120600000D01*
X109390245Y-120599039D01*
X109380866Y-120596194D01*
X109372221Y-120591573D01*
X109364645Y-120585355D01*
X109358427Y-120577779D01*
X109353806Y-120569134D01*
X109350961Y-120559755D01*
X109350000Y-120550000D01*
X109350000Y-116650000D01*
X109350961Y-116640245D01*
X109353806Y-116630866D01*
X109358427Y-116622221D01*
X109364645Y-116614645D01*
X109372221Y-116608427D01*
X109380866Y-116603806D01*
X109390245Y-116600961D01*
X109400000Y-116600000D01*
X110800000Y-116600000D01*
X110809755Y-116600961D01*
G37*
G04 #@! TD.AperFunction*
G04 #@! TA.AperFunction,SMDPad,CuDef*
G36*
X100809755Y-116600961D02*
G01*
X100819134Y-116603806D01*
X100827779Y-116608427D01*
X100835355Y-116614645D01*
X100841573Y-116622221D01*
X100846194Y-116630866D01*
X100849039Y-116640245D01*
X100850000Y-116650000D01*
X100850000Y-120550000D01*
X100849039Y-120559755D01*
X100846194Y-120569134D01*
X100841573Y-120577779D01*
X100835355Y-120585355D01*
X100827779Y-120591573D01*
X100819134Y-120596194D01*
X100809755Y-120599039D01*
X100800000Y-120600000D01*
X99400000Y-120600000D01*
X99390245Y-120599039D01*
X99380866Y-120596194D01*
X99372221Y-120591573D01*
X99364645Y-120585355D01*
X99358427Y-120577779D01*
X99353806Y-120569134D01*
X99350961Y-120559755D01*
X99350000Y-120550000D01*
X99350000Y-116650000D01*
X99350961Y-116640245D01*
X99353806Y-116630866D01*
X99358427Y-116622221D01*
X99364645Y-116614645D01*
X99372221Y-116608427D01*
X99380866Y-116603806D01*
X99390245Y-116600961D01*
X99400000Y-116600000D01*
X100800000Y-116600000D01*
X100809755Y-116600961D01*
G37*
G04 #@! TD.AperFunction*
G04 #@! TA.AperFunction,SMDPad,CuDef*
G36*
X93309755Y-116600961D02*
G01*
X93319134Y-116603806D01*
X93327779Y-116608427D01*
X93335355Y-116614645D01*
X93341573Y-116622221D01*
X93346194Y-116630866D01*
X93349039Y-116640245D01*
X93350000Y-116650000D01*
X93350000Y-120550000D01*
X93349039Y-120559755D01*
X93346194Y-120569134D01*
X93341573Y-120577779D01*
X93335355Y-120585355D01*
X93327779Y-120591573D01*
X93319134Y-120596194D01*
X93309755Y-120599039D01*
X93300000Y-120600000D01*
X91900000Y-120600000D01*
X91890245Y-120599039D01*
X91880866Y-120596194D01*
X91872221Y-120591573D01*
X91864645Y-120585355D01*
X91858427Y-120577779D01*
X91853806Y-120569134D01*
X91850961Y-120559755D01*
X91850000Y-120550000D01*
X91850000Y-116650000D01*
X91850961Y-116640245D01*
X91853806Y-116630866D01*
X91858427Y-116622221D01*
X91864645Y-116614645D01*
X91872221Y-116608427D01*
X91880866Y-116603806D01*
X91890245Y-116600961D01*
X91900000Y-116600000D01*
X93300000Y-116600000D01*
X93309755Y-116600961D01*
G37*
G04 #@! TD.AperFunction*
D11*
X129210000Y-45600000D03*
X126670000Y-45600000D03*
X124130000Y-45600000D03*
X121590000Y-45600000D03*
X119050000Y-45600000D03*
X116510000Y-45600000D03*
X113970000Y-45600000D03*
X111430000Y-45600000D03*
X108890000Y-45600000D03*
X106350000Y-45600000D03*
X103810000Y-45600000D03*
X101270000Y-45600000D03*
X98730000Y-45600000D03*
X96190000Y-45600000D03*
X93650000Y-45600000D03*
X91110000Y-45600000D03*
X88570000Y-45600000D03*
X86030000Y-45600000D03*
X83490000Y-45600000D03*
X80950000Y-45600000D03*
X78410000Y-45600000D03*
X75870000Y-45600000D03*
X130480000Y-48850000D03*
X127940000Y-48850000D03*
X125400000Y-48850000D03*
X122860000Y-48850000D03*
X120320000Y-48850000D03*
X117780000Y-48850000D03*
X115240000Y-48850000D03*
X112700000Y-48850000D03*
X110160000Y-48850000D03*
X107620000Y-48850000D03*
X105080000Y-48850000D03*
X102540000Y-48850000D03*
X100000000Y-48850000D03*
X97460000Y-48850000D03*
X94920000Y-48850000D03*
X92380000Y-48850000D03*
X89840000Y-48850000D03*
X87300000Y-48850000D03*
X84760000Y-48850000D03*
X82220000Y-48850000D03*
X79680000Y-48850000D03*
X77140000Y-48850000D03*
X74600000Y-48850000D03*
D12*
X76300000Y-109700000D03*
X98800000Y-110100000D03*
X100100000Y-110100000D03*
X101300000Y-110100000D03*
X102600000Y-110100000D03*
X103800000Y-110100000D03*
D13*
X75115000Y-49365000D02*
X74600000Y-48850000D01*
X75115000Y-117325000D02*
X75115000Y-49365000D01*
X76350000Y-109750000D02*
X76300000Y-109700000D01*
X76350000Y-112208000D02*
X76350000Y-109750000D01*
X77953125Y-49663125D02*
X77140000Y-48850000D01*
X77953125Y-111214529D02*
X77953125Y-49663125D01*
X77615000Y-111552654D02*
X77953125Y-111214529D01*
X77615000Y-117325000D02*
X77615000Y-111552654D01*
X78410000Y-49188762D02*
X78410000Y-45600000D01*
X78850000Y-49628762D02*
X78410000Y-49188762D01*
X78850000Y-112208000D02*
X78850000Y-49628762D01*
X80115000Y-49285000D02*
X79680000Y-48850000D01*
X80115000Y-117325000D02*
X80115000Y-49285000D01*
X81132999Y-45782999D02*
X80950000Y-45600000D01*
X81132999Y-111990999D02*
X81132999Y-45782999D01*
X81350000Y-112208000D02*
X81132999Y-111990999D01*
X82615000Y-49245000D02*
X82220000Y-48850000D01*
X82615000Y-117325000D02*
X82615000Y-49245000D01*
X83672999Y-45782999D02*
X83490000Y-45600000D01*
X83672999Y-112030999D02*
X83672999Y-45782999D01*
X83850000Y-112208000D02*
X83672999Y-112030999D01*
X85115000Y-49205000D02*
X84760000Y-48850000D01*
X85115000Y-117325000D02*
X85115000Y-49205000D01*
X86212999Y-45782999D02*
X86030000Y-45600000D01*
X86212999Y-112070999D02*
X86212999Y-45782999D01*
X86350000Y-112208000D02*
X86212999Y-112070999D01*
X87615000Y-49165000D02*
X87300000Y-48850000D01*
X87615000Y-117325000D02*
X87615000Y-49165000D01*
X88752999Y-45782999D02*
X88570000Y-45600000D01*
X88752999Y-112110999D02*
X88752999Y-45782999D01*
X88850000Y-112208000D02*
X88752999Y-112110999D01*
X90115000Y-49125000D02*
X89840000Y-48850000D01*
X90115000Y-117325000D02*
X90115000Y-49125000D01*
X91292999Y-45782999D02*
X91110000Y-45600000D01*
X91292999Y-112150999D02*
X91292999Y-45782999D01*
X91350000Y-112208000D02*
X91292999Y-112150999D01*
X92562999Y-49032999D02*
X92380000Y-48850000D01*
X92562999Y-117272999D02*
X92562999Y-49032999D01*
X92615000Y-117325000D02*
X92562999Y-117272999D01*
X93832999Y-45782999D02*
X93650000Y-45600000D01*
X93832999Y-112190999D02*
X93832999Y-45782999D01*
X93850000Y-112208000D02*
X93832999Y-112190999D01*
X95115000Y-49045000D02*
X94920000Y-48850000D01*
X95115000Y-117325000D02*
X95115000Y-49045000D01*
X96350000Y-45760000D02*
X96190000Y-45600000D01*
X96350000Y-112208000D02*
X96350000Y-45760000D01*
X97246854Y-49063146D02*
X97460000Y-48850000D01*
X97246854Y-102830784D02*
X97246854Y-49063146D01*
X97615000Y-103198930D02*
X97246854Y-102830784D01*
X97615000Y-117325000D02*
X97615000Y-103198930D01*
X98850000Y-110150000D02*
X98800000Y-110100000D01*
X98850000Y-112208000D02*
X98850000Y-110150000D01*
X100115000Y-110115000D02*
X100100000Y-110100000D01*
X100115000Y-117325000D02*
X100115000Y-110115000D01*
X101350000Y-110150000D02*
X101300000Y-110100000D01*
X101350000Y-112208000D02*
X101350000Y-110150000D01*
X102615000Y-110115000D02*
X102600000Y-110100000D01*
X102615000Y-117325000D02*
X102615000Y-110115000D01*
X119232999Y-111825001D02*
X119232999Y-45782999D01*
X119232999Y-45782999D02*
X119050000Y-45600000D01*
X118850000Y-112208000D02*
X119232999Y-111825001D01*
X121772999Y-45782999D02*
X121590000Y-45600000D01*
X121772999Y-111785001D02*
X121772999Y-45782999D01*
X121350000Y-112208000D02*
X121772999Y-111785001D01*
X113850000Y-45720000D02*
X113970000Y-45600000D01*
X113850000Y-112208000D02*
X113850000Y-45720000D01*
X116350000Y-45760000D02*
X116510000Y-45600000D01*
X116350000Y-112208000D02*
X116350000Y-45760000D01*
X123947001Y-45782999D02*
X124130000Y-45600000D01*
X123947001Y-112110999D02*
X123947001Y-45782999D01*
X123850000Y-112208000D02*
X123947001Y-112110999D01*
X126487001Y-45782999D02*
X126670000Y-45600000D01*
X126487001Y-112070999D02*
X126487001Y-45782999D01*
X126350000Y-112208000D02*
X126487001Y-112070999D01*
X108890000Y-49188762D02*
X108890000Y-45600000D01*
X109559103Y-49857865D02*
X108890000Y-49188762D01*
X109559103Y-111498897D02*
X109559103Y-49857865D01*
X108850000Y-112208000D02*
X109559103Y-111498897D01*
X111350000Y-45680000D02*
X111430000Y-45600000D01*
X111350000Y-112208000D02*
X111350000Y-45680000D01*
X103850000Y-110150000D02*
X103800000Y-110100000D01*
X103850000Y-112208000D02*
X103850000Y-110150000D01*
X106350000Y-49483590D02*
X106350000Y-45600000D01*
X108403154Y-51536744D02*
X106350000Y-49483590D01*
X108403155Y-103653374D02*
X108403154Y-51536744D01*
X106350000Y-105706529D02*
X108403155Y-103653374D01*
X106350000Y-112208000D02*
X106350000Y-105706529D01*
X129210000Y-49188762D02*
X129210000Y-45600000D01*
X129953125Y-49931887D02*
X129210000Y-49188762D01*
X129953125Y-111104875D02*
X129953125Y-49931887D01*
X128850000Y-112208000D02*
X129953125Y-111104875D01*
X130829862Y-49199862D02*
X130480000Y-48850000D01*
X130829862Y-116610138D02*
X130829862Y-49199862D01*
X130115000Y-117325000D02*
X130829862Y-116610138D01*
X122615000Y-49095000D02*
X122860000Y-48850000D01*
X122615000Y-117325000D02*
X122615000Y-49095000D01*
X115115000Y-48975000D02*
X115240000Y-48850000D01*
X115115000Y-117325000D02*
X115115000Y-48975000D01*
X117615000Y-49015000D02*
X117780000Y-48850000D01*
X117615000Y-117325000D02*
X117615000Y-49015000D01*
X127246874Y-92815944D02*
X127246874Y-49543126D01*
X127615000Y-93184070D02*
X127246874Y-92815944D01*
X127246874Y-49543126D02*
X127940000Y-48850000D01*
X127615000Y-117325000D02*
X127615000Y-93184070D01*
X112615000Y-48935000D02*
X112700000Y-48850000D01*
X112615000Y-117325000D02*
X112615000Y-48935000D01*
X125115000Y-49135000D02*
X125400000Y-48850000D01*
X125115000Y-117325000D02*
X125115000Y-49135000D01*
X120115000Y-49055000D02*
X120320000Y-48850000D01*
X120115000Y-117325000D02*
X120115000Y-49055000D01*
X107953145Y-51723145D02*
X105080000Y-48850000D01*
X107953145Y-103466974D02*
X107953145Y-51723145D01*
X105115000Y-106305119D02*
X107953145Y-103466974D01*
X105115000Y-117325000D02*
X105115000Y-106305119D01*
X108853164Y-50083164D02*
X107620000Y-48850000D01*
X108853164Y-103839773D02*
X108853164Y-50083164D01*
X107615000Y-105077939D02*
X108853164Y-103839773D01*
X107615000Y-117325000D02*
X107615000Y-105077939D01*
X110115000Y-48895000D02*
X110160000Y-48850000D01*
X110115000Y-117325000D02*
X110115000Y-48895000D01*
D14*
X131817000Y-120517000D02*
X131611668Y-120517000D01*
X131611668Y-117020637D01*
X131649594Y-116949682D01*
X131700085Y-116783236D01*
X131712862Y-116653511D01*
X131712862Y-116653510D01*
X131717134Y-116610138D01*
X131712862Y-116566765D01*
X131712862Y-49740820D01*
X131817001Y-49584965D01*
X131817000Y-120517000D01*
G04 #@! TA.AperFunction,NonConductor*
D15*
G36*
X131817000Y-120517000D02*
G01*
X131611668Y-120517000D01*
X131611668Y-117020637D01*
X131649594Y-116949682D01*
X131700085Y-116783236D01*
X131712862Y-116653511D01*
X131712862Y-116653510D01*
X131717134Y-116610138D01*
X131712862Y-116566765D01*
X131712862Y-49740820D01*
X131817001Y-49584965D01*
X131817000Y-120517000D01*
G37*
G04 #@! TD.AperFunction*
D14*
X73419339Y-49818944D02*
X73631056Y-50030661D01*
X73880010Y-50197007D01*
X74156632Y-50311588D01*
X74232001Y-50326580D01*
X74232000Y-115859586D01*
X74169151Y-115872088D01*
X74159772Y-115874933D01*
X74021809Y-115932080D01*
X74013164Y-115936701D01*
X73888999Y-116019670D01*
X73881423Y-116025888D01*
X73775888Y-116131423D01*
X73769670Y-116138999D01*
X73686701Y-116263164D01*
X73682080Y-116271809D01*
X73624933Y-116409772D01*
X73622088Y-116419151D01*
X73592962Y-116565572D01*
X73592001Y-116575327D01*
X73588332Y-116650000D01*
X73588332Y-120517000D01*
X73383000Y-120517000D01*
X73383000Y-49764559D01*
X73419339Y-49818944D01*
G04 #@! TA.AperFunction,NonConductor*
D15*
G36*
X73419339Y-49818944D02*
G01*
X73631056Y-50030661D01*
X73880010Y-50197007D01*
X74156632Y-50311588D01*
X74232001Y-50326580D01*
X74232000Y-115859586D01*
X74169151Y-115872088D01*
X74159772Y-115874933D01*
X74021809Y-115932080D01*
X74013164Y-115936701D01*
X73888999Y-116019670D01*
X73881423Y-116025888D01*
X73775888Y-116131423D01*
X73769670Y-116138999D01*
X73686701Y-116263164D01*
X73682080Y-116271809D01*
X73624933Y-116409772D01*
X73622088Y-116419151D01*
X73592962Y-116565572D01*
X73592001Y-116575327D01*
X73588332Y-116650000D01*
X73588332Y-120517000D01*
X73383000Y-120517000D01*
X73383000Y-49764559D01*
X73419339Y-49818944D01*
G37*
G04 #@! TD.AperFunction*
D14*
X108676103Y-110736332D02*
X108498000Y-110736332D01*
X108498000Y-105443689D01*
X108676103Y-105265586D01*
X108676103Y-110736332D01*
G04 #@! TA.AperFunction,NonConductor*
D15*
G36*
X108676103Y-110736332D02*
G01*
X108498000Y-110736332D01*
X108498000Y-105443689D01*
X108676103Y-105265586D01*
X108676103Y-110736332D01*
G37*
G04 #@! TD.AperFunction*
D14*
X129070125Y-110736332D02*
X128498000Y-110736332D01*
X128498000Y-94044318D01*
X128776725Y-94044318D01*
X129070125Y-93985957D01*
X129070125Y-110736332D01*
G04 #@! TA.AperFunction,NonConductor*
D15*
G36*
X129070125Y-110736332D02*
G01*
X128498000Y-110736332D01*
X128498000Y-94044318D01*
X128776725Y-94044318D01*
X129070125Y-93985957D01*
X129070125Y-110736332D01*
G37*
G04 #@! TD.AperFunction*
D14*
X98981889Y-105786968D02*
X99850140Y-106360096D01*
X100806774Y-106768981D01*
X101821044Y-107000481D01*
X102860351Y-107047157D01*
X103891289Y-106907507D01*
X104232001Y-106796803D01*
X104232001Y-109025530D01*
X104137776Y-108986501D01*
X103914053Y-108942000D01*
X103685947Y-108942000D01*
X103462224Y-108986501D01*
X103251481Y-109073794D01*
X103200000Y-109108193D01*
X103148519Y-109073794D01*
X102937776Y-108986501D01*
X102714053Y-108942000D01*
X102485947Y-108942000D01*
X102262224Y-108986501D01*
X102051481Y-109073794D01*
X101950000Y-109141602D01*
X101848519Y-109073794D01*
X101637776Y-108986501D01*
X101414053Y-108942000D01*
X101185947Y-108942000D01*
X100962224Y-108986501D01*
X100751481Y-109073794D01*
X100700000Y-109108193D01*
X100648519Y-109073794D01*
X100437776Y-108986501D01*
X100214053Y-108942000D01*
X99985947Y-108942000D01*
X99762224Y-108986501D01*
X99551481Y-109073794D01*
X99450000Y-109141602D01*
X99348519Y-109073794D01*
X99137776Y-108986501D01*
X98914053Y-108942000D01*
X98685947Y-108942000D01*
X98498000Y-108979385D01*
X98498000Y-105324323D01*
X98981889Y-105786968D01*
G04 #@! TA.AperFunction,NonConductor*
D15*
G36*
X98981889Y-105786968D02*
G01*
X99850140Y-106360096D01*
X100806774Y-106768981D01*
X101821044Y-107000481D01*
X102860351Y-107047157D01*
X103891289Y-106907507D01*
X104232001Y-106796803D01*
X104232001Y-109025530D01*
X104137776Y-108986501D01*
X103914053Y-108942000D01*
X103685947Y-108942000D01*
X103462224Y-108986501D01*
X103251481Y-109073794D01*
X103200000Y-109108193D01*
X103148519Y-109073794D01*
X102937776Y-108986501D01*
X102714053Y-108942000D01*
X102485947Y-108942000D01*
X102262224Y-108986501D01*
X102051481Y-109073794D01*
X101950000Y-109141602D01*
X101848519Y-109073794D01*
X101637776Y-108986501D01*
X101414053Y-108942000D01*
X101185947Y-108942000D01*
X100962224Y-108986501D01*
X100751481Y-109073794D01*
X100700000Y-109108193D01*
X100648519Y-109073794D01*
X100437776Y-108986501D01*
X100214053Y-108942000D01*
X99985947Y-108942000D01*
X99762224Y-108986501D01*
X99551481Y-109073794D01*
X99450000Y-109141602D01*
X99348519Y-109073794D01*
X99137776Y-108986501D01*
X98914053Y-108942000D01*
X98685947Y-108942000D01*
X98498000Y-108979385D01*
X98498000Y-105324323D01*
X98981889Y-105786968D01*
G37*
G04 #@! TD.AperFunction*
D14*
X76076617Y-93975363D02*
X76423275Y-94044318D01*
X76776725Y-94044318D01*
X77070125Y-93985957D01*
X77070125Y-108832466D01*
X77038182Y-108800523D01*
X76848519Y-108673794D01*
X76637776Y-108586501D01*
X76414053Y-108542000D01*
X76185947Y-108542000D01*
X75998000Y-108579385D01*
X75998000Y-93942799D01*
X76076617Y-93975363D01*
G04 #@! TA.AperFunction,NonConductor*
D15*
G36*
X76076617Y-93975363D02*
G01*
X76423275Y-94044318D01*
X76776725Y-94044318D01*
X77070125Y-93985957D01*
X77070125Y-108832466D01*
X77038182Y-108800523D01*
X76848519Y-108673794D01*
X76637776Y-108586501D01*
X76414053Y-108542000D01*
X76185947Y-108542000D01*
X75998000Y-108579385D01*
X75998000Y-93942799D01*
X76076617Y-93975363D01*
G37*
G04 #@! TD.AperFunction*
D14*
X103899339Y-49818944D02*
X104111056Y-50030661D01*
X104360010Y-50197007D01*
X104636632Y-50311588D01*
X104930293Y-50370000D01*
X105229707Y-50370000D01*
X105331086Y-50349835D01*
X107070146Y-52088896D01*
X107070145Y-97582028D01*
X106610237Y-97055621D01*
X105796855Y-96406971D01*
X104880724Y-95913980D01*
X103891289Y-95592493D01*
X102860351Y-95452843D01*
X101821044Y-95499519D01*
X100806774Y-95731019D01*
X99850140Y-96139904D01*
X98981889Y-96713032D01*
X98229926Y-97431982D01*
X98129854Y-97569719D01*
X98129854Y-50217774D01*
X98179990Y-50197007D01*
X98428944Y-50030661D01*
X98640661Y-49818944D01*
X98730000Y-49685239D01*
X98819339Y-49818944D01*
X99031056Y-50030661D01*
X99280010Y-50197007D01*
X99556632Y-50311588D01*
X99850293Y-50370000D01*
X100149707Y-50370000D01*
X100443368Y-50311588D01*
X100719990Y-50197007D01*
X100968944Y-50030661D01*
X101180661Y-49818944D01*
X101270000Y-49685239D01*
X101359339Y-49818944D01*
X101571056Y-50030661D01*
X101820010Y-50197007D01*
X102096632Y-50311588D01*
X102390293Y-50370000D01*
X102689707Y-50370000D01*
X102983368Y-50311588D01*
X103259990Y-50197007D01*
X103508944Y-50030661D01*
X103720661Y-49818944D01*
X103810000Y-49685239D01*
X103899339Y-49818944D01*
G04 #@! TA.AperFunction,NonConductor*
D15*
G36*
X103899339Y-49818944D02*
G01*
X104111056Y-50030661D01*
X104360010Y-50197007D01*
X104636632Y-50311588D01*
X104930293Y-50370000D01*
X105229707Y-50370000D01*
X105331086Y-50349835D01*
X107070146Y-52088896D01*
X107070145Y-97582028D01*
X106610237Y-97055621D01*
X105796855Y-96406971D01*
X104880724Y-95913980D01*
X103891289Y-95592493D01*
X102860351Y-95452843D01*
X101821044Y-95499519D01*
X100806774Y-95731019D01*
X99850140Y-96139904D01*
X98981889Y-96713032D01*
X98229926Y-97431982D01*
X98129854Y-97569719D01*
X98129854Y-50217774D01*
X98179990Y-50197007D01*
X98428944Y-50030661D01*
X98640661Y-49818944D01*
X98730000Y-49685239D01*
X98819339Y-49818944D01*
X99031056Y-50030661D01*
X99280010Y-50197007D01*
X99556632Y-50311588D01*
X99850293Y-50370000D01*
X100149707Y-50370000D01*
X100443368Y-50311588D01*
X100719990Y-50197007D01*
X100968944Y-50030661D01*
X101180661Y-49818944D01*
X101270000Y-49685239D01*
X101359339Y-49818944D01*
X101571056Y-50030661D01*
X101820010Y-50197007D01*
X102096632Y-50311588D01*
X102390293Y-50370000D01*
X102689707Y-50370000D01*
X102983368Y-50311588D01*
X103259990Y-50197007D01*
X103508944Y-50030661D01*
X103720661Y-49818944D01*
X103810000Y-49685239D01*
X103899339Y-49818944D01*
G37*
G04 #@! TD.AperFunction*
D14*
X76171056Y-50030661D02*
X76420010Y-50197007D01*
X76696632Y-50311588D01*
X76990293Y-50370000D01*
X77070126Y-50370000D01*
X77070125Y-90514043D01*
X76776725Y-90455682D01*
X76423275Y-90455682D01*
X76076617Y-90524637D01*
X75998000Y-90557201D01*
X75998000Y-49857605D01*
X76171056Y-50030661D01*
G04 #@! TA.AperFunction,NonConductor*
D15*
G36*
X76171056Y-50030661D02*
G01*
X76420010Y-50197007D01*
X76696632Y-50311588D01*
X76990293Y-50370000D01*
X77070126Y-50370000D01*
X77070125Y-90514043D01*
X76776725Y-90455682D01*
X76423275Y-90455682D01*
X76076617Y-90524637D01*
X75998000Y-90557201D01*
X75998000Y-49857605D01*
X76171056Y-50030661D01*
G37*
G04 #@! TD.AperFunction*
D14*
X129070126Y-50297638D02*
X129070125Y-90514043D01*
X128776725Y-90455682D01*
X128423275Y-90455682D01*
X128129874Y-90514043D01*
X128129874Y-50362010D01*
X128383368Y-50311588D01*
X128659990Y-50197007D01*
X128845525Y-50073036D01*
X129070126Y-50297638D01*
G04 #@! TA.AperFunction,NonConductor*
D15*
G36*
X129070126Y-50297638D02*
G01*
X129070125Y-90514043D01*
X128776725Y-90455682D01*
X128423275Y-90455682D01*
X128129874Y-90514043D01*
X128129874Y-50362010D01*
X128383368Y-50311588D01*
X128659990Y-50197007D01*
X128845525Y-50073036D01*
X129070126Y-50297638D01*
G37*
G04 #@! TD.AperFunction*
D14*
X131817001Y-48115035D02*
X131660661Y-47881056D01*
X131448944Y-47669339D01*
X131199990Y-47502993D01*
X130923368Y-47388412D01*
X130629707Y-47330000D01*
X130330293Y-47330000D01*
X130093000Y-47377200D01*
X130093000Y-46838087D01*
X130178944Y-46780661D01*
X130390661Y-46568944D01*
X130557007Y-46319990D01*
X130671588Y-46043368D01*
X130730000Y-45749707D01*
X130730000Y-45450293D01*
X130671588Y-45156632D01*
X130557007Y-44880010D01*
X130390661Y-44631056D01*
X130178944Y-44419339D01*
X129929990Y-44252993D01*
X129653368Y-44138412D01*
X129374789Y-44083000D01*
X131817001Y-44083000D01*
X131817001Y-48115035D01*
G04 #@! TA.AperFunction,NonConductor*
D15*
G36*
X131817001Y-48115035D02*
G01*
X131660661Y-47881056D01*
X131448944Y-47669339D01*
X131199990Y-47502993D01*
X130923368Y-47388412D01*
X130629707Y-47330000D01*
X130330293Y-47330000D01*
X130093000Y-47377200D01*
X130093000Y-46838087D01*
X130178944Y-46780661D01*
X130390661Y-46568944D01*
X130557007Y-46319990D01*
X130671588Y-46043368D01*
X130730000Y-45749707D01*
X130730000Y-45450293D01*
X130671588Y-45156632D01*
X130557007Y-44880010D01*
X130390661Y-44631056D01*
X130178944Y-44419339D01*
X129929990Y-44252993D01*
X129653368Y-44138412D01*
X129374789Y-44083000D01*
X131817001Y-44083000D01*
X131817001Y-48115035D01*
G37*
G04 #@! TD.AperFunction*
D14*
X75426632Y-44138412D02*
X75150010Y-44252993D01*
X74901056Y-44419339D01*
X74689339Y-44631056D01*
X74522993Y-44880010D01*
X74408412Y-45156632D01*
X74350000Y-45450293D01*
X74350000Y-45749707D01*
X74408412Y-46043368D01*
X74522993Y-46319990D01*
X74689339Y-46568944D01*
X74901056Y-46780661D01*
X75150010Y-46947007D01*
X75426632Y-47061588D01*
X75720293Y-47120000D01*
X76019707Y-47120000D01*
X76313368Y-47061588D01*
X76589990Y-46947007D01*
X76838944Y-46780661D01*
X77050661Y-46568944D01*
X77140000Y-46435239D01*
X77229339Y-46568944D01*
X77441056Y-46780661D01*
X77527001Y-46838087D01*
X77527001Y-47377200D01*
X77289707Y-47330000D01*
X76990293Y-47330000D01*
X76696632Y-47388412D01*
X76420010Y-47502993D01*
X76171056Y-47669339D01*
X75959339Y-47881056D01*
X75870000Y-48014761D01*
X75780661Y-47881056D01*
X75568944Y-47669339D01*
X75319990Y-47502993D01*
X75043368Y-47388412D01*
X74749707Y-47330000D01*
X74450293Y-47330000D01*
X74156632Y-47388412D01*
X73880010Y-47502993D01*
X73631056Y-47669339D01*
X73419339Y-47881056D01*
X73383000Y-47935441D01*
X73383000Y-44083000D01*
X75705211Y-44083000D01*
X75426632Y-44138412D01*
G04 #@! TA.AperFunction,NonConductor*
D15*
G36*
X75426632Y-44138412D02*
G01*
X75150010Y-44252993D01*
X74901056Y-44419339D01*
X74689339Y-44631056D01*
X74522993Y-44880010D01*
X74408412Y-45156632D01*
X74350000Y-45450293D01*
X74350000Y-45749707D01*
X74408412Y-46043368D01*
X74522993Y-46319990D01*
X74689339Y-46568944D01*
X74901056Y-46780661D01*
X75150010Y-46947007D01*
X75426632Y-47061588D01*
X75720293Y-47120000D01*
X76019707Y-47120000D01*
X76313368Y-47061588D01*
X76589990Y-46947007D01*
X76838944Y-46780661D01*
X77050661Y-46568944D01*
X77140000Y-46435239D01*
X77229339Y-46568944D01*
X77441056Y-46780661D01*
X77527001Y-46838087D01*
X77527001Y-47377200D01*
X77289707Y-47330000D01*
X76990293Y-47330000D01*
X76696632Y-47388412D01*
X76420010Y-47502993D01*
X76171056Y-47669339D01*
X75959339Y-47881056D01*
X75870000Y-48014761D01*
X75780661Y-47881056D01*
X75568944Y-47669339D01*
X75319990Y-47502993D01*
X75043368Y-47388412D01*
X74749707Y-47330000D01*
X74450293Y-47330000D01*
X74156632Y-47388412D01*
X73880010Y-47502993D01*
X73631056Y-47669339D01*
X73419339Y-47881056D01*
X73383000Y-47935441D01*
X73383000Y-44083000D01*
X75705211Y-44083000D01*
X75426632Y-44138412D01*
G37*
G04 #@! TD.AperFunction*
D14*
X105169339Y-46568944D02*
X105381056Y-46780661D01*
X105467001Y-46838087D01*
X105467001Y-47377200D01*
X105229707Y-47330000D01*
X104930293Y-47330000D01*
X104636632Y-47388412D01*
X104360010Y-47502993D01*
X104111056Y-47669339D01*
X103899339Y-47881056D01*
X103810000Y-48014761D01*
X103720661Y-47881056D01*
X103508944Y-47669339D01*
X103259990Y-47502993D01*
X102983368Y-47388412D01*
X102689707Y-47330000D01*
X102390293Y-47330000D01*
X102096632Y-47388412D01*
X101820010Y-47502993D01*
X101571056Y-47669339D01*
X101359339Y-47881056D01*
X101270000Y-48014761D01*
X101180661Y-47881056D01*
X100968944Y-47669339D01*
X100719990Y-47502993D01*
X100443368Y-47388412D01*
X100149707Y-47330000D01*
X99850293Y-47330000D01*
X99556632Y-47388412D01*
X99280010Y-47502993D01*
X99031056Y-47669339D01*
X98819339Y-47881056D01*
X98730000Y-48014761D01*
X98640661Y-47881056D01*
X98428944Y-47669339D01*
X98179990Y-47502993D01*
X97903368Y-47388412D01*
X97609707Y-47330000D01*
X97310293Y-47330000D01*
X97233000Y-47345374D01*
X97233000Y-46706605D01*
X97370661Y-46568944D01*
X97460000Y-46435239D01*
X97549339Y-46568944D01*
X97761056Y-46780661D01*
X98010010Y-46947007D01*
X98286632Y-47061588D01*
X98580293Y-47120000D01*
X98879707Y-47120000D01*
X99173368Y-47061588D01*
X99449990Y-46947007D01*
X99698944Y-46780661D01*
X99910661Y-46568944D01*
X100000000Y-46435239D01*
X100089339Y-46568944D01*
X100301056Y-46780661D01*
X100550010Y-46947007D01*
X100826632Y-47061588D01*
X101120293Y-47120000D01*
X101419707Y-47120000D01*
X101713368Y-47061588D01*
X101989990Y-46947007D01*
X102238944Y-46780661D01*
X102450661Y-46568944D01*
X102540000Y-46435239D01*
X102629339Y-46568944D01*
X102841056Y-46780661D01*
X103090010Y-46947007D01*
X103366632Y-47061588D01*
X103660293Y-47120000D01*
X103959707Y-47120000D01*
X104253368Y-47061588D01*
X104529990Y-46947007D01*
X104778944Y-46780661D01*
X104990661Y-46568944D01*
X105080000Y-46435239D01*
X105169339Y-46568944D01*
G04 #@! TA.AperFunction,NonConductor*
D15*
G36*
X105169339Y-46568944D02*
G01*
X105381056Y-46780661D01*
X105467001Y-46838087D01*
X105467001Y-47377200D01*
X105229707Y-47330000D01*
X104930293Y-47330000D01*
X104636632Y-47388412D01*
X104360010Y-47502993D01*
X104111056Y-47669339D01*
X103899339Y-47881056D01*
X103810000Y-48014761D01*
X103720661Y-47881056D01*
X103508944Y-47669339D01*
X103259990Y-47502993D01*
X102983368Y-47388412D01*
X102689707Y-47330000D01*
X102390293Y-47330000D01*
X102096632Y-47388412D01*
X101820010Y-47502993D01*
X101571056Y-47669339D01*
X101359339Y-47881056D01*
X101270000Y-48014761D01*
X101180661Y-47881056D01*
X100968944Y-47669339D01*
X100719990Y-47502993D01*
X100443368Y-47388412D01*
X100149707Y-47330000D01*
X99850293Y-47330000D01*
X99556632Y-47388412D01*
X99280010Y-47502993D01*
X99031056Y-47669339D01*
X98819339Y-47881056D01*
X98730000Y-48014761D01*
X98640661Y-47881056D01*
X98428944Y-47669339D01*
X98179990Y-47502993D01*
X97903368Y-47388412D01*
X97609707Y-47330000D01*
X97310293Y-47330000D01*
X97233000Y-47345374D01*
X97233000Y-46706605D01*
X97370661Y-46568944D01*
X97460000Y-46435239D01*
X97549339Y-46568944D01*
X97761056Y-46780661D01*
X98010010Y-46947007D01*
X98286632Y-47061588D01*
X98580293Y-47120000D01*
X98879707Y-47120000D01*
X99173368Y-47061588D01*
X99449990Y-46947007D01*
X99698944Y-46780661D01*
X99910661Y-46568944D01*
X100000000Y-46435239D01*
X100089339Y-46568944D01*
X100301056Y-46780661D01*
X100550010Y-46947007D01*
X100826632Y-47061588D01*
X101120293Y-47120000D01*
X101419707Y-47120000D01*
X101713368Y-47061588D01*
X101989990Y-46947007D01*
X102238944Y-46780661D01*
X102450661Y-46568944D01*
X102540000Y-46435239D01*
X102629339Y-46568944D01*
X102841056Y-46780661D01*
X103090010Y-46947007D01*
X103366632Y-47061588D01*
X103660293Y-47120000D01*
X103959707Y-47120000D01*
X104253368Y-47061588D01*
X104529990Y-46947007D01*
X104778944Y-46780661D01*
X104990661Y-46568944D01*
X105080000Y-46435239D01*
X105169339Y-46568944D01*
G37*
G04 #@! TD.AperFunction*
D14*
X79769339Y-46568944D02*
X79981056Y-46780661D01*
X80230010Y-46947007D01*
X80250000Y-46955287D01*
X80250000Y-47440865D01*
X80123368Y-47388412D01*
X79829707Y-47330000D01*
X79530293Y-47330000D01*
X79293000Y-47377200D01*
X79293000Y-46838087D01*
X79378944Y-46780661D01*
X79590661Y-46568944D01*
X79680000Y-46435239D01*
X79769339Y-46568944D01*
G04 #@! TA.AperFunction,NonConductor*
D15*
G36*
X79769339Y-46568944D02*
G01*
X79981056Y-46780661D01*
X80230010Y-46947007D01*
X80250000Y-46955287D01*
X80250000Y-47440865D01*
X80123368Y-47388412D01*
X79829707Y-47330000D01*
X79530293Y-47330000D01*
X79293000Y-47377200D01*
X79293000Y-46838087D01*
X79378944Y-46780661D01*
X79590661Y-46568944D01*
X79680000Y-46435239D01*
X79769339Y-46568944D01*
G37*
G04 #@! TD.AperFunction*
D14*
X92469339Y-46568944D02*
X92681056Y-46780661D01*
X92930010Y-46947007D01*
X92950000Y-46955287D01*
X92950000Y-47440865D01*
X92823368Y-47388412D01*
X92529707Y-47330000D01*
X92230293Y-47330000D01*
X92175999Y-47340800D01*
X92175999Y-46683606D01*
X92290661Y-46568944D01*
X92380000Y-46435239D01*
X92469339Y-46568944D01*
G04 #@! TA.AperFunction,NonConductor*
D15*
G36*
X92469339Y-46568944D02*
G01*
X92681056Y-46780661D01*
X92930010Y-46947007D01*
X92950000Y-46955287D01*
X92950000Y-47440865D01*
X92823368Y-47388412D01*
X92529707Y-47330000D01*
X92230293Y-47330000D01*
X92175999Y-47340800D01*
X92175999Y-46683606D01*
X92290661Y-46568944D01*
X92380000Y-46435239D01*
X92469339Y-46568944D01*
G37*
G04 #@! TD.AperFunction*
D14*
X87389339Y-46568944D02*
X87601056Y-46780661D01*
X87850010Y-46947007D01*
X87870000Y-46955287D01*
X87870000Y-47440865D01*
X87743368Y-47388412D01*
X87449707Y-47330000D01*
X87150293Y-47330000D01*
X87095999Y-47340800D01*
X87095999Y-46683606D01*
X87210661Y-46568944D01*
X87300000Y-46435239D01*
X87389339Y-46568944D01*
G04 #@! TA.AperFunction,NonConductor*
D15*
G36*
X87389339Y-46568944D02*
G01*
X87601056Y-46780661D01*
X87850010Y-46947007D01*
X87870000Y-46955287D01*
X87870000Y-47440865D01*
X87743368Y-47388412D01*
X87449707Y-47330000D01*
X87150293Y-47330000D01*
X87095999Y-47340800D01*
X87095999Y-46683606D01*
X87210661Y-46568944D01*
X87300000Y-46435239D01*
X87389339Y-46568944D01*
G37*
G04 #@! TD.AperFunction*
D14*
X117869339Y-46568944D02*
X118081056Y-46780661D01*
X118330010Y-46947007D01*
X118350000Y-46955287D01*
X118350000Y-47440865D01*
X118223368Y-47388412D01*
X117929707Y-47330000D01*
X117630293Y-47330000D01*
X117336632Y-47388412D01*
X117233000Y-47431338D01*
X117233000Y-46944996D01*
X117478944Y-46780661D01*
X117690661Y-46568944D01*
X117780000Y-46435239D01*
X117869339Y-46568944D01*
G04 #@! TA.AperFunction,NonConductor*
D15*
G36*
X117869339Y-46568944D02*
G01*
X118081056Y-46780661D01*
X118330010Y-46947007D01*
X118350000Y-46955287D01*
X118350000Y-47440865D01*
X118223368Y-47388412D01*
X117929707Y-47330000D01*
X117630293Y-47330000D01*
X117336632Y-47388412D01*
X117233000Y-47431338D01*
X117233000Y-46944996D01*
X117478944Y-46780661D01*
X117690661Y-46568944D01*
X117780000Y-46435239D01*
X117869339Y-46568944D01*
G37*
G04 #@! TD.AperFunction*
D14*
X120409339Y-46568944D02*
X120621056Y-46780661D01*
X120870010Y-46947007D01*
X120890000Y-46955287D01*
X120890000Y-47440865D01*
X120763368Y-47388412D01*
X120469707Y-47330000D01*
X120170293Y-47330000D01*
X120115999Y-47340800D01*
X120115999Y-46683606D01*
X120230661Y-46568944D01*
X120320000Y-46435239D01*
X120409339Y-46568944D01*
G04 #@! TA.AperFunction,NonConductor*
D15*
G36*
X120409339Y-46568944D02*
G01*
X120621056Y-46780661D01*
X120870010Y-46947007D01*
X120890000Y-46955287D01*
X120890000Y-47440865D01*
X120763368Y-47388412D01*
X120469707Y-47330000D01*
X120170293Y-47330000D01*
X120115999Y-47340800D01*
X120115999Y-46683606D01*
X120230661Y-46568944D01*
X120320000Y-46435239D01*
X120409339Y-46568944D01*
G37*
G04 #@! TD.AperFunction*
D14*
X82309339Y-46568944D02*
X82521056Y-46780661D01*
X82770010Y-46947007D01*
X82790000Y-46955287D01*
X82790000Y-47440865D01*
X82663368Y-47388412D01*
X82369707Y-47330000D01*
X82070293Y-47330000D01*
X82015999Y-47340800D01*
X82015999Y-46683606D01*
X82130661Y-46568944D01*
X82220000Y-46435239D01*
X82309339Y-46568944D01*
G04 #@! TA.AperFunction,NonConductor*
D15*
G36*
X82309339Y-46568944D02*
G01*
X82521056Y-46780661D01*
X82770010Y-46947007D01*
X82790000Y-46955287D01*
X82790000Y-47440865D01*
X82663368Y-47388412D01*
X82369707Y-47330000D01*
X82070293Y-47330000D01*
X82015999Y-47340800D01*
X82015999Y-46683606D01*
X82130661Y-46568944D01*
X82220000Y-46435239D01*
X82309339Y-46568944D01*
G37*
G04 #@! TD.AperFunction*
D14*
X84849339Y-46568944D02*
X85061056Y-46780661D01*
X85310010Y-46947007D01*
X85330000Y-46955287D01*
X85330000Y-47440865D01*
X85203368Y-47388412D01*
X84909707Y-47330000D01*
X84610293Y-47330000D01*
X84555999Y-47340800D01*
X84555999Y-46683606D01*
X84670661Y-46568944D01*
X84760000Y-46435239D01*
X84849339Y-46568944D01*
G04 #@! TA.AperFunction,NonConductor*
D15*
G36*
X84849339Y-46568944D02*
G01*
X85061056Y-46780661D01*
X85310010Y-46947007D01*
X85330000Y-46955287D01*
X85330000Y-47440865D01*
X85203368Y-47388412D01*
X84909707Y-47330000D01*
X84610293Y-47330000D01*
X84555999Y-47340800D01*
X84555999Y-46683606D01*
X84670661Y-46568944D01*
X84760000Y-46435239D01*
X84849339Y-46568944D01*
G37*
G04 #@! TD.AperFunction*
D14*
X89929339Y-46568944D02*
X90141056Y-46780661D01*
X90390010Y-46947007D01*
X90410000Y-46955287D01*
X90410000Y-47440865D01*
X90283368Y-47388412D01*
X89989707Y-47330000D01*
X89690293Y-47330000D01*
X89635999Y-47340800D01*
X89635999Y-46683606D01*
X89750661Y-46568944D01*
X89840000Y-46435239D01*
X89929339Y-46568944D01*
G04 #@! TA.AperFunction,NonConductor*
D15*
G36*
X89929339Y-46568944D02*
G01*
X90141056Y-46780661D01*
X90390010Y-46947007D01*
X90410000Y-46955287D01*
X90410000Y-47440865D01*
X90283368Y-47388412D01*
X89989707Y-47330000D01*
X89690293Y-47330000D01*
X89635999Y-47340800D01*
X89635999Y-46683606D01*
X89750661Y-46568944D01*
X89840000Y-46435239D01*
X89929339Y-46568944D01*
G37*
G04 #@! TD.AperFunction*
D14*
X128029339Y-46568944D02*
X128241056Y-46780661D01*
X128327001Y-46838087D01*
X128327001Y-47377200D01*
X128089707Y-47330000D01*
X127790293Y-47330000D01*
X127496632Y-47388412D01*
X127370001Y-47440864D01*
X127370001Y-46955287D01*
X127389990Y-46947007D01*
X127638944Y-46780661D01*
X127850661Y-46568944D01*
X127940000Y-46435239D01*
X128029339Y-46568944D01*
G04 #@! TA.AperFunction,NonConductor*
D15*
G36*
X128029339Y-46568944D02*
G01*
X128241056Y-46780661D01*
X128327001Y-46838087D01*
X128327001Y-47377200D01*
X128089707Y-47330000D01*
X127790293Y-47330000D01*
X127496632Y-47388412D01*
X127370001Y-47440864D01*
X127370001Y-46955287D01*
X127389990Y-46947007D01*
X127638944Y-46780661D01*
X127850661Y-46568944D01*
X127940000Y-46435239D01*
X128029339Y-46568944D01*
G37*
G04 #@! TD.AperFunction*
D14*
X125489339Y-46568944D02*
X125604002Y-46683607D01*
X125604002Y-47340800D01*
X125549707Y-47330000D01*
X125250293Y-47330000D01*
X124956632Y-47388412D01*
X124830001Y-47440864D01*
X124830001Y-46955287D01*
X124849990Y-46947007D01*
X125098944Y-46780661D01*
X125310661Y-46568944D01*
X125400000Y-46435239D01*
X125489339Y-46568944D01*
G04 #@! TA.AperFunction,NonConductor*
D15*
G36*
X125489339Y-46568944D02*
G01*
X125604002Y-46683607D01*
X125604002Y-47340800D01*
X125549707Y-47330000D01*
X125250293Y-47330000D01*
X124956632Y-47388412D01*
X124830001Y-47440864D01*
X124830001Y-46955287D01*
X124849990Y-46947007D01*
X125098944Y-46780661D01*
X125310661Y-46568944D01*
X125400000Y-46435239D01*
X125489339Y-46568944D01*
G37*
G04 #@! TD.AperFunction*
D14*
X95009339Y-46568944D02*
X95221056Y-46780661D01*
X95467001Y-46944996D01*
X95467001Y-47431338D01*
X95363368Y-47388412D01*
X95069707Y-47330000D01*
X94770293Y-47330000D01*
X94715999Y-47340800D01*
X94715999Y-46683606D01*
X94830661Y-46568944D01*
X94920000Y-46435239D01*
X95009339Y-46568944D01*
G04 #@! TA.AperFunction,NonConductor*
D15*
G36*
X95009339Y-46568944D02*
G01*
X95221056Y-46780661D01*
X95467001Y-46944996D01*
X95467001Y-47431338D01*
X95363368Y-47388412D01*
X95069707Y-47330000D01*
X94770293Y-47330000D01*
X94715999Y-47340800D01*
X94715999Y-46683606D01*
X94830661Y-46568944D01*
X94920000Y-46435239D01*
X95009339Y-46568944D01*
G37*
G04 #@! TD.AperFunction*
D14*
X115329339Y-46568944D02*
X115467001Y-46706606D01*
X115467001Y-47345375D01*
X115389707Y-47330000D01*
X115090293Y-47330000D01*
X114796632Y-47388412D01*
X114733000Y-47414769D01*
X114733000Y-46918269D01*
X114938944Y-46780661D01*
X115150661Y-46568944D01*
X115240000Y-46435239D01*
X115329339Y-46568944D01*
G04 #@! TA.AperFunction,NonConductor*
D15*
G36*
X115329339Y-46568944D02*
G01*
X115467001Y-46706606D01*
X115467001Y-47345375D01*
X115389707Y-47330000D01*
X115090293Y-47330000D01*
X114796632Y-47388412D01*
X114733000Y-47414769D01*
X114733000Y-46918269D01*
X114938944Y-46780661D01*
X115150661Y-46568944D01*
X115240000Y-46435239D01*
X115329339Y-46568944D01*
G37*
G04 #@! TD.AperFunction*
D14*
X112789339Y-46568944D02*
X112967001Y-46746606D01*
X112967001Y-47353331D01*
X112849707Y-47330000D01*
X112550293Y-47330000D01*
X112256632Y-47388412D01*
X112233000Y-47398201D01*
X112233000Y-46891541D01*
X112398944Y-46780661D01*
X112610661Y-46568944D01*
X112700000Y-46435239D01*
X112789339Y-46568944D01*
G04 #@! TA.AperFunction,NonConductor*
D15*
G36*
X112789339Y-46568944D02*
G01*
X112967001Y-46746606D01*
X112967001Y-47353331D01*
X112849707Y-47330000D01*
X112550293Y-47330000D01*
X112256632Y-47388412D01*
X112233000Y-47398201D01*
X112233000Y-46891541D01*
X112398944Y-46780661D01*
X112610661Y-46568944D01*
X112700000Y-46435239D01*
X112789339Y-46568944D01*
G37*
G04 #@! TD.AperFunction*
D14*
X107709339Y-46568944D02*
X107921056Y-46780661D01*
X108007001Y-46838087D01*
X108007001Y-47377200D01*
X107769707Y-47330000D01*
X107470293Y-47330000D01*
X107233000Y-47377200D01*
X107233000Y-46838087D01*
X107318944Y-46780661D01*
X107530661Y-46568944D01*
X107620000Y-46435239D01*
X107709339Y-46568944D01*
G04 #@! TA.AperFunction,NonConductor*
D15*
G36*
X107709339Y-46568944D02*
G01*
X107921056Y-46780661D01*
X108007001Y-46838087D01*
X108007001Y-47377200D01*
X107769707Y-47330000D01*
X107470293Y-47330000D01*
X107233000Y-47377200D01*
X107233000Y-46838087D01*
X107318944Y-46780661D01*
X107530661Y-46568944D01*
X107620000Y-46435239D01*
X107709339Y-46568944D01*
G37*
G04 #@! TD.AperFunction*
D14*
X110249339Y-46568944D02*
X110461056Y-46780661D01*
X110467001Y-46784633D01*
X110467001Y-47361287D01*
X110309707Y-47330000D01*
X110010293Y-47330000D01*
X109773000Y-47377200D01*
X109773000Y-46838087D01*
X109858944Y-46780661D01*
X110070661Y-46568944D01*
X110160000Y-46435239D01*
X110249339Y-46568944D01*
G04 #@! TA.AperFunction,NonConductor*
D15*
G36*
X110249339Y-46568944D02*
G01*
X110461056Y-46780661D01*
X110467001Y-46784633D01*
X110467001Y-47361287D01*
X110309707Y-47330000D01*
X110010293Y-47330000D01*
X109773000Y-47377200D01*
X109773000Y-46838087D01*
X109858944Y-46780661D01*
X110070661Y-46568944D01*
X110160000Y-46435239D01*
X110249339Y-46568944D01*
G37*
G04 #@! TD.AperFunction*
D14*
X122949339Y-46568944D02*
X123064002Y-46683607D01*
X123064002Y-47340800D01*
X123009707Y-47330000D01*
X122710293Y-47330000D01*
X122655999Y-47340800D01*
X122655999Y-46683606D01*
X122770661Y-46568944D01*
X122860000Y-46435239D01*
X122949339Y-46568944D01*
G04 #@! TA.AperFunction,NonConductor*
D15*
G36*
X122949339Y-46568944D02*
G01*
X123064002Y-46683607D01*
X123064002Y-47340800D01*
X123009707Y-47330000D01*
X122710293Y-47330000D01*
X122655999Y-47340800D01*
X122655999Y-46683606D01*
X122770661Y-46568944D01*
X122860000Y-46435239D01*
X122949339Y-46568944D01*
G37*
G04 #@! TD.AperFunction*
D14*
X118606632Y-44138412D02*
X118330010Y-44252993D01*
X118081056Y-44419339D01*
X117869339Y-44631056D01*
X117780000Y-44764761D01*
X117690661Y-44631056D01*
X117478944Y-44419339D01*
X117229990Y-44252993D01*
X116953368Y-44138412D01*
X116674789Y-44083000D01*
X118885211Y-44083000D01*
X118606632Y-44138412D01*
G04 #@! TA.AperFunction,NonConductor*
D15*
G36*
X118606632Y-44138412D02*
G01*
X118330010Y-44252993D01*
X118081056Y-44419339D01*
X117869339Y-44631056D01*
X117780000Y-44764761D01*
X117690661Y-44631056D01*
X117478944Y-44419339D01*
X117229990Y-44252993D01*
X116953368Y-44138412D01*
X116674789Y-44083000D01*
X118885211Y-44083000D01*
X118606632Y-44138412D01*
G37*
G04 #@! TD.AperFunction*
D14*
X116066632Y-44138412D02*
X115790010Y-44252993D01*
X115541056Y-44419339D01*
X115329339Y-44631056D01*
X115240000Y-44764761D01*
X115150661Y-44631056D01*
X114938944Y-44419339D01*
X114689990Y-44252993D01*
X114413368Y-44138412D01*
X114134789Y-44083000D01*
X116345211Y-44083000D01*
X116066632Y-44138412D01*
G04 #@! TA.AperFunction,NonConductor*
D15*
G36*
X116066632Y-44138412D02*
G01*
X115790010Y-44252993D01*
X115541056Y-44419339D01*
X115329339Y-44631056D01*
X115240000Y-44764761D01*
X115150661Y-44631056D01*
X114938944Y-44419339D01*
X114689990Y-44252993D01*
X114413368Y-44138412D01*
X114134789Y-44083000D01*
X116345211Y-44083000D01*
X116066632Y-44138412D01*
G37*
G04 #@! TD.AperFunction*
D14*
X113526632Y-44138412D02*
X113250010Y-44252993D01*
X113001056Y-44419339D01*
X112789339Y-44631056D01*
X112700000Y-44764761D01*
X112610661Y-44631056D01*
X112398944Y-44419339D01*
X112149990Y-44252993D01*
X111873368Y-44138412D01*
X111594789Y-44083000D01*
X113805211Y-44083000D01*
X113526632Y-44138412D01*
G04 #@! TA.AperFunction,NonConductor*
D15*
G36*
X113526632Y-44138412D02*
G01*
X113250010Y-44252993D01*
X113001056Y-44419339D01*
X112789339Y-44631056D01*
X112700000Y-44764761D01*
X112610661Y-44631056D01*
X112398944Y-44419339D01*
X112149990Y-44252993D01*
X111873368Y-44138412D01*
X111594789Y-44083000D01*
X113805211Y-44083000D01*
X113526632Y-44138412D01*
G37*
G04 #@! TD.AperFunction*
D14*
X110986632Y-44138412D02*
X110710010Y-44252993D01*
X110461056Y-44419339D01*
X110249339Y-44631056D01*
X110160000Y-44764761D01*
X110070661Y-44631056D01*
X109858944Y-44419339D01*
X109609990Y-44252993D01*
X109333368Y-44138412D01*
X109054789Y-44083000D01*
X111265211Y-44083000D01*
X110986632Y-44138412D01*
G04 #@! TA.AperFunction,NonConductor*
D15*
G36*
X110986632Y-44138412D02*
G01*
X110710010Y-44252993D01*
X110461056Y-44419339D01*
X110249339Y-44631056D01*
X110160000Y-44764761D01*
X110070661Y-44631056D01*
X109858944Y-44419339D01*
X109609990Y-44252993D01*
X109333368Y-44138412D01*
X109054789Y-44083000D01*
X111265211Y-44083000D01*
X110986632Y-44138412D01*
G37*
G04 #@! TD.AperFunction*
D14*
X108446632Y-44138412D02*
X108170010Y-44252993D01*
X107921056Y-44419339D01*
X107709339Y-44631056D01*
X107620000Y-44764761D01*
X107530661Y-44631056D01*
X107318944Y-44419339D01*
X107069990Y-44252993D01*
X106793368Y-44138412D01*
X106514789Y-44083000D01*
X108725211Y-44083000D01*
X108446632Y-44138412D01*
G04 #@! TA.AperFunction,NonConductor*
D15*
G36*
X108446632Y-44138412D02*
G01*
X108170010Y-44252993D01*
X107921056Y-44419339D01*
X107709339Y-44631056D01*
X107620000Y-44764761D01*
X107530661Y-44631056D01*
X107318944Y-44419339D01*
X107069990Y-44252993D01*
X106793368Y-44138412D01*
X106514789Y-44083000D01*
X108725211Y-44083000D01*
X108446632Y-44138412D01*
G37*
G04 #@! TD.AperFunction*
D14*
X80506632Y-44138412D02*
X80230010Y-44252993D01*
X79981056Y-44419339D01*
X79769339Y-44631056D01*
X79680000Y-44764761D01*
X79590661Y-44631056D01*
X79378944Y-44419339D01*
X79129990Y-44252993D01*
X78853368Y-44138412D01*
X78574789Y-44083000D01*
X80785211Y-44083000D01*
X80506632Y-44138412D01*
G04 #@! TA.AperFunction,NonConductor*
D15*
G36*
X80506632Y-44138412D02*
G01*
X80230010Y-44252993D01*
X79981056Y-44419339D01*
X79769339Y-44631056D01*
X79680000Y-44764761D01*
X79590661Y-44631056D01*
X79378944Y-44419339D01*
X79129990Y-44252993D01*
X78853368Y-44138412D01*
X78574789Y-44083000D01*
X80785211Y-44083000D01*
X80506632Y-44138412D01*
G37*
G04 #@! TD.AperFunction*
D14*
X83046632Y-44138412D02*
X82770010Y-44252993D01*
X82521056Y-44419339D01*
X82309339Y-44631056D01*
X82220000Y-44764761D01*
X82130661Y-44631056D01*
X81918944Y-44419339D01*
X81669990Y-44252993D01*
X81393368Y-44138412D01*
X81114789Y-44083000D01*
X83325211Y-44083000D01*
X83046632Y-44138412D01*
G04 #@! TA.AperFunction,NonConductor*
D15*
G36*
X83046632Y-44138412D02*
G01*
X82770010Y-44252993D01*
X82521056Y-44419339D01*
X82309339Y-44631056D01*
X82220000Y-44764761D01*
X82130661Y-44631056D01*
X81918944Y-44419339D01*
X81669990Y-44252993D01*
X81393368Y-44138412D01*
X81114789Y-44083000D01*
X83325211Y-44083000D01*
X83046632Y-44138412D01*
G37*
G04 #@! TD.AperFunction*
D14*
X85586632Y-44138412D02*
X85310010Y-44252993D01*
X85061056Y-44419339D01*
X84849339Y-44631056D01*
X84760000Y-44764761D01*
X84670661Y-44631056D01*
X84458944Y-44419339D01*
X84209990Y-44252993D01*
X83933368Y-44138412D01*
X83654789Y-44083000D01*
X85865211Y-44083000D01*
X85586632Y-44138412D01*
G04 #@! TA.AperFunction,NonConductor*
D15*
G36*
X85586632Y-44138412D02*
G01*
X85310010Y-44252993D01*
X85061056Y-44419339D01*
X84849339Y-44631056D01*
X84760000Y-44764761D01*
X84670661Y-44631056D01*
X84458944Y-44419339D01*
X84209990Y-44252993D01*
X83933368Y-44138412D01*
X83654789Y-44083000D01*
X85865211Y-44083000D01*
X85586632Y-44138412D01*
G37*
G04 #@! TD.AperFunction*
D14*
X88126632Y-44138412D02*
X87850010Y-44252993D01*
X87601056Y-44419339D01*
X87389339Y-44631056D01*
X87300000Y-44764761D01*
X87210661Y-44631056D01*
X86998944Y-44419339D01*
X86749990Y-44252993D01*
X86473368Y-44138412D01*
X86194789Y-44083000D01*
X88405211Y-44083000D01*
X88126632Y-44138412D01*
G04 #@! TA.AperFunction,NonConductor*
D15*
G36*
X88126632Y-44138412D02*
G01*
X87850010Y-44252993D01*
X87601056Y-44419339D01*
X87389339Y-44631056D01*
X87300000Y-44764761D01*
X87210661Y-44631056D01*
X86998944Y-44419339D01*
X86749990Y-44252993D01*
X86473368Y-44138412D01*
X86194789Y-44083000D01*
X88405211Y-44083000D01*
X88126632Y-44138412D01*
G37*
G04 #@! TD.AperFunction*
D14*
X121146632Y-44138412D02*
X120870010Y-44252993D01*
X120621056Y-44419339D01*
X120409339Y-44631056D01*
X120320000Y-44764761D01*
X120230661Y-44631056D01*
X120018944Y-44419339D01*
X119769990Y-44252993D01*
X119493368Y-44138412D01*
X119214789Y-44083000D01*
X121425211Y-44083000D01*
X121146632Y-44138412D01*
G04 #@! TA.AperFunction,NonConductor*
D15*
G36*
X121146632Y-44138412D02*
G01*
X120870010Y-44252993D01*
X120621056Y-44419339D01*
X120409339Y-44631056D01*
X120320000Y-44764761D01*
X120230661Y-44631056D01*
X120018944Y-44419339D01*
X119769990Y-44252993D01*
X119493368Y-44138412D01*
X119214789Y-44083000D01*
X121425211Y-44083000D01*
X121146632Y-44138412D01*
G37*
G04 #@! TD.AperFunction*
D14*
X93206632Y-44138412D02*
X92930010Y-44252993D01*
X92681056Y-44419339D01*
X92469339Y-44631056D01*
X92380000Y-44764761D01*
X92290661Y-44631056D01*
X92078944Y-44419339D01*
X91829990Y-44252993D01*
X91553368Y-44138412D01*
X91274789Y-44083000D01*
X93485211Y-44083000D01*
X93206632Y-44138412D01*
G04 #@! TA.AperFunction,NonConductor*
D15*
G36*
X93206632Y-44138412D02*
G01*
X92930010Y-44252993D01*
X92681056Y-44419339D01*
X92469339Y-44631056D01*
X92380000Y-44764761D01*
X92290661Y-44631056D01*
X92078944Y-44419339D01*
X91829990Y-44252993D01*
X91553368Y-44138412D01*
X91274789Y-44083000D01*
X93485211Y-44083000D01*
X93206632Y-44138412D01*
G37*
G04 #@! TD.AperFunction*
D14*
X95746632Y-44138412D02*
X95470010Y-44252993D01*
X95221056Y-44419339D01*
X95009339Y-44631056D01*
X94920000Y-44764761D01*
X94830661Y-44631056D01*
X94618944Y-44419339D01*
X94369990Y-44252993D01*
X94093368Y-44138412D01*
X93814789Y-44083000D01*
X96025211Y-44083000D01*
X95746632Y-44138412D01*
G04 #@! TA.AperFunction,NonConductor*
D15*
G36*
X95746632Y-44138412D02*
G01*
X95470010Y-44252993D01*
X95221056Y-44419339D01*
X95009339Y-44631056D01*
X94920000Y-44764761D01*
X94830661Y-44631056D01*
X94618944Y-44419339D01*
X94369990Y-44252993D01*
X94093368Y-44138412D01*
X93814789Y-44083000D01*
X96025211Y-44083000D01*
X95746632Y-44138412D01*
G37*
G04 #@! TD.AperFunction*
D14*
X98286632Y-44138412D02*
X98010010Y-44252993D01*
X97761056Y-44419339D01*
X97549339Y-44631056D01*
X97460000Y-44764761D01*
X97370661Y-44631056D01*
X97158944Y-44419339D01*
X96909990Y-44252993D01*
X96633368Y-44138412D01*
X96354789Y-44083000D01*
X98565211Y-44083000D01*
X98286632Y-44138412D01*
G04 #@! TA.AperFunction,NonConductor*
D15*
G36*
X98286632Y-44138412D02*
G01*
X98010010Y-44252993D01*
X97761056Y-44419339D01*
X97549339Y-44631056D01*
X97460000Y-44764761D01*
X97370661Y-44631056D01*
X97158944Y-44419339D01*
X96909990Y-44252993D01*
X96633368Y-44138412D01*
X96354789Y-44083000D01*
X98565211Y-44083000D01*
X98286632Y-44138412D01*
G37*
G04 #@! TD.AperFunction*
D14*
X100826632Y-44138412D02*
X100550010Y-44252993D01*
X100301056Y-44419339D01*
X100089339Y-44631056D01*
X100000000Y-44764761D01*
X99910661Y-44631056D01*
X99698944Y-44419339D01*
X99449990Y-44252993D01*
X99173368Y-44138412D01*
X98894789Y-44083000D01*
X101105211Y-44083000D01*
X100826632Y-44138412D01*
G04 #@! TA.AperFunction,NonConductor*
D15*
G36*
X100826632Y-44138412D02*
G01*
X100550010Y-44252993D01*
X100301056Y-44419339D01*
X100089339Y-44631056D01*
X100000000Y-44764761D01*
X99910661Y-44631056D01*
X99698944Y-44419339D01*
X99449990Y-44252993D01*
X99173368Y-44138412D01*
X98894789Y-44083000D01*
X101105211Y-44083000D01*
X100826632Y-44138412D01*
G37*
G04 #@! TD.AperFunction*
D14*
X77966632Y-44138412D02*
X77690010Y-44252993D01*
X77441056Y-44419339D01*
X77229339Y-44631056D01*
X77140000Y-44764761D01*
X77050661Y-44631056D01*
X76838944Y-44419339D01*
X76589990Y-44252993D01*
X76313368Y-44138412D01*
X76034789Y-44083000D01*
X78245211Y-44083000D01*
X77966632Y-44138412D01*
G04 #@! TA.AperFunction,NonConductor*
D15*
G36*
X77966632Y-44138412D02*
G01*
X77690010Y-44252993D01*
X77441056Y-44419339D01*
X77229339Y-44631056D01*
X77140000Y-44764761D01*
X77050661Y-44631056D01*
X76838944Y-44419339D01*
X76589990Y-44252993D01*
X76313368Y-44138412D01*
X76034789Y-44083000D01*
X78245211Y-44083000D01*
X77966632Y-44138412D01*
G37*
G04 #@! TD.AperFunction*
D14*
X105906632Y-44138412D02*
X105630010Y-44252993D01*
X105381056Y-44419339D01*
X105169339Y-44631056D01*
X105080000Y-44764761D01*
X104990661Y-44631056D01*
X104778944Y-44419339D01*
X104529990Y-44252993D01*
X104253368Y-44138412D01*
X103974789Y-44083000D01*
X106185211Y-44083000D01*
X105906632Y-44138412D01*
G04 #@! TA.AperFunction,NonConductor*
D15*
G36*
X105906632Y-44138412D02*
G01*
X105630010Y-44252993D01*
X105381056Y-44419339D01*
X105169339Y-44631056D01*
X105080000Y-44764761D01*
X104990661Y-44631056D01*
X104778944Y-44419339D01*
X104529990Y-44252993D01*
X104253368Y-44138412D01*
X103974789Y-44083000D01*
X106185211Y-44083000D01*
X105906632Y-44138412D01*
G37*
G04 #@! TD.AperFunction*
D14*
X123686632Y-44138412D02*
X123410010Y-44252993D01*
X123161056Y-44419339D01*
X122949339Y-44631056D01*
X122860000Y-44764761D01*
X122770661Y-44631056D01*
X122558944Y-44419339D01*
X122309990Y-44252993D01*
X122033368Y-44138412D01*
X121754789Y-44083000D01*
X123965211Y-44083000D01*
X123686632Y-44138412D01*
G04 #@! TA.AperFunction,NonConductor*
D15*
G36*
X123686632Y-44138412D02*
G01*
X123410010Y-44252993D01*
X123161056Y-44419339D01*
X122949339Y-44631056D01*
X122860000Y-44764761D01*
X122770661Y-44631056D01*
X122558944Y-44419339D01*
X122309990Y-44252993D01*
X122033368Y-44138412D01*
X121754789Y-44083000D01*
X123965211Y-44083000D01*
X123686632Y-44138412D01*
G37*
G04 #@! TD.AperFunction*
D14*
X126226632Y-44138412D02*
X125950010Y-44252993D01*
X125701056Y-44419339D01*
X125489339Y-44631056D01*
X125400000Y-44764761D01*
X125310661Y-44631056D01*
X125098944Y-44419339D01*
X124849990Y-44252993D01*
X124573368Y-44138412D01*
X124294789Y-44083000D01*
X126505211Y-44083000D01*
X126226632Y-44138412D01*
G04 #@! TA.AperFunction,NonConductor*
D15*
G36*
X126226632Y-44138412D02*
G01*
X125950010Y-44252993D01*
X125701056Y-44419339D01*
X125489339Y-44631056D01*
X125400000Y-44764761D01*
X125310661Y-44631056D01*
X125098944Y-44419339D01*
X124849990Y-44252993D01*
X124573368Y-44138412D01*
X124294789Y-44083000D01*
X126505211Y-44083000D01*
X126226632Y-44138412D01*
G37*
G04 #@! TD.AperFunction*
D14*
X128766632Y-44138412D02*
X128490010Y-44252993D01*
X128241056Y-44419339D01*
X128029339Y-44631056D01*
X127940000Y-44764761D01*
X127850661Y-44631056D01*
X127638944Y-44419339D01*
X127389990Y-44252993D01*
X127113368Y-44138412D01*
X126834789Y-44083000D01*
X129045211Y-44083000D01*
X128766632Y-44138412D01*
G04 #@! TA.AperFunction,NonConductor*
D15*
G36*
X128766632Y-44138412D02*
G01*
X128490010Y-44252993D01*
X128241056Y-44419339D01*
X128029339Y-44631056D01*
X127940000Y-44764761D01*
X127850661Y-44631056D01*
X127638944Y-44419339D01*
X127389990Y-44252993D01*
X127113368Y-44138412D01*
X126834789Y-44083000D01*
X129045211Y-44083000D01*
X128766632Y-44138412D01*
G37*
G04 #@! TD.AperFunction*
D14*
X103366632Y-44138412D02*
X103090010Y-44252993D01*
X102841056Y-44419339D01*
X102629339Y-44631056D01*
X102540000Y-44764761D01*
X102450661Y-44631056D01*
X102238944Y-44419339D01*
X101989990Y-44252993D01*
X101713368Y-44138412D01*
X101434789Y-44083000D01*
X103645211Y-44083000D01*
X103366632Y-44138412D01*
G04 #@! TA.AperFunction,NonConductor*
D15*
G36*
X103366632Y-44138412D02*
G01*
X103090010Y-44252993D01*
X102841056Y-44419339D01*
X102629339Y-44631056D01*
X102540000Y-44764761D01*
X102450661Y-44631056D01*
X102238944Y-44419339D01*
X101989990Y-44252993D01*
X101713368Y-44138412D01*
X101434789Y-44083000D01*
X103645211Y-44083000D01*
X103366632Y-44138412D01*
G37*
G04 #@! TD.AperFunction*
D14*
X90666632Y-44138412D02*
X90390010Y-44252993D01*
X90141056Y-44419339D01*
X89929339Y-44631056D01*
X89840000Y-44764761D01*
X89750661Y-44631056D01*
X89538944Y-44419339D01*
X89289990Y-44252993D01*
X89013368Y-44138412D01*
X88734789Y-44083000D01*
X90945211Y-44083000D01*
X90666632Y-44138412D01*
G04 #@! TA.AperFunction,NonConductor*
D15*
G36*
X90666632Y-44138412D02*
G01*
X90390010Y-44252993D01*
X90141056Y-44419339D01*
X89929339Y-44631056D01*
X89840000Y-44764761D01*
X89750661Y-44631056D01*
X89538944Y-44419339D01*
X89289990Y-44252993D01*
X89013368Y-44138412D01*
X88734789Y-44083000D01*
X90945211Y-44083000D01*
X90666632Y-44138412D01*
G37*
G04 #@! TD.AperFunction*
M02*
