G04 #@! TF.GenerationSoftware,KiCad,Pcbnew,5.1.10*
G04 #@! TF.CreationDate,2021-06-22T10:21:35-06:00*
G04 #@! TF.ProjectId,dev_cart_pcb,6465765f-6361-4727-945f-7063622e6b69,rev?*
G04 #@! TF.SameCoordinates,Original*
G04 #@! TF.FileFunction,Copper,L2,Bot*
G04 #@! TF.FilePolarity,Positive*
%FSLAX46Y46*%
G04 Gerber Fmt 4.6, Leading zero omitted, Abs format (unit mm)*
G04 Created by KiCad (PCBNEW 5.1.10) date 2021-06-22 10:21:35*
%MOMM*%
%LPD*%
G01*
G04 APERTURE LIST*
G04 #@! TA.AperFunction,ComponentPad*
%ADD10C,1.524000*%
G04 #@! TD*
G04 #@! TA.AperFunction,ViaPad*
%ADD11C,0.800000*%
G04 #@! TD*
G04 #@! TA.AperFunction,Conductor*
%ADD12C,0.250000*%
G04 #@! TD*
G04 #@! TA.AperFunction,NonConductor*
%ADD13C,0.254000*%
G04 #@! TD*
G04 #@! TA.AperFunction,NonConductor*
%ADD14C,0.100000*%
G04 #@! TD*
G04 APERTURE END LIST*
D10*
X129210000Y-45600000D03*
X126670000Y-45600000D03*
X124130000Y-45600000D03*
X121590000Y-45600000D03*
X119050000Y-45600000D03*
X116510000Y-45600000D03*
X113970000Y-45600000D03*
X111430000Y-45600000D03*
X108890000Y-45600000D03*
X106350000Y-45600000D03*
X103810000Y-45600000D03*
X101270000Y-45600000D03*
X98730000Y-45600000D03*
X96190000Y-45600000D03*
X93650000Y-45600000D03*
X91110000Y-45600000D03*
X88570000Y-45600000D03*
X86030000Y-45600000D03*
X83490000Y-45600000D03*
X80950000Y-45600000D03*
X78410000Y-45600000D03*
X75870000Y-45600000D03*
X130480000Y-48850000D03*
X127940000Y-48850000D03*
X125400000Y-48850000D03*
X122860000Y-48850000D03*
X120320000Y-48850000D03*
X117780000Y-48850000D03*
X115240000Y-48850000D03*
X112700000Y-48850000D03*
X110160000Y-48850000D03*
X107620000Y-48850000D03*
X105080000Y-48850000D03*
X102540000Y-48850000D03*
X100000000Y-48850000D03*
X97460000Y-48850000D03*
X94920000Y-48850000D03*
X92380000Y-48850000D03*
X89840000Y-48850000D03*
X87300000Y-48850000D03*
X84760000Y-48850000D03*
X82220000Y-48850000D03*
X79680000Y-48850000D03*
X77140000Y-48850000D03*
X74600000Y-48850000D03*
D11*
X76300000Y-109700000D03*
X98800000Y-110100000D03*
X100100000Y-110100000D03*
X101300000Y-110100000D03*
X102600000Y-110100000D03*
X103800000Y-110100000D03*
D12*
X75246874Y-49811888D02*
X75870000Y-49188762D01*
X75870000Y-49188762D02*
X75870000Y-45600000D01*
X75246874Y-108646874D02*
X75246874Y-49811888D01*
X76300000Y-109700000D02*
X75246874Y-108646874D01*
X98800000Y-110100000D02*
X93000000Y-104300000D01*
X98730000Y-49188762D02*
X98730000Y-45600000D01*
X93000000Y-54918762D02*
X98730000Y-49188762D01*
X93000000Y-104300000D02*
X93000000Y-54918762D01*
X95000000Y-53850000D02*
X100000000Y-48850000D01*
X95000000Y-105000000D02*
X95000000Y-53850000D01*
X100100000Y-110100000D02*
X95000000Y-105000000D01*
X101270000Y-49230000D02*
X101270000Y-45600000D01*
X95700000Y-54800000D02*
X101270000Y-49230000D01*
X95700000Y-104500000D02*
X95700000Y-54800000D01*
X101300000Y-110100000D02*
X95700000Y-104500000D01*
X96700000Y-54690000D02*
X102540000Y-48850000D01*
X96700000Y-104200000D02*
X96700000Y-54690000D01*
X102600000Y-110100000D02*
X96700000Y-104200000D01*
X103810000Y-49188762D02*
X103810000Y-45600000D01*
X97246854Y-55751908D02*
X103810000Y-49188762D01*
X97246854Y-103546854D02*
X97246854Y-55751908D01*
X103800000Y-110100000D02*
X97246854Y-103546854D01*
D13*
X131940000Y-120640000D02*
X73260000Y-120640000D01*
X73260000Y-49265491D01*
X73361995Y-49511727D01*
X73514880Y-49740535D01*
X73709465Y-49935120D01*
X73938273Y-50088005D01*
X74192510Y-50193314D01*
X74462408Y-50247000D01*
X74486875Y-50247000D01*
X74486874Y-108609552D01*
X74483198Y-108646874D01*
X74486874Y-108684196D01*
X74486874Y-108684206D01*
X74497871Y-108795859D01*
X74528267Y-108896063D01*
X74541328Y-108939120D01*
X74611900Y-109071150D01*
X74639495Y-109104774D01*
X74706873Y-109186875D01*
X74735876Y-109210678D01*
X75265000Y-109739802D01*
X75265000Y-109801939D01*
X75304774Y-110001898D01*
X75382795Y-110190256D01*
X75496063Y-110359774D01*
X75640226Y-110503937D01*
X75809744Y-110617205D01*
X75998102Y-110695226D01*
X76198061Y-110735000D01*
X76401939Y-110735000D01*
X76601898Y-110695226D01*
X76790256Y-110617205D01*
X76959774Y-110503937D01*
X77103937Y-110359774D01*
X77217205Y-110190256D01*
X77295226Y-110001898D01*
X77335000Y-109801939D01*
X77335000Y-109598061D01*
X77295226Y-109398102D01*
X77217205Y-109209744D01*
X77103937Y-109040226D01*
X76959774Y-108896063D01*
X76790256Y-108782795D01*
X76601898Y-108704774D01*
X76401939Y-108665000D01*
X76339802Y-108665000D01*
X76006874Y-108332073D01*
X76006874Y-93813982D01*
X76112322Y-93857660D01*
X76435331Y-93921910D01*
X76764669Y-93921910D01*
X77087678Y-93857660D01*
X77391947Y-93731628D01*
X77665781Y-93548658D01*
X77898658Y-93315781D01*
X78081628Y-93041947D01*
X78207660Y-92737678D01*
X78271910Y-92414669D01*
X78271910Y-92085331D01*
X78207660Y-91762322D01*
X78081628Y-91458053D01*
X77898658Y-91184219D01*
X77665781Y-90951342D01*
X77391947Y-90768372D01*
X77087678Y-90642340D01*
X76764669Y-90578090D01*
X76435331Y-90578090D01*
X76112322Y-90642340D01*
X76006874Y-90686018D01*
X76006874Y-50126689D01*
X76223954Y-49909609D01*
X76249465Y-49935120D01*
X76478273Y-50088005D01*
X76732510Y-50193314D01*
X77002408Y-50247000D01*
X77277592Y-50247000D01*
X77547490Y-50193314D01*
X77801727Y-50088005D01*
X78030535Y-49935120D01*
X78225120Y-49740535D01*
X78378005Y-49511727D01*
X78410000Y-49434485D01*
X78441995Y-49511727D01*
X78594880Y-49740535D01*
X78789465Y-49935120D01*
X79018273Y-50088005D01*
X79272510Y-50193314D01*
X79542408Y-50247000D01*
X79817592Y-50247000D01*
X80087490Y-50193314D01*
X80341727Y-50088005D01*
X80570535Y-49935120D01*
X80765120Y-49740535D01*
X80918005Y-49511727D01*
X80950000Y-49434485D01*
X80981995Y-49511727D01*
X81134880Y-49740535D01*
X81329465Y-49935120D01*
X81558273Y-50088005D01*
X81812510Y-50193314D01*
X82082408Y-50247000D01*
X82357592Y-50247000D01*
X82627490Y-50193314D01*
X82881727Y-50088005D01*
X83110535Y-49935120D01*
X83305120Y-49740535D01*
X83458005Y-49511727D01*
X83490000Y-49434485D01*
X83521995Y-49511727D01*
X83674880Y-49740535D01*
X83869465Y-49935120D01*
X84098273Y-50088005D01*
X84352510Y-50193314D01*
X84622408Y-50247000D01*
X84897592Y-50247000D01*
X85167490Y-50193314D01*
X85421727Y-50088005D01*
X85650535Y-49935120D01*
X85845120Y-49740535D01*
X85998005Y-49511727D01*
X86030000Y-49434485D01*
X86061995Y-49511727D01*
X86214880Y-49740535D01*
X86409465Y-49935120D01*
X86638273Y-50088005D01*
X86892510Y-50193314D01*
X87162408Y-50247000D01*
X87437592Y-50247000D01*
X87707490Y-50193314D01*
X87961727Y-50088005D01*
X88190535Y-49935120D01*
X88385120Y-49740535D01*
X88538005Y-49511727D01*
X88570000Y-49434485D01*
X88601995Y-49511727D01*
X88754880Y-49740535D01*
X88949465Y-49935120D01*
X89178273Y-50088005D01*
X89432510Y-50193314D01*
X89702408Y-50247000D01*
X89977592Y-50247000D01*
X90247490Y-50193314D01*
X90501727Y-50088005D01*
X90730535Y-49935120D01*
X90925120Y-49740535D01*
X91078005Y-49511727D01*
X91110000Y-49434485D01*
X91141995Y-49511727D01*
X91294880Y-49740535D01*
X91489465Y-49935120D01*
X91718273Y-50088005D01*
X91972510Y-50193314D01*
X92242408Y-50247000D01*
X92517592Y-50247000D01*
X92787490Y-50193314D01*
X93041727Y-50088005D01*
X93270535Y-49935120D01*
X93465120Y-49740535D01*
X93618005Y-49511727D01*
X93650000Y-49434485D01*
X93681995Y-49511727D01*
X93834880Y-49740535D01*
X94029465Y-49935120D01*
X94258273Y-50088005D01*
X94512510Y-50193314D01*
X94782408Y-50247000D01*
X95057592Y-50247000D01*
X95327490Y-50193314D01*
X95581727Y-50088005D01*
X95810535Y-49935120D01*
X96005120Y-49740535D01*
X96158005Y-49511727D01*
X96190000Y-49434485D01*
X96221995Y-49511727D01*
X96374880Y-49740535D01*
X96569465Y-49935120D01*
X96772905Y-50071055D01*
X92488998Y-54354963D01*
X92460000Y-54378761D01*
X92436202Y-54407759D01*
X92436201Y-54407760D01*
X92365026Y-54494486D01*
X92294454Y-54626516D01*
X92287023Y-54651014D01*
X92253155Y-54762667D01*
X92250998Y-54769777D01*
X92236324Y-54918762D01*
X92240001Y-54956095D01*
X92240000Y-104262678D01*
X92236324Y-104300000D01*
X92240000Y-104337322D01*
X92240000Y-104337332D01*
X92250997Y-104448985D01*
X92277797Y-104537333D01*
X92294454Y-104592246D01*
X92365026Y-104724276D01*
X92404871Y-104772826D01*
X92459999Y-104840001D01*
X92489003Y-104863804D01*
X97765000Y-110139802D01*
X97765000Y-110201939D01*
X97804774Y-110401898D01*
X97882795Y-110590256D01*
X97996063Y-110759774D01*
X98140226Y-110903937D01*
X98309744Y-111017205D01*
X98498102Y-111095226D01*
X98698061Y-111135000D01*
X98901939Y-111135000D01*
X99101898Y-111095226D01*
X99290256Y-111017205D01*
X99450000Y-110910468D01*
X99609744Y-111017205D01*
X99798102Y-111095226D01*
X99998061Y-111135000D01*
X100201939Y-111135000D01*
X100401898Y-111095226D01*
X100590256Y-111017205D01*
X100700000Y-110943877D01*
X100809744Y-111017205D01*
X100998102Y-111095226D01*
X101198061Y-111135000D01*
X101401939Y-111135000D01*
X101601898Y-111095226D01*
X101790256Y-111017205D01*
X101950000Y-110910468D01*
X102109744Y-111017205D01*
X102298102Y-111095226D01*
X102498061Y-111135000D01*
X102701939Y-111135000D01*
X102901898Y-111095226D01*
X103090256Y-111017205D01*
X103200000Y-110943877D01*
X103309744Y-111017205D01*
X103498102Y-111095226D01*
X103698061Y-111135000D01*
X103901939Y-111135000D01*
X104101898Y-111095226D01*
X104290256Y-111017205D01*
X104459774Y-110903937D01*
X104603937Y-110759774D01*
X104717205Y-110590256D01*
X104795226Y-110401898D01*
X104835000Y-110201939D01*
X104835000Y-109998061D01*
X104795226Y-109798102D01*
X104717205Y-109609744D01*
X104603937Y-109440226D01*
X104459774Y-109296063D01*
X104290256Y-109182795D01*
X104101898Y-109104774D01*
X103901939Y-109065000D01*
X103839802Y-109065000D01*
X101598932Y-106824131D01*
X101837555Y-106878595D01*
X102854832Y-106924281D01*
X103863919Y-106787591D01*
X104832382Y-106472918D01*
X105729095Y-105990376D01*
X106525236Y-105355475D01*
X107195217Y-104588620D01*
X107717503Y-103714460D01*
X108075309Y-102761089D01*
X108257134Y-101759151D01*
X108257134Y-100740849D01*
X108075309Y-99738911D01*
X107717503Y-98785540D01*
X107195217Y-97911380D01*
X106525236Y-97144525D01*
X105729095Y-96509624D01*
X104832382Y-96027082D01*
X103863919Y-95712409D01*
X102854832Y-95575719D01*
X101837555Y-95621405D01*
X100844783Y-95847999D01*
X99908426Y-96248217D01*
X99058578Y-96809197D01*
X98322554Y-97512908D01*
X98006854Y-97947432D01*
X98006854Y-92085331D01*
X126928090Y-92085331D01*
X126928090Y-92414669D01*
X126992340Y-92737678D01*
X127118372Y-93041947D01*
X127301342Y-93315781D01*
X127534219Y-93548658D01*
X127808053Y-93731628D01*
X128112322Y-93857660D01*
X128435331Y-93921910D01*
X128764669Y-93921910D01*
X129087678Y-93857660D01*
X129391947Y-93731628D01*
X129665781Y-93548658D01*
X129898658Y-93315781D01*
X130081628Y-93041947D01*
X130207660Y-92737678D01*
X130271910Y-92414669D01*
X130271910Y-92085331D01*
X130207660Y-91762322D01*
X130081628Y-91458053D01*
X129898658Y-91184219D01*
X129665781Y-90951342D01*
X129391947Y-90768372D01*
X129087678Y-90642340D01*
X128764669Y-90578090D01*
X128435331Y-90578090D01*
X128112322Y-90642340D01*
X127808053Y-90768372D01*
X127534219Y-90951342D01*
X127301342Y-91184219D01*
X127118372Y-91458053D01*
X126992340Y-91762322D01*
X126928090Y-92085331D01*
X98006854Y-92085331D01*
X98006854Y-56066709D01*
X104163954Y-49909609D01*
X104189465Y-49935120D01*
X104418273Y-50088005D01*
X104672510Y-50193314D01*
X104942408Y-50247000D01*
X105217592Y-50247000D01*
X105487490Y-50193314D01*
X105741727Y-50088005D01*
X105970535Y-49935120D01*
X106165120Y-49740535D01*
X106318005Y-49511727D01*
X106350000Y-49434485D01*
X106381995Y-49511727D01*
X106534880Y-49740535D01*
X106729465Y-49935120D01*
X106958273Y-50088005D01*
X107212510Y-50193314D01*
X107482408Y-50247000D01*
X107757592Y-50247000D01*
X108027490Y-50193314D01*
X108281727Y-50088005D01*
X108510535Y-49935120D01*
X108705120Y-49740535D01*
X108858005Y-49511727D01*
X108890000Y-49434485D01*
X108921995Y-49511727D01*
X109074880Y-49740535D01*
X109269465Y-49935120D01*
X109498273Y-50088005D01*
X109752510Y-50193314D01*
X110022408Y-50247000D01*
X110297592Y-50247000D01*
X110567490Y-50193314D01*
X110821727Y-50088005D01*
X111050535Y-49935120D01*
X111245120Y-49740535D01*
X111398005Y-49511727D01*
X111430000Y-49434485D01*
X111461995Y-49511727D01*
X111614880Y-49740535D01*
X111809465Y-49935120D01*
X112038273Y-50088005D01*
X112292510Y-50193314D01*
X112562408Y-50247000D01*
X112837592Y-50247000D01*
X113107490Y-50193314D01*
X113361727Y-50088005D01*
X113590535Y-49935120D01*
X113785120Y-49740535D01*
X113938005Y-49511727D01*
X113970000Y-49434485D01*
X114001995Y-49511727D01*
X114154880Y-49740535D01*
X114349465Y-49935120D01*
X114578273Y-50088005D01*
X114832510Y-50193314D01*
X115102408Y-50247000D01*
X115377592Y-50247000D01*
X115647490Y-50193314D01*
X115901727Y-50088005D01*
X116130535Y-49935120D01*
X116325120Y-49740535D01*
X116478005Y-49511727D01*
X116510000Y-49434485D01*
X116541995Y-49511727D01*
X116694880Y-49740535D01*
X116889465Y-49935120D01*
X117118273Y-50088005D01*
X117372510Y-50193314D01*
X117642408Y-50247000D01*
X117917592Y-50247000D01*
X118187490Y-50193314D01*
X118441727Y-50088005D01*
X118670535Y-49935120D01*
X118865120Y-49740535D01*
X119018005Y-49511727D01*
X119050000Y-49434485D01*
X119081995Y-49511727D01*
X119234880Y-49740535D01*
X119429465Y-49935120D01*
X119658273Y-50088005D01*
X119912510Y-50193314D01*
X120182408Y-50247000D01*
X120457592Y-50247000D01*
X120727490Y-50193314D01*
X120981727Y-50088005D01*
X121210535Y-49935120D01*
X121405120Y-49740535D01*
X121558005Y-49511727D01*
X121590000Y-49434485D01*
X121621995Y-49511727D01*
X121774880Y-49740535D01*
X121969465Y-49935120D01*
X122198273Y-50088005D01*
X122452510Y-50193314D01*
X122722408Y-50247000D01*
X122997592Y-50247000D01*
X123267490Y-50193314D01*
X123521727Y-50088005D01*
X123750535Y-49935120D01*
X123945120Y-49740535D01*
X124098005Y-49511727D01*
X124130000Y-49434485D01*
X124161995Y-49511727D01*
X124314880Y-49740535D01*
X124509465Y-49935120D01*
X124738273Y-50088005D01*
X124992510Y-50193314D01*
X125262408Y-50247000D01*
X125537592Y-50247000D01*
X125807490Y-50193314D01*
X126061727Y-50088005D01*
X126290535Y-49935120D01*
X126485120Y-49740535D01*
X126638005Y-49511727D01*
X126670000Y-49434485D01*
X126701995Y-49511727D01*
X126854880Y-49740535D01*
X127049465Y-49935120D01*
X127278273Y-50088005D01*
X127532510Y-50193314D01*
X127802408Y-50247000D01*
X128077592Y-50247000D01*
X128347490Y-50193314D01*
X128601727Y-50088005D01*
X128830535Y-49935120D01*
X129025120Y-49740535D01*
X129178005Y-49511727D01*
X129210000Y-49434485D01*
X129241995Y-49511727D01*
X129394880Y-49740535D01*
X129589465Y-49935120D01*
X129818273Y-50088005D01*
X130072510Y-50193314D01*
X130342408Y-50247000D01*
X130617592Y-50247000D01*
X130887490Y-50193314D01*
X131141727Y-50088005D01*
X131370535Y-49935120D01*
X131565120Y-49740535D01*
X131718005Y-49511727D01*
X131823314Y-49257490D01*
X131877000Y-48987592D01*
X131877000Y-48712408D01*
X131823314Y-48442510D01*
X131718005Y-48188273D01*
X131565120Y-47959465D01*
X131370535Y-47764880D01*
X131141727Y-47611995D01*
X130887490Y-47506686D01*
X130617592Y-47453000D01*
X130342408Y-47453000D01*
X130072510Y-47506686D01*
X129818273Y-47611995D01*
X129589465Y-47764880D01*
X129394880Y-47959465D01*
X129241995Y-48188273D01*
X129210000Y-48265515D01*
X129178005Y-48188273D01*
X129025120Y-47959465D01*
X128830535Y-47764880D01*
X128601727Y-47611995D01*
X128347490Y-47506686D01*
X128077592Y-47453000D01*
X127802408Y-47453000D01*
X127532510Y-47506686D01*
X127278273Y-47611995D01*
X127049465Y-47764880D01*
X126854880Y-47959465D01*
X126701995Y-48188273D01*
X126670000Y-48265515D01*
X126638005Y-48188273D01*
X126485120Y-47959465D01*
X126290535Y-47764880D01*
X126061727Y-47611995D01*
X125807490Y-47506686D01*
X125537592Y-47453000D01*
X125262408Y-47453000D01*
X124992510Y-47506686D01*
X124738273Y-47611995D01*
X124509465Y-47764880D01*
X124314880Y-47959465D01*
X124161995Y-48188273D01*
X124130000Y-48265515D01*
X124098005Y-48188273D01*
X123945120Y-47959465D01*
X123750535Y-47764880D01*
X123521727Y-47611995D01*
X123267490Y-47506686D01*
X122997592Y-47453000D01*
X122722408Y-47453000D01*
X122452510Y-47506686D01*
X122198273Y-47611995D01*
X121969465Y-47764880D01*
X121774880Y-47959465D01*
X121621995Y-48188273D01*
X121590000Y-48265515D01*
X121558005Y-48188273D01*
X121405120Y-47959465D01*
X121210535Y-47764880D01*
X120981727Y-47611995D01*
X120727490Y-47506686D01*
X120457592Y-47453000D01*
X120182408Y-47453000D01*
X119912510Y-47506686D01*
X119658273Y-47611995D01*
X119429465Y-47764880D01*
X119234880Y-47959465D01*
X119081995Y-48188273D01*
X119050000Y-48265515D01*
X119018005Y-48188273D01*
X118865120Y-47959465D01*
X118670535Y-47764880D01*
X118441727Y-47611995D01*
X118187490Y-47506686D01*
X117917592Y-47453000D01*
X117642408Y-47453000D01*
X117372510Y-47506686D01*
X117118273Y-47611995D01*
X116889465Y-47764880D01*
X116694880Y-47959465D01*
X116541995Y-48188273D01*
X116510000Y-48265515D01*
X116478005Y-48188273D01*
X116325120Y-47959465D01*
X116130535Y-47764880D01*
X115901727Y-47611995D01*
X115647490Y-47506686D01*
X115377592Y-47453000D01*
X115102408Y-47453000D01*
X114832510Y-47506686D01*
X114578273Y-47611995D01*
X114349465Y-47764880D01*
X114154880Y-47959465D01*
X114001995Y-48188273D01*
X113970000Y-48265515D01*
X113938005Y-48188273D01*
X113785120Y-47959465D01*
X113590535Y-47764880D01*
X113361727Y-47611995D01*
X113107490Y-47506686D01*
X112837592Y-47453000D01*
X112562408Y-47453000D01*
X112292510Y-47506686D01*
X112038273Y-47611995D01*
X111809465Y-47764880D01*
X111614880Y-47959465D01*
X111461995Y-48188273D01*
X111430000Y-48265515D01*
X111398005Y-48188273D01*
X111245120Y-47959465D01*
X111050535Y-47764880D01*
X110821727Y-47611995D01*
X110567490Y-47506686D01*
X110297592Y-47453000D01*
X110022408Y-47453000D01*
X109752510Y-47506686D01*
X109498273Y-47611995D01*
X109269465Y-47764880D01*
X109074880Y-47959465D01*
X108921995Y-48188273D01*
X108890000Y-48265515D01*
X108858005Y-48188273D01*
X108705120Y-47959465D01*
X108510535Y-47764880D01*
X108281727Y-47611995D01*
X108027490Y-47506686D01*
X107757592Y-47453000D01*
X107482408Y-47453000D01*
X107212510Y-47506686D01*
X106958273Y-47611995D01*
X106729465Y-47764880D01*
X106534880Y-47959465D01*
X106381995Y-48188273D01*
X106350000Y-48265515D01*
X106318005Y-48188273D01*
X106165120Y-47959465D01*
X105970535Y-47764880D01*
X105741727Y-47611995D01*
X105487490Y-47506686D01*
X105217592Y-47453000D01*
X104942408Y-47453000D01*
X104672510Y-47506686D01*
X104570000Y-47549147D01*
X104570000Y-46772341D01*
X104700535Y-46685120D01*
X104895120Y-46490535D01*
X105048005Y-46261727D01*
X105080000Y-46184485D01*
X105111995Y-46261727D01*
X105264880Y-46490535D01*
X105459465Y-46685120D01*
X105688273Y-46838005D01*
X105942510Y-46943314D01*
X106212408Y-46997000D01*
X106487592Y-46997000D01*
X106757490Y-46943314D01*
X107011727Y-46838005D01*
X107240535Y-46685120D01*
X107435120Y-46490535D01*
X107588005Y-46261727D01*
X107620000Y-46184485D01*
X107651995Y-46261727D01*
X107804880Y-46490535D01*
X107999465Y-46685120D01*
X108228273Y-46838005D01*
X108482510Y-46943314D01*
X108752408Y-46997000D01*
X109027592Y-46997000D01*
X109297490Y-46943314D01*
X109551727Y-46838005D01*
X109780535Y-46685120D01*
X109975120Y-46490535D01*
X110128005Y-46261727D01*
X110160000Y-46184485D01*
X110191995Y-46261727D01*
X110344880Y-46490535D01*
X110539465Y-46685120D01*
X110768273Y-46838005D01*
X111022510Y-46943314D01*
X111292408Y-46997000D01*
X111567592Y-46997000D01*
X111837490Y-46943314D01*
X112091727Y-46838005D01*
X112320535Y-46685120D01*
X112515120Y-46490535D01*
X112668005Y-46261727D01*
X112700000Y-46184485D01*
X112731995Y-46261727D01*
X112884880Y-46490535D01*
X113079465Y-46685120D01*
X113308273Y-46838005D01*
X113562510Y-46943314D01*
X113832408Y-46997000D01*
X114107592Y-46997000D01*
X114377490Y-46943314D01*
X114631727Y-46838005D01*
X114860535Y-46685120D01*
X115055120Y-46490535D01*
X115208005Y-46261727D01*
X115240000Y-46184485D01*
X115271995Y-46261727D01*
X115424880Y-46490535D01*
X115619465Y-46685120D01*
X115848273Y-46838005D01*
X116102510Y-46943314D01*
X116372408Y-46997000D01*
X116647592Y-46997000D01*
X116917490Y-46943314D01*
X117171727Y-46838005D01*
X117400535Y-46685120D01*
X117595120Y-46490535D01*
X117748005Y-46261727D01*
X117780000Y-46184485D01*
X117811995Y-46261727D01*
X117964880Y-46490535D01*
X118159465Y-46685120D01*
X118388273Y-46838005D01*
X118642510Y-46943314D01*
X118912408Y-46997000D01*
X119187592Y-46997000D01*
X119457490Y-46943314D01*
X119711727Y-46838005D01*
X119940535Y-46685120D01*
X120135120Y-46490535D01*
X120288005Y-46261727D01*
X120320000Y-46184485D01*
X120351995Y-46261727D01*
X120504880Y-46490535D01*
X120699465Y-46685120D01*
X120928273Y-46838005D01*
X121182510Y-46943314D01*
X121452408Y-46997000D01*
X121727592Y-46997000D01*
X121997490Y-46943314D01*
X122251727Y-46838005D01*
X122480535Y-46685120D01*
X122675120Y-46490535D01*
X122828005Y-46261727D01*
X122860000Y-46184485D01*
X122891995Y-46261727D01*
X123044880Y-46490535D01*
X123239465Y-46685120D01*
X123468273Y-46838005D01*
X123722510Y-46943314D01*
X123992408Y-46997000D01*
X124267592Y-46997000D01*
X124537490Y-46943314D01*
X124791727Y-46838005D01*
X125020535Y-46685120D01*
X125215120Y-46490535D01*
X125368005Y-46261727D01*
X125400000Y-46184485D01*
X125431995Y-46261727D01*
X125584880Y-46490535D01*
X125779465Y-46685120D01*
X126008273Y-46838005D01*
X126262510Y-46943314D01*
X126532408Y-46997000D01*
X126807592Y-46997000D01*
X127077490Y-46943314D01*
X127331727Y-46838005D01*
X127560535Y-46685120D01*
X127755120Y-46490535D01*
X127908005Y-46261727D01*
X127940000Y-46184485D01*
X127971995Y-46261727D01*
X128124880Y-46490535D01*
X128319465Y-46685120D01*
X128548273Y-46838005D01*
X128802510Y-46943314D01*
X129072408Y-46997000D01*
X129347592Y-46997000D01*
X129617490Y-46943314D01*
X129871727Y-46838005D01*
X130100535Y-46685120D01*
X130295120Y-46490535D01*
X130448005Y-46261727D01*
X130553314Y-46007490D01*
X130607000Y-45737592D01*
X130607000Y-45462408D01*
X130553314Y-45192510D01*
X130448005Y-44938273D01*
X130295120Y-44709465D01*
X130100535Y-44514880D01*
X129871727Y-44361995D01*
X129617490Y-44256686D01*
X129347592Y-44203000D01*
X129072408Y-44203000D01*
X128802510Y-44256686D01*
X128548273Y-44361995D01*
X128319465Y-44514880D01*
X128124880Y-44709465D01*
X127971995Y-44938273D01*
X127940000Y-45015515D01*
X127908005Y-44938273D01*
X127755120Y-44709465D01*
X127560535Y-44514880D01*
X127331727Y-44361995D01*
X127077490Y-44256686D01*
X126807592Y-44203000D01*
X126532408Y-44203000D01*
X126262510Y-44256686D01*
X126008273Y-44361995D01*
X125779465Y-44514880D01*
X125584880Y-44709465D01*
X125431995Y-44938273D01*
X125400000Y-45015515D01*
X125368005Y-44938273D01*
X125215120Y-44709465D01*
X125020535Y-44514880D01*
X124791727Y-44361995D01*
X124537490Y-44256686D01*
X124267592Y-44203000D01*
X123992408Y-44203000D01*
X123722510Y-44256686D01*
X123468273Y-44361995D01*
X123239465Y-44514880D01*
X123044880Y-44709465D01*
X122891995Y-44938273D01*
X122860000Y-45015515D01*
X122828005Y-44938273D01*
X122675120Y-44709465D01*
X122480535Y-44514880D01*
X122251727Y-44361995D01*
X121997490Y-44256686D01*
X121727592Y-44203000D01*
X121452408Y-44203000D01*
X121182510Y-44256686D01*
X120928273Y-44361995D01*
X120699465Y-44514880D01*
X120504880Y-44709465D01*
X120351995Y-44938273D01*
X120320000Y-45015515D01*
X120288005Y-44938273D01*
X120135120Y-44709465D01*
X119940535Y-44514880D01*
X119711727Y-44361995D01*
X119457490Y-44256686D01*
X119187592Y-44203000D01*
X118912408Y-44203000D01*
X118642510Y-44256686D01*
X118388273Y-44361995D01*
X118159465Y-44514880D01*
X117964880Y-44709465D01*
X117811995Y-44938273D01*
X117780000Y-45015515D01*
X117748005Y-44938273D01*
X117595120Y-44709465D01*
X117400535Y-44514880D01*
X117171727Y-44361995D01*
X116917490Y-44256686D01*
X116647592Y-44203000D01*
X116372408Y-44203000D01*
X116102510Y-44256686D01*
X115848273Y-44361995D01*
X115619465Y-44514880D01*
X115424880Y-44709465D01*
X115271995Y-44938273D01*
X115240000Y-45015515D01*
X115208005Y-44938273D01*
X115055120Y-44709465D01*
X114860535Y-44514880D01*
X114631727Y-44361995D01*
X114377490Y-44256686D01*
X114107592Y-44203000D01*
X113832408Y-44203000D01*
X113562510Y-44256686D01*
X113308273Y-44361995D01*
X113079465Y-44514880D01*
X112884880Y-44709465D01*
X112731995Y-44938273D01*
X112700000Y-45015515D01*
X112668005Y-44938273D01*
X112515120Y-44709465D01*
X112320535Y-44514880D01*
X112091727Y-44361995D01*
X111837490Y-44256686D01*
X111567592Y-44203000D01*
X111292408Y-44203000D01*
X111022510Y-44256686D01*
X110768273Y-44361995D01*
X110539465Y-44514880D01*
X110344880Y-44709465D01*
X110191995Y-44938273D01*
X110160000Y-45015515D01*
X110128005Y-44938273D01*
X109975120Y-44709465D01*
X109780535Y-44514880D01*
X109551727Y-44361995D01*
X109297490Y-44256686D01*
X109027592Y-44203000D01*
X108752408Y-44203000D01*
X108482510Y-44256686D01*
X108228273Y-44361995D01*
X107999465Y-44514880D01*
X107804880Y-44709465D01*
X107651995Y-44938273D01*
X107620000Y-45015515D01*
X107588005Y-44938273D01*
X107435120Y-44709465D01*
X107240535Y-44514880D01*
X107011727Y-44361995D01*
X106757490Y-44256686D01*
X106487592Y-44203000D01*
X106212408Y-44203000D01*
X105942510Y-44256686D01*
X105688273Y-44361995D01*
X105459465Y-44514880D01*
X105264880Y-44709465D01*
X105111995Y-44938273D01*
X105080000Y-45015515D01*
X105048005Y-44938273D01*
X104895120Y-44709465D01*
X104700535Y-44514880D01*
X104471727Y-44361995D01*
X104217490Y-44256686D01*
X103947592Y-44203000D01*
X103672408Y-44203000D01*
X103402510Y-44256686D01*
X103148273Y-44361995D01*
X102919465Y-44514880D01*
X102724880Y-44709465D01*
X102571995Y-44938273D01*
X102540000Y-45015515D01*
X102508005Y-44938273D01*
X102355120Y-44709465D01*
X102160535Y-44514880D01*
X101931727Y-44361995D01*
X101677490Y-44256686D01*
X101407592Y-44203000D01*
X101132408Y-44203000D01*
X100862510Y-44256686D01*
X100608273Y-44361995D01*
X100379465Y-44514880D01*
X100184880Y-44709465D01*
X100031995Y-44938273D01*
X100000000Y-45015515D01*
X99968005Y-44938273D01*
X99815120Y-44709465D01*
X99620535Y-44514880D01*
X99391727Y-44361995D01*
X99137490Y-44256686D01*
X98867592Y-44203000D01*
X98592408Y-44203000D01*
X98322510Y-44256686D01*
X98068273Y-44361995D01*
X97839465Y-44514880D01*
X97644880Y-44709465D01*
X97491995Y-44938273D01*
X97460000Y-45015515D01*
X97428005Y-44938273D01*
X97275120Y-44709465D01*
X97080535Y-44514880D01*
X96851727Y-44361995D01*
X96597490Y-44256686D01*
X96327592Y-44203000D01*
X96052408Y-44203000D01*
X95782510Y-44256686D01*
X95528273Y-44361995D01*
X95299465Y-44514880D01*
X95104880Y-44709465D01*
X94951995Y-44938273D01*
X94920000Y-45015515D01*
X94888005Y-44938273D01*
X94735120Y-44709465D01*
X94540535Y-44514880D01*
X94311727Y-44361995D01*
X94057490Y-44256686D01*
X93787592Y-44203000D01*
X93512408Y-44203000D01*
X93242510Y-44256686D01*
X92988273Y-44361995D01*
X92759465Y-44514880D01*
X92564880Y-44709465D01*
X92411995Y-44938273D01*
X92380000Y-45015515D01*
X92348005Y-44938273D01*
X92195120Y-44709465D01*
X92000535Y-44514880D01*
X91771727Y-44361995D01*
X91517490Y-44256686D01*
X91247592Y-44203000D01*
X90972408Y-44203000D01*
X90702510Y-44256686D01*
X90448273Y-44361995D01*
X90219465Y-44514880D01*
X90024880Y-44709465D01*
X89871995Y-44938273D01*
X89840000Y-45015515D01*
X89808005Y-44938273D01*
X89655120Y-44709465D01*
X89460535Y-44514880D01*
X89231727Y-44361995D01*
X88977490Y-44256686D01*
X88707592Y-44203000D01*
X88432408Y-44203000D01*
X88162510Y-44256686D01*
X87908273Y-44361995D01*
X87679465Y-44514880D01*
X87484880Y-44709465D01*
X87331995Y-44938273D01*
X87300000Y-45015515D01*
X87268005Y-44938273D01*
X87115120Y-44709465D01*
X86920535Y-44514880D01*
X86691727Y-44361995D01*
X86437490Y-44256686D01*
X86167592Y-44203000D01*
X85892408Y-44203000D01*
X85622510Y-44256686D01*
X85368273Y-44361995D01*
X85139465Y-44514880D01*
X84944880Y-44709465D01*
X84791995Y-44938273D01*
X84760000Y-45015515D01*
X84728005Y-44938273D01*
X84575120Y-44709465D01*
X84380535Y-44514880D01*
X84151727Y-44361995D01*
X83897490Y-44256686D01*
X83627592Y-44203000D01*
X83352408Y-44203000D01*
X83082510Y-44256686D01*
X82828273Y-44361995D01*
X82599465Y-44514880D01*
X82404880Y-44709465D01*
X82251995Y-44938273D01*
X82220000Y-45015515D01*
X82188005Y-44938273D01*
X82035120Y-44709465D01*
X81840535Y-44514880D01*
X81611727Y-44361995D01*
X81357490Y-44256686D01*
X81087592Y-44203000D01*
X80812408Y-44203000D01*
X80542510Y-44256686D01*
X80288273Y-44361995D01*
X80059465Y-44514880D01*
X79864880Y-44709465D01*
X79711995Y-44938273D01*
X79680000Y-45015515D01*
X79648005Y-44938273D01*
X79495120Y-44709465D01*
X79300535Y-44514880D01*
X79071727Y-44361995D01*
X78817490Y-44256686D01*
X78547592Y-44203000D01*
X78272408Y-44203000D01*
X78002510Y-44256686D01*
X77748273Y-44361995D01*
X77519465Y-44514880D01*
X77324880Y-44709465D01*
X77171995Y-44938273D01*
X77140000Y-45015515D01*
X77108005Y-44938273D01*
X76955120Y-44709465D01*
X76760535Y-44514880D01*
X76531727Y-44361995D01*
X76277490Y-44256686D01*
X76007592Y-44203000D01*
X75732408Y-44203000D01*
X75462510Y-44256686D01*
X75208273Y-44361995D01*
X74979465Y-44514880D01*
X74784880Y-44709465D01*
X74631995Y-44938273D01*
X74526686Y-45192510D01*
X74473000Y-45462408D01*
X74473000Y-45737592D01*
X74526686Y-46007490D01*
X74631995Y-46261727D01*
X74784880Y-46490535D01*
X74979465Y-46685120D01*
X75110001Y-46772341D01*
X75110000Y-47549147D01*
X75007490Y-47506686D01*
X74737592Y-47453000D01*
X74462408Y-47453000D01*
X74192510Y-47506686D01*
X73938273Y-47611995D01*
X73709465Y-47764880D01*
X73514880Y-47959465D01*
X73361995Y-48188273D01*
X73260000Y-48434509D01*
X73260000Y-43960000D01*
X131940001Y-43960000D01*
X131940000Y-120640000D01*
G04 #@! TA.AperFunction,NonConductor*
D14*
G36*
X131940000Y-120640000D02*
G01*
X73260000Y-120640000D01*
X73260000Y-49265491D01*
X73361995Y-49511727D01*
X73514880Y-49740535D01*
X73709465Y-49935120D01*
X73938273Y-50088005D01*
X74192510Y-50193314D01*
X74462408Y-50247000D01*
X74486875Y-50247000D01*
X74486874Y-108609552D01*
X74483198Y-108646874D01*
X74486874Y-108684196D01*
X74486874Y-108684206D01*
X74497871Y-108795859D01*
X74528267Y-108896063D01*
X74541328Y-108939120D01*
X74611900Y-109071150D01*
X74639495Y-109104774D01*
X74706873Y-109186875D01*
X74735876Y-109210678D01*
X75265000Y-109739802D01*
X75265000Y-109801939D01*
X75304774Y-110001898D01*
X75382795Y-110190256D01*
X75496063Y-110359774D01*
X75640226Y-110503937D01*
X75809744Y-110617205D01*
X75998102Y-110695226D01*
X76198061Y-110735000D01*
X76401939Y-110735000D01*
X76601898Y-110695226D01*
X76790256Y-110617205D01*
X76959774Y-110503937D01*
X77103937Y-110359774D01*
X77217205Y-110190256D01*
X77295226Y-110001898D01*
X77335000Y-109801939D01*
X77335000Y-109598061D01*
X77295226Y-109398102D01*
X77217205Y-109209744D01*
X77103937Y-109040226D01*
X76959774Y-108896063D01*
X76790256Y-108782795D01*
X76601898Y-108704774D01*
X76401939Y-108665000D01*
X76339802Y-108665000D01*
X76006874Y-108332073D01*
X76006874Y-93813982D01*
X76112322Y-93857660D01*
X76435331Y-93921910D01*
X76764669Y-93921910D01*
X77087678Y-93857660D01*
X77391947Y-93731628D01*
X77665781Y-93548658D01*
X77898658Y-93315781D01*
X78081628Y-93041947D01*
X78207660Y-92737678D01*
X78271910Y-92414669D01*
X78271910Y-92085331D01*
X78207660Y-91762322D01*
X78081628Y-91458053D01*
X77898658Y-91184219D01*
X77665781Y-90951342D01*
X77391947Y-90768372D01*
X77087678Y-90642340D01*
X76764669Y-90578090D01*
X76435331Y-90578090D01*
X76112322Y-90642340D01*
X76006874Y-90686018D01*
X76006874Y-50126689D01*
X76223954Y-49909609D01*
X76249465Y-49935120D01*
X76478273Y-50088005D01*
X76732510Y-50193314D01*
X77002408Y-50247000D01*
X77277592Y-50247000D01*
X77547490Y-50193314D01*
X77801727Y-50088005D01*
X78030535Y-49935120D01*
X78225120Y-49740535D01*
X78378005Y-49511727D01*
X78410000Y-49434485D01*
X78441995Y-49511727D01*
X78594880Y-49740535D01*
X78789465Y-49935120D01*
X79018273Y-50088005D01*
X79272510Y-50193314D01*
X79542408Y-50247000D01*
X79817592Y-50247000D01*
X80087490Y-50193314D01*
X80341727Y-50088005D01*
X80570535Y-49935120D01*
X80765120Y-49740535D01*
X80918005Y-49511727D01*
X80950000Y-49434485D01*
X80981995Y-49511727D01*
X81134880Y-49740535D01*
X81329465Y-49935120D01*
X81558273Y-50088005D01*
X81812510Y-50193314D01*
X82082408Y-50247000D01*
X82357592Y-50247000D01*
X82627490Y-50193314D01*
X82881727Y-50088005D01*
X83110535Y-49935120D01*
X83305120Y-49740535D01*
X83458005Y-49511727D01*
X83490000Y-49434485D01*
X83521995Y-49511727D01*
X83674880Y-49740535D01*
X83869465Y-49935120D01*
X84098273Y-50088005D01*
X84352510Y-50193314D01*
X84622408Y-50247000D01*
X84897592Y-50247000D01*
X85167490Y-50193314D01*
X85421727Y-50088005D01*
X85650535Y-49935120D01*
X85845120Y-49740535D01*
X85998005Y-49511727D01*
X86030000Y-49434485D01*
X86061995Y-49511727D01*
X86214880Y-49740535D01*
X86409465Y-49935120D01*
X86638273Y-50088005D01*
X86892510Y-50193314D01*
X87162408Y-50247000D01*
X87437592Y-50247000D01*
X87707490Y-50193314D01*
X87961727Y-50088005D01*
X88190535Y-49935120D01*
X88385120Y-49740535D01*
X88538005Y-49511727D01*
X88570000Y-49434485D01*
X88601995Y-49511727D01*
X88754880Y-49740535D01*
X88949465Y-49935120D01*
X89178273Y-50088005D01*
X89432510Y-50193314D01*
X89702408Y-50247000D01*
X89977592Y-50247000D01*
X90247490Y-50193314D01*
X90501727Y-50088005D01*
X90730535Y-49935120D01*
X90925120Y-49740535D01*
X91078005Y-49511727D01*
X91110000Y-49434485D01*
X91141995Y-49511727D01*
X91294880Y-49740535D01*
X91489465Y-49935120D01*
X91718273Y-50088005D01*
X91972510Y-50193314D01*
X92242408Y-50247000D01*
X92517592Y-50247000D01*
X92787490Y-50193314D01*
X93041727Y-50088005D01*
X93270535Y-49935120D01*
X93465120Y-49740535D01*
X93618005Y-49511727D01*
X93650000Y-49434485D01*
X93681995Y-49511727D01*
X93834880Y-49740535D01*
X94029465Y-49935120D01*
X94258273Y-50088005D01*
X94512510Y-50193314D01*
X94782408Y-50247000D01*
X95057592Y-50247000D01*
X95327490Y-50193314D01*
X95581727Y-50088005D01*
X95810535Y-49935120D01*
X96005120Y-49740535D01*
X96158005Y-49511727D01*
X96190000Y-49434485D01*
X96221995Y-49511727D01*
X96374880Y-49740535D01*
X96569465Y-49935120D01*
X96772905Y-50071055D01*
X92488998Y-54354963D01*
X92460000Y-54378761D01*
X92436202Y-54407759D01*
X92436201Y-54407760D01*
X92365026Y-54494486D01*
X92294454Y-54626516D01*
X92287023Y-54651014D01*
X92253155Y-54762667D01*
X92250998Y-54769777D01*
X92236324Y-54918762D01*
X92240001Y-54956095D01*
X92240000Y-104262678D01*
X92236324Y-104300000D01*
X92240000Y-104337322D01*
X92240000Y-104337332D01*
X92250997Y-104448985D01*
X92277797Y-104537333D01*
X92294454Y-104592246D01*
X92365026Y-104724276D01*
X92404871Y-104772826D01*
X92459999Y-104840001D01*
X92489003Y-104863804D01*
X97765000Y-110139802D01*
X97765000Y-110201939D01*
X97804774Y-110401898D01*
X97882795Y-110590256D01*
X97996063Y-110759774D01*
X98140226Y-110903937D01*
X98309744Y-111017205D01*
X98498102Y-111095226D01*
X98698061Y-111135000D01*
X98901939Y-111135000D01*
X99101898Y-111095226D01*
X99290256Y-111017205D01*
X99450000Y-110910468D01*
X99609744Y-111017205D01*
X99798102Y-111095226D01*
X99998061Y-111135000D01*
X100201939Y-111135000D01*
X100401898Y-111095226D01*
X100590256Y-111017205D01*
X100700000Y-110943877D01*
X100809744Y-111017205D01*
X100998102Y-111095226D01*
X101198061Y-111135000D01*
X101401939Y-111135000D01*
X101601898Y-111095226D01*
X101790256Y-111017205D01*
X101950000Y-110910468D01*
X102109744Y-111017205D01*
X102298102Y-111095226D01*
X102498061Y-111135000D01*
X102701939Y-111135000D01*
X102901898Y-111095226D01*
X103090256Y-111017205D01*
X103200000Y-110943877D01*
X103309744Y-111017205D01*
X103498102Y-111095226D01*
X103698061Y-111135000D01*
X103901939Y-111135000D01*
X104101898Y-111095226D01*
X104290256Y-111017205D01*
X104459774Y-110903937D01*
X104603937Y-110759774D01*
X104717205Y-110590256D01*
X104795226Y-110401898D01*
X104835000Y-110201939D01*
X104835000Y-109998061D01*
X104795226Y-109798102D01*
X104717205Y-109609744D01*
X104603937Y-109440226D01*
X104459774Y-109296063D01*
X104290256Y-109182795D01*
X104101898Y-109104774D01*
X103901939Y-109065000D01*
X103839802Y-109065000D01*
X101598932Y-106824131D01*
X101837555Y-106878595D01*
X102854832Y-106924281D01*
X103863919Y-106787591D01*
X104832382Y-106472918D01*
X105729095Y-105990376D01*
X106525236Y-105355475D01*
X107195217Y-104588620D01*
X107717503Y-103714460D01*
X108075309Y-102761089D01*
X108257134Y-101759151D01*
X108257134Y-100740849D01*
X108075309Y-99738911D01*
X107717503Y-98785540D01*
X107195217Y-97911380D01*
X106525236Y-97144525D01*
X105729095Y-96509624D01*
X104832382Y-96027082D01*
X103863919Y-95712409D01*
X102854832Y-95575719D01*
X101837555Y-95621405D01*
X100844783Y-95847999D01*
X99908426Y-96248217D01*
X99058578Y-96809197D01*
X98322554Y-97512908D01*
X98006854Y-97947432D01*
X98006854Y-92085331D01*
X126928090Y-92085331D01*
X126928090Y-92414669D01*
X126992340Y-92737678D01*
X127118372Y-93041947D01*
X127301342Y-93315781D01*
X127534219Y-93548658D01*
X127808053Y-93731628D01*
X128112322Y-93857660D01*
X128435331Y-93921910D01*
X128764669Y-93921910D01*
X129087678Y-93857660D01*
X129391947Y-93731628D01*
X129665781Y-93548658D01*
X129898658Y-93315781D01*
X130081628Y-93041947D01*
X130207660Y-92737678D01*
X130271910Y-92414669D01*
X130271910Y-92085331D01*
X130207660Y-91762322D01*
X130081628Y-91458053D01*
X129898658Y-91184219D01*
X129665781Y-90951342D01*
X129391947Y-90768372D01*
X129087678Y-90642340D01*
X128764669Y-90578090D01*
X128435331Y-90578090D01*
X128112322Y-90642340D01*
X127808053Y-90768372D01*
X127534219Y-90951342D01*
X127301342Y-91184219D01*
X127118372Y-91458053D01*
X126992340Y-91762322D01*
X126928090Y-92085331D01*
X98006854Y-92085331D01*
X98006854Y-56066709D01*
X104163954Y-49909609D01*
X104189465Y-49935120D01*
X104418273Y-50088005D01*
X104672510Y-50193314D01*
X104942408Y-50247000D01*
X105217592Y-50247000D01*
X105487490Y-50193314D01*
X105741727Y-50088005D01*
X105970535Y-49935120D01*
X106165120Y-49740535D01*
X106318005Y-49511727D01*
X106350000Y-49434485D01*
X106381995Y-49511727D01*
X106534880Y-49740535D01*
X106729465Y-49935120D01*
X106958273Y-50088005D01*
X107212510Y-50193314D01*
X107482408Y-50247000D01*
X107757592Y-50247000D01*
X108027490Y-50193314D01*
X108281727Y-50088005D01*
X108510535Y-49935120D01*
X108705120Y-49740535D01*
X108858005Y-49511727D01*
X108890000Y-49434485D01*
X108921995Y-49511727D01*
X109074880Y-49740535D01*
X109269465Y-49935120D01*
X109498273Y-50088005D01*
X109752510Y-50193314D01*
X110022408Y-50247000D01*
X110297592Y-50247000D01*
X110567490Y-50193314D01*
X110821727Y-50088005D01*
X111050535Y-49935120D01*
X111245120Y-49740535D01*
X111398005Y-49511727D01*
X111430000Y-49434485D01*
X111461995Y-49511727D01*
X111614880Y-49740535D01*
X111809465Y-49935120D01*
X112038273Y-50088005D01*
X112292510Y-50193314D01*
X112562408Y-50247000D01*
X112837592Y-50247000D01*
X113107490Y-50193314D01*
X113361727Y-50088005D01*
X113590535Y-49935120D01*
X113785120Y-49740535D01*
X113938005Y-49511727D01*
X113970000Y-49434485D01*
X114001995Y-49511727D01*
X114154880Y-49740535D01*
X114349465Y-49935120D01*
X114578273Y-50088005D01*
X114832510Y-50193314D01*
X115102408Y-50247000D01*
X115377592Y-50247000D01*
X115647490Y-50193314D01*
X115901727Y-50088005D01*
X116130535Y-49935120D01*
X116325120Y-49740535D01*
X116478005Y-49511727D01*
X116510000Y-49434485D01*
X116541995Y-49511727D01*
X116694880Y-49740535D01*
X116889465Y-49935120D01*
X117118273Y-50088005D01*
X117372510Y-50193314D01*
X117642408Y-50247000D01*
X117917592Y-50247000D01*
X118187490Y-50193314D01*
X118441727Y-50088005D01*
X118670535Y-49935120D01*
X118865120Y-49740535D01*
X119018005Y-49511727D01*
X119050000Y-49434485D01*
X119081995Y-49511727D01*
X119234880Y-49740535D01*
X119429465Y-49935120D01*
X119658273Y-50088005D01*
X119912510Y-50193314D01*
X120182408Y-50247000D01*
X120457592Y-50247000D01*
X120727490Y-50193314D01*
X120981727Y-50088005D01*
X121210535Y-49935120D01*
X121405120Y-49740535D01*
X121558005Y-49511727D01*
X121590000Y-49434485D01*
X121621995Y-49511727D01*
X121774880Y-49740535D01*
X121969465Y-49935120D01*
X122198273Y-50088005D01*
X122452510Y-50193314D01*
X122722408Y-50247000D01*
X122997592Y-50247000D01*
X123267490Y-50193314D01*
X123521727Y-50088005D01*
X123750535Y-49935120D01*
X123945120Y-49740535D01*
X124098005Y-49511727D01*
X124130000Y-49434485D01*
X124161995Y-49511727D01*
X124314880Y-49740535D01*
X124509465Y-49935120D01*
X124738273Y-50088005D01*
X124992510Y-50193314D01*
X125262408Y-50247000D01*
X125537592Y-50247000D01*
X125807490Y-50193314D01*
X126061727Y-50088005D01*
X126290535Y-49935120D01*
X126485120Y-49740535D01*
X126638005Y-49511727D01*
X126670000Y-49434485D01*
X126701995Y-49511727D01*
X126854880Y-49740535D01*
X127049465Y-49935120D01*
X127278273Y-50088005D01*
X127532510Y-50193314D01*
X127802408Y-50247000D01*
X128077592Y-50247000D01*
X128347490Y-50193314D01*
X128601727Y-50088005D01*
X128830535Y-49935120D01*
X129025120Y-49740535D01*
X129178005Y-49511727D01*
X129210000Y-49434485D01*
X129241995Y-49511727D01*
X129394880Y-49740535D01*
X129589465Y-49935120D01*
X129818273Y-50088005D01*
X130072510Y-50193314D01*
X130342408Y-50247000D01*
X130617592Y-50247000D01*
X130887490Y-50193314D01*
X131141727Y-50088005D01*
X131370535Y-49935120D01*
X131565120Y-49740535D01*
X131718005Y-49511727D01*
X131823314Y-49257490D01*
X131877000Y-48987592D01*
X131877000Y-48712408D01*
X131823314Y-48442510D01*
X131718005Y-48188273D01*
X131565120Y-47959465D01*
X131370535Y-47764880D01*
X131141727Y-47611995D01*
X130887490Y-47506686D01*
X130617592Y-47453000D01*
X130342408Y-47453000D01*
X130072510Y-47506686D01*
X129818273Y-47611995D01*
X129589465Y-47764880D01*
X129394880Y-47959465D01*
X129241995Y-48188273D01*
X129210000Y-48265515D01*
X129178005Y-48188273D01*
X129025120Y-47959465D01*
X128830535Y-47764880D01*
X128601727Y-47611995D01*
X128347490Y-47506686D01*
X128077592Y-47453000D01*
X127802408Y-47453000D01*
X127532510Y-47506686D01*
X127278273Y-47611995D01*
X127049465Y-47764880D01*
X126854880Y-47959465D01*
X126701995Y-48188273D01*
X126670000Y-48265515D01*
X126638005Y-48188273D01*
X126485120Y-47959465D01*
X126290535Y-47764880D01*
X126061727Y-47611995D01*
X125807490Y-47506686D01*
X125537592Y-47453000D01*
X125262408Y-47453000D01*
X124992510Y-47506686D01*
X124738273Y-47611995D01*
X124509465Y-47764880D01*
X124314880Y-47959465D01*
X124161995Y-48188273D01*
X124130000Y-48265515D01*
X124098005Y-48188273D01*
X123945120Y-47959465D01*
X123750535Y-47764880D01*
X123521727Y-47611995D01*
X123267490Y-47506686D01*
X122997592Y-47453000D01*
X122722408Y-47453000D01*
X122452510Y-47506686D01*
X122198273Y-47611995D01*
X121969465Y-47764880D01*
X121774880Y-47959465D01*
X121621995Y-48188273D01*
X121590000Y-48265515D01*
X121558005Y-48188273D01*
X121405120Y-47959465D01*
X121210535Y-47764880D01*
X120981727Y-47611995D01*
X120727490Y-47506686D01*
X120457592Y-47453000D01*
X120182408Y-47453000D01*
X119912510Y-47506686D01*
X119658273Y-47611995D01*
X119429465Y-47764880D01*
X119234880Y-47959465D01*
X119081995Y-48188273D01*
X119050000Y-48265515D01*
X119018005Y-48188273D01*
X118865120Y-47959465D01*
X118670535Y-47764880D01*
X118441727Y-47611995D01*
X118187490Y-47506686D01*
X117917592Y-47453000D01*
X117642408Y-47453000D01*
X117372510Y-47506686D01*
X117118273Y-47611995D01*
X116889465Y-47764880D01*
X116694880Y-47959465D01*
X116541995Y-48188273D01*
X116510000Y-48265515D01*
X116478005Y-48188273D01*
X116325120Y-47959465D01*
X116130535Y-47764880D01*
X115901727Y-47611995D01*
X115647490Y-47506686D01*
X115377592Y-47453000D01*
X115102408Y-47453000D01*
X114832510Y-47506686D01*
X114578273Y-47611995D01*
X114349465Y-47764880D01*
X114154880Y-47959465D01*
X114001995Y-48188273D01*
X113970000Y-48265515D01*
X113938005Y-48188273D01*
X113785120Y-47959465D01*
X113590535Y-47764880D01*
X113361727Y-47611995D01*
X113107490Y-47506686D01*
X112837592Y-47453000D01*
X112562408Y-47453000D01*
X112292510Y-47506686D01*
X112038273Y-47611995D01*
X111809465Y-47764880D01*
X111614880Y-47959465D01*
X111461995Y-48188273D01*
X111430000Y-48265515D01*
X111398005Y-48188273D01*
X111245120Y-47959465D01*
X111050535Y-47764880D01*
X110821727Y-47611995D01*
X110567490Y-47506686D01*
X110297592Y-47453000D01*
X110022408Y-47453000D01*
X109752510Y-47506686D01*
X109498273Y-47611995D01*
X109269465Y-47764880D01*
X109074880Y-47959465D01*
X108921995Y-48188273D01*
X108890000Y-48265515D01*
X108858005Y-48188273D01*
X108705120Y-47959465D01*
X108510535Y-47764880D01*
X108281727Y-47611995D01*
X108027490Y-47506686D01*
X107757592Y-47453000D01*
X107482408Y-47453000D01*
X107212510Y-47506686D01*
X106958273Y-47611995D01*
X106729465Y-47764880D01*
X106534880Y-47959465D01*
X106381995Y-48188273D01*
X106350000Y-48265515D01*
X106318005Y-48188273D01*
X106165120Y-47959465D01*
X105970535Y-47764880D01*
X105741727Y-47611995D01*
X105487490Y-47506686D01*
X105217592Y-47453000D01*
X104942408Y-47453000D01*
X104672510Y-47506686D01*
X104570000Y-47549147D01*
X104570000Y-46772341D01*
X104700535Y-46685120D01*
X104895120Y-46490535D01*
X105048005Y-46261727D01*
X105080000Y-46184485D01*
X105111995Y-46261727D01*
X105264880Y-46490535D01*
X105459465Y-46685120D01*
X105688273Y-46838005D01*
X105942510Y-46943314D01*
X106212408Y-46997000D01*
X106487592Y-46997000D01*
X106757490Y-46943314D01*
X107011727Y-46838005D01*
X107240535Y-46685120D01*
X107435120Y-46490535D01*
X107588005Y-46261727D01*
X107620000Y-46184485D01*
X107651995Y-46261727D01*
X107804880Y-46490535D01*
X107999465Y-46685120D01*
X108228273Y-46838005D01*
X108482510Y-46943314D01*
X108752408Y-46997000D01*
X109027592Y-46997000D01*
X109297490Y-46943314D01*
X109551727Y-46838005D01*
X109780535Y-46685120D01*
X109975120Y-46490535D01*
X110128005Y-46261727D01*
X110160000Y-46184485D01*
X110191995Y-46261727D01*
X110344880Y-46490535D01*
X110539465Y-46685120D01*
X110768273Y-46838005D01*
X111022510Y-46943314D01*
X111292408Y-46997000D01*
X111567592Y-46997000D01*
X111837490Y-46943314D01*
X112091727Y-46838005D01*
X112320535Y-46685120D01*
X112515120Y-46490535D01*
X112668005Y-46261727D01*
X112700000Y-46184485D01*
X112731995Y-46261727D01*
X112884880Y-46490535D01*
X113079465Y-46685120D01*
X113308273Y-46838005D01*
X113562510Y-46943314D01*
X113832408Y-46997000D01*
X114107592Y-46997000D01*
X114377490Y-46943314D01*
X114631727Y-46838005D01*
X114860535Y-46685120D01*
X115055120Y-46490535D01*
X115208005Y-46261727D01*
X115240000Y-46184485D01*
X115271995Y-46261727D01*
X115424880Y-46490535D01*
X115619465Y-46685120D01*
X115848273Y-46838005D01*
X116102510Y-46943314D01*
X116372408Y-46997000D01*
X116647592Y-46997000D01*
X116917490Y-46943314D01*
X117171727Y-46838005D01*
X117400535Y-46685120D01*
X117595120Y-46490535D01*
X117748005Y-46261727D01*
X117780000Y-46184485D01*
X117811995Y-46261727D01*
X117964880Y-46490535D01*
X118159465Y-46685120D01*
X118388273Y-46838005D01*
X118642510Y-46943314D01*
X118912408Y-46997000D01*
X119187592Y-46997000D01*
X119457490Y-46943314D01*
X119711727Y-46838005D01*
X119940535Y-46685120D01*
X120135120Y-46490535D01*
X120288005Y-46261727D01*
X120320000Y-46184485D01*
X120351995Y-46261727D01*
X120504880Y-46490535D01*
X120699465Y-46685120D01*
X120928273Y-46838005D01*
X121182510Y-46943314D01*
X121452408Y-46997000D01*
X121727592Y-46997000D01*
X121997490Y-46943314D01*
X122251727Y-46838005D01*
X122480535Y-46685120D01*
X122675120Y-46490535D01*
X122828005Y-46261727D01*
X122860000Y-46184485D01*
X122891995Y-46261727D01*
X123044880Y-46490535D01*
X123239465Y-46685120D01*
X123468273Y-46838005D01*
X123722510Y-46943314D01*
X123992408Y-46997000D01*
X124267592Y-46997000D01*
X124537490Y-46943314D01*
X124791727Y-46838005D01*
X125020535Y-46685120D01*
X125215120Y-46490535D01*
X125368005Y-46261727D01*
X125400000Y-46184485D01*
X125431995Y-46261727D01*
X125584880Y-46490535D01*
X125779465Y-46685120D01*
X126008273Y-46838005D01*
X126262510Y-46943314D01*
X126532408Y-46997000D01*
X126807592Y-46997000D01*
X127077490Y-46943314D01*
X127331727Y-46838005D01*
X127560535Y-46685120D01*
X127755120Y-46490535D01*
X127908005Y-46261727D01*
X127940000Y-46184485D01*
X127971995Y-46261727D01*
X128124880Y-46490535D01*
X128319465Y-46685120D01*
X128548273Y-46838005D01*
X128802510Y-46943314D01*
X129072408Y-46997000D01*
X129347592Y-46997000D01*
X129617490Y-46943314D01*
X129871727Y-46838005D01*
X130100535Y-46685120D01*
X130295120Y-46490535D01*
X130448005Y-46261727D01*
X130553314Y-46007490D01*
X130607000Y-45737592D01*
X130607000Y-45462408D01*
X130553314Y-45192510D01*
X130448005Y-44938273D01*
X130295120Y-44709465D01*
X130100535Y-44514880D01*
X129871727Y-44361995D01*
X129617490Y-44256686D01*
X129347592Y-44203000D01*
X129072408Y-44203000D01*
X128802510Y-44256686D01*
X128548273Y-44361995D01*
X128319465Y-44514880D01*
X128124880Y-44709465D01*
X127971995Y-44938273D01*
X127940000Y-45015515D01*
X127908005Y-44938273D01*
X127755120Y-44709465D01*
X127560535Y-44514880D01*
X127331727Y-44361995D01*
X127077490Y-44256686D01*
X126807592Y-44203000D01*
X126532408Y-44203000D01*
X126262510Y-44256686D01*
X126008273Y-44361995D01*
X125779465Y-44514880D01*
X125584880Y-44709465D01*
X125431995Y-44938273D01*
X125400000Y-45015515D01*
X125368005Y-44938273D01*
X125215120Y-44709465D01*
X125020535Y-44514880D01*
X124791727Y-44361995D01*
X124537490Y-44256686D01*
X124267592Y-44203000D01*
X123992408Y-44203000D01*
X123722510Y-44256686D01*
X123468273Y-44361995D01*
X123239465Y-44514880D01*
X123044880Y-44709465D01*
X122891995Y-44938273D01*
X122860000Y-45015515D01*
X122828005Y-44938273D01*
X122675120Y-44709465D01*
X122480535Y-44514880D01*
X122251727Y-44361995D01*
X121997490Y-44256686D01*
X121727592Y-44203000D01*
X121452408Y-44203000D01*
X121182510Y-44256686D01*
X120928273Y-44361995D01*
X120699465Y-44514880D01*
X120504880Y-44709465D01*
X120351995Y-44938273D01*
X120320000Y-45015515D01*
X120288005Y-44938273D01*
X120135120Y-44709465D01*
X119940535Y-44514880D01*
X119711727Y-44361995D01*
X119457490Y-44256686D01*
X119187592Y-44203000D01*
X118912408Y-44203000D01*
X118642510Y-44256686D01*
X118388273Y-44361995D01*
X118159465Y-44514880D01*
X117964880Y-44709465D01*
X117811995Y-44938273D01*
X117780000Y-45015515D01*
X117748005Y-44938273D01*
X117595120Y-44709465D01*
X117400535Y-44514880D01*
X117171727Y-44361995D01*
X116917490Y-44256686D01*
X116647592Y-44203000D01*
X116372408Y-44203000D01*
X116102510Y-44256686D01*
X115848273Y-44361995D01*
X115619465Y-44514880D01*
X115424880Y-44709465D01*
X115271995Y-44938273D01*
X115240000Y-45015515D01*
X115208005Y-44938273D01*
X115055120Y-44709465D01*
X114860535Y-44514880D01*
X114631727Y-44361995D01*
X114377490Y-44256686D01*
X114107592Y-44203000D01*
X113832408Y-44203000D01*
X113562510Y-44256686D01*
X113308273Y-44361995D01*
X113079465Y-44514880D01*
X112884880Y-44709465D01*
X112731995Y-44938273D01*
X112700000Y-45015515D01*
X112668005Y-44938273D01*
X112515120Y-44709465D01*
X112320535Y-44514880D01*
X112091727Y-44361995D01*
X111837490Y-44256686D01*
X111567592Y-44203000D01*
X111292408Y-44203000D01*
X111022510Y-44256686D01*
X110768273Y-44361995D01*
X110539465Y-44514880D01*
X110344880Y-44709465D01*
X110191995Y-44938273D01*
X110160000Y-45015515D01*
X110128005Y-44938273D01*
X109975120Y-44709465D01*
X109780535Y-44514880D01*
X109551727Y-44361995D01*
X109297490Y-44256686D01*
X109027592Y-44203000D01*
X108752408Y-44203000D01*
X108482510Y-44256686D01*
X108228273Y-44361995D01*
X107999465Y-44514880D01*
X107804880Y-44709465D01*
X107651995Y-44938273D01*
X107620000Y-45015515D01*
X107588005Y-44938273D01*
X107435120Y-44709465D01*
X107240535Y-44514880D01*
X107011727Y-44361995D01*
X106757490Y-44256686D01*
X106487592Y-44203000D01*
X106212408Y-44203000D01*
X105942510Y-44256686D01*
X105688273Y-44361995D01*
X105459465Y-44514880D01*
X105264880Y-44709465D01*
X105111995Y-44938273D01*
X105080000Y-45015515D01*
X105048005Y-44938273D01*
X104895120Y-44709465D01*
X104700535Y-44514880D01*
X104471727Y-44361995D01*
X104217490Y-44256686D01*
X103947592Y-44203000D01*
X103672408Y-44203000D01*
X103402510Y-44256686D01*
X103148273Y-44361995D01*
X102919465Y-44514880D01*
X102724880Y-44709465D01*
X102571995Y-44938273D01*
X102540000Y-45015515D01*
X102508005Y-44938273D01*
X102355120Y-44709465D01*
X102160535Y-44514880D01*
X101931727Y-44361995D01*
X101677490Y-44256686D01*
X101407592Y-44203000D01*
X101132408Y-44203000D01*
X100862510Y-44256686D01*
X100608273Y-44361995D01*
X100379465Y-44514880D01*
X100184880Y-44709465D01*
X100031995Y-44938273D01*
X100000000Y-45015515D01*
X99968005Y-44938273D01*
X99815120Y-44709465D01*
X99620535Y-44514880D01*
X99391727Y-44361995D01*
X99137490Y-44256686D01*
X98867592Y-44203000D01*
X98592408Y-44203000D01*
X98322510Y-44256686D01*
X98068273Y-44361995D01*
X97839465Y-44514880D01*
X97644880Y-44709465D01*
X97491995Y-44938273D01*
X97460000Y-45015515D01*
X97428005Y-44938273D01*
X97275120Y-44709465D01*
X97080535Y-44514880D01*
X96851727Y-44361995D01*
X96597490Y-44256686D01*
X96327592Y-44203000D01*
X96052408Y-44203000D01*
X95782510Y-44256686D01*
X95528273Y-44361995D01*
X95299465Y-44514880D01*
X95104880Y-44709465D01*
X94951995Y-44938273D01*
X94920000Y-45015515D01*
X94888005Y-44938273D01*
X94735120Y-44709465D01*
X94540535Y-44514880D01*
X94311727Y-44361995D01*
X94057490Y-44256686D01*
X93787592Y-44203000D01*
X93512408Y-44203000D01*
X93242510Y-44256686D01*
X92988273Y-44361995D01*
X92759465Y-44514880D01*
X92564880Y-44709465D01*
X92411995Y-44938273D01*
X92380000Y-45015515D01*
X92348005Y-44938273D01*
X92195120Y-44709465D01*
X92000535Y-44514880D01*
X91771727Y-44361995D01*
X91517490Y-44256686D01*
X91247592Y-44203000D01*
X90972408Y-44203000D01*
X90702510Y-44256686D01*
X90448273Y-44361995D01*
X90219465Y-44514880D01*
X90024880Y-44709465D01*
X89871995Y-44938273D01*
X89840000Y-45015515D01*
X89808005Y-44938273D01*
X89655120Y-44709465D01*
X89460535Y-44514880D01*
X89231727Y-44361995D01*
X88977490Y-44256686D01*
X88707592Y-44203000D01*
X88432408Y-44203000D01*
X88162510Y-44256686D01*
X87908273Y-44361995D01*
X87679465Y-44514880D01*
X87484880Y-44709465D01*
X87331995Y-44938273D01*
X87300000Y-45015515D01*
X87268005Y-44938273D01*
X87115120Y-44709465D01*
X86920535Y-44514880D01*
X86691727Y-44361995D01*
X86437490Y-44256686D01*
X86167592Y-44203000D01*
X85892408Y-44203000D01*
X85622510Y-44256686D01*
X85368273Y-44361995D01*
X85139465Y-44514880D01*
X84944880Y-44709465D01*
X84791995Y-44938273D01*
X84760000Y-45015515D01*
X84728005Y-44938273D01*
X84575120Y-44709465D01*
X84380535Y-44514880D01*
X84151727Y-44361995D01*
X83897490Y-44256686D01*
X83627592Y-44203000D01*
X83352408Y-44203000D01*
X83082510Y-44256686D01*
X82828273Y-44361995D01*
X82599465Y-44514880D01*
X82404880Y-44709465D01*
X82251995Y-44938273D01*
X82220000Y-45015515D01*
X82188005Y-44938273D01*
X82035120Y-44709465D01*
X81840535Y-44514880D01*
X81611727Y-44361995D01*
X81357490Y-44256686D01*
X81087592Y-44203000D01*
X80812408Y-44203000D01*
X80542510Y-44256686D01*
X80288273Y-44361995D01*
X80059465Y-44514880D01*
X79864880Y-44709465D01*
X79711995Y-44938273D01*
X79680000Y-45015515D01*
X79648005Y-44938273D01*
X79495120Y-44709465D01*
X79300535Y-44514880D01*
X79071727Y-44361995D01*
X78817490Y-44256686D01*
X78547592Y-44203000D01*
X78272408Y-44203000D01*
X78002510Y-44256686D01*
X77748273Y-44361995D01*
X77519465Y-44514880D01*
X77324880Y-44709465D01*
X77171995Y-44938273D01*
X77140000Y-45015515D01*
X77108005Y-44938273D01*
X76955120Y-44709465D01*
X76760535Y-44514880D01*
X76531727Y-44361995D01*
X76277490Y-44256686D01*
X76007592Y-44203000D01*
X75732408Y-44203000D01*
X75462510Y-44256686D01*
X75208273Y-44361995D01*
X74979465Y-44514880D01*
X74784880Y-44709465D01*
X74631995Y-44938273D01*
X74526686Y-45192510D01*
X74473000Y-45462408D01*
X74473000Y-45737592D01*
X74526686Y-46007490D01*
X74631995Y-46261727D01*
X74784880Y-46490535D01*
X74979465Y-46685120D01*
X75110001Y-46772341D01*
X75110000Y-47549147D01*
X75007490Y-47506686D01*
X74737592Y-47453000D01*
X74462408Y-47453000D01*
X74192510Y-47506686D01*
X73938273Y-47611995D01*
X73709465Y-47764880D01*
X73514880Y-47959465D01*
X73361995Y-48188273D01*
X73260000Y-48434509D01*
X73260000Y-43960000D01*
X131940001Y-43960000D01*
X131940000Y-120640000D01*
G37*
G04 #@! TD.AperFunction*
D13*
X94240000Y-104465199D02*
X93760000Y-103985199D01*
X93760000Y-55233563D01*
X94240001Y-54753562D01*
X94240000Y-104465199D01*
G04 #@! TA.AperFunction,NonConductor*
D14*
G36*
X94240000Y-104465199D02*
G01*
X93760000Y-103985199D01*
X93760000Y-55233563D01*
X94240001Y-54753562D01*
X94240000Y-104465199D01*
G37*
G04 #@! TD.AperFunction*
D13*
X97491995Y-46261727D02*
X97644880Y-46490535D01*
X97839465Y-46685120D01*
X97970001Y-46772341D01*
X97970000Y-47549147D01*
X97867490Y-47506686D01*
X97597592Y-47453000D01*
X97322408Y-47453000D01*
X97052510Y-47506686D01*
X96798273Y-47611995D01*
X96569465Y-47764880D01*
X96374880Y-47959465D01*
X96221995Y-48188273D01*
X96190000Y-48265515D01*
X96158005Y-48188273D01*
X96005120Y-47959465D01*
X95810535Y-47764880D01*
X95581727Y-47611995D01*
X95327490Y-47506686D01*
X95057592Y-47453000D01*
X94782408Y-47453000D01*
X94512510Y-47506686D01*
X94258273Y-47611995D01*
X94029465Y-47764880D01*
X93834880Y-47959465D01*
X93681995Y-48188273D01*
X93650000Y-48265515D01*
X93618005Y-48188273D01*
X93465120Y-47959465D01*
X93270535Y-47764880D01*
X93041727Y-47611995D01*
X92787490Y-47506686D01*
X92517592Y-47453000D01*
X92242408Y-47453000D01*
X91972510Y-47506686D01*
X91718273Y-47611995D01*
X91489465Y-47764880D01*
X91294880Y-47959465D01*
X91141995Y-48188273D01*
X91110000Y-48265515D01*
X91078005Y-48188273D01*
X90925120Y-47959465D01*
X90730535Y-47764880D01*
X90501727Y-47611995D01*
X90247490Y-47506686D01*
X89977592Y-47453000D01*
X89702408Y-47453000D01*
X89432510Y-47506686D01*
X89178273Y-47611995D01*
X88949465Y-47764880D01*
X88754880Y-47959465D01*
X88601995Y-48188273D01*
X88570000Y-48265515D01*
X88538005Y-48188273D01*
X88385120Y-47959465D01*
X88190535Y-47764880D01*
X87961727Y-47611995D01*
X87707490Y-47506686D01*
X87437592Y-47453000D01*
X87162408Y-47453000D01*
X86892510Y-47506686D01*
X86638273Y-47611995D01*
X86409465Y-47764880D01*
X86214880Y-47959465D01*
X86061995Y-48188273D01*
X86030000Y-48265515D01*
X85998005Y-48188273D01*
X85845120Y-47959465D01*
X85650535Y-47764880D01*
X85421727Y-47611995D01*
X85167490Y-47506686D01*
X84897592Y-47453000D01*
X84622408Y-47453000D01*
X84352510Y-47506686D01*
X84098273Y-47611995D01*
X83869465Y-47764880D01*
X83674880Y-47959465D01*
X83521995Y-48188273D01*
X83490000Y-48265515D01*
X83458005Y-48188273D01*
X83305120Y-47959465D01*
X83110535Y-47764880D01*
X82881727Y-47611995D01*
X82627490Y-47506686D01*
X82357592Y-47453000D01*
X82082408Y-47453000D01*
X81812510Y-47506686D01*
X81558273Y-47611995D01*
X81329465Y-47764880D01*
X81134880Y-47959465D01*
X80981995Y-48188273D01*
X80950000Y-48265515D01*
X80918005Y-48188273D01*
X80765120Y-47959465D01*
X80570535Y-47764880D01*
X80341727Y-47611995D01*
X80087490Y-47506686D01*
X79817592Y-47453000D01*
X79542408Y-47453000D01*
X79272510Y-47506686D01*
X79018273Y-47611995D01*
X78789465Y-47764880D01*
X78594880Y-47959465D01*
X78441995Y-48188273D01*
X78410000Y-48265515D01*
X78378005Y-48188273D01*
X78225120Y-47959465D01*
X78030535Y-47764880D01*
X77801727Y-47611995D01*
X77547490Y-47506686D01*
X77277592Y-47453000D01*
X77002408Y-47453000D01*
X76732510Y-47506686D01*
X76630000Y-47549147D01*
X76630000Y-46772341D01*
X76760535Y-46685120D01*
X76955120Y-46490535D01*
X77108005Y-46261727D01*
X77140000Y-46184485D01*
X77171995Y-46261727D01*
X77324880Y-46490535D01*
X77519465Y-46685120D01*
X77748273Y-46838005D01*
X78002510Y-46943314D01*
X78272408Y-46997000D01*
X78547592Y-46997000D01*
X78817490Y-46943314D01*
X79071727Y-46838005D01*
X79300535Y-46685120D01*
X79495120Y-46490535D01*
X79648005Y-46261727D01*
X79680000Y-46184485D01*
X79711995Y-46261727D01*
X79864880Y-46490535D01*
X80059465Y-46685120D01*
X80288273Y-46838005D01*
X80542510Y-46943314D01*
X80812408Y-46997000D01*
X81087592Y-46997000D01*
X81357490Y-46943314D01*
X81611727Y-46838005D01*
X81840535Y-46685120D01*
X82035120Y-46490535D01*
X82188005Y-46261727D01*
X82220000Y-46184485D01*
X82251995Y-46261727D01*
X82404880Y-46490535D01*
X82599465Y-46685120D01*
X82828273Y-46838005D01*
X83082510Y-46943314D01*
X83352408Y-46997000D01*
X83627592Y-46997000D01*
X83897490Y-46943314D01*
X84151727Y-46838005D01*
X84380535Y-46685120D01*
X84575120Y-46490535D01*
X84728005Y-46261727D01*
X84760000Y-46184485D01*
X84791995Y-46261727D01*
X84944880Y-46490535D01*
X85139465Y-46685120D01*
X85368273Y-46838005D01*
X85622510Y-46943314D01*
X85892408Y-46997000D01*
X86167592Y-46997000D01*
X86437490Y-46943314D01*
X86691727Y-46838005D01*
X86920535Y-46685120D01*
X87115120Y-46490535D01*
X87268005Y-46261727D01*
X87300000Y-46184485D01*
X87331995Y-46261727D01*
X87484880Y-46490535D01*
X87679465Y-46685120D01*
X87908273Y-46838005D01*
X88162510Y-46943314D01*
X88432408Y-46997000D01*
X88707592Y-46997000D01*
X88977490Y-46943314D01*
X89231727Y-46838005D01*
X89460535Y-46685120D01*
X89655120Y-46490535D01*
X89808005Y-46261727D01*
X89840000Y-46184485D01*
X89871995Y-46261727D01*
X90024880Y-46490535D01*
X90219465Y-46685120D01*
X90448273Y-46838005D01*
X90702510Y-46943314D01*
X90972408Y-46997000D01*
X91247592Y-46997000D01*
X91517490Y-46943314D01*
X91771727Y-46838005D01*
X92000535Y-46685120D01*
X92195120Y-46490535D01*
X92348005Y-46261727D01*
X92380000Y-46184485D01*
X92411995Y-46261727D01*
X92564880Y-46490535D01*
X92759465Y-46685120D01*
X92988273Y-46838005D01*
X93242510Y-46943314D01*
X93512408Y-46997000D01*
X93787592Y-46997000D01*
X94057490Y-46943314D01*
X94311727Y-46838005D01*
X94540535Y-46685120D01*
X94735120Y-46490535D01*
X94888005Y-46261727D01*
X94920000Y-46184485D01*
X94951995Y-46261727D01*
X95104880Y-46490535D01*
X95299465Y-46685120D01*
X95528273Y-46838005D01*
X95782510Y-46943314D01*
X96052408Y-46997000D01*
X96327592Y-46997000D01*
X96597490Y-46943314D01*
X96851727Y-46838005D01*
X97080535Y-46685120D01*
X97275120Y-46490535D01*
X97428005Y-46261727D01*
X97460000Y-46184485D01*
X97491995Y-46261727D01*
G04 #@! TA.AperFunction,NonConductor*
D14*
G36*
X97491995Y-46261727D02*
G01*
X97644880Y-46490535D01*
X97839465Y-46685120D01*
X97970001Y-46772341D01*
X97970000Y-47549147D01*
X97867490Y-47506686D01*
X97597592Y-47453000D01*
X97322408Y-47453000D01*
X97052510Y-47506686D01*
X96798273Y-47611995D01*
X96569465Y-47764880D01*
X96374880Y-47959465D01*
X96221995Y-48188273D01*
X96190000Y-48265515D01*
X96158005Y-48188273D01*
X96005120Y-47959465D01*
X95810535Y-47764880D01*
X95581727Y-47611995D01*
X95327490Y-47506686D01*
X95057592Y-47453000D01*
X94782408Y-47453000D01*
X94512510Y-47506686D01*
X94258273Y-47611995D01*
X94029465Y-47764880D01*
X93834880Y-47959465D01*
X93681995Y-48188273D01*
X93650000Y-48265515D01*
X93618005Y-48188273D01*
X93465120Y-47959465D01*
X93270535Y-47764880D01*
X93041727Y-47611995D01*
X92787490Y-47506686D01*
X92517592Y-47453000D01*
X92242408Y-47453000D01*
X91972510Y-47506686D01*
X91718273Y-47611995D01*
X91489465Y-47764880D01*
X91294880Y-47959465D01*
X91141995Y-48188273D01*
X91110000Y-48265515D01*
X91078005Y-48188273D01*
X90925120Y-47959465D01*
X90730535Y-47764880D01*
X90501727Y-47611995D01*
X90247490Y-47506686D01*
X89977592Y-47453000D01*
X89702408Y-47453000D01*
X89432510Y-47506686D01*
X89178273Y-47611995D01*
X88949465Y-47764880D01*
X88754880Y-47959465D01*
X88601995Y-48188273D01*
X88570000Y-48265515D01*
X88538005Y-48188273D01*
X88385120Y-47959465D01*
X88190535Y-47764880D01*
X87961727Y-47611995D01*
X87707490Y-47506686D01*
X87437592Y-47453000D01*
X87162408Y-47453000D01*
X86892510Y-47506686D01*
X86638273Y-47611995D01*
X86409465Y-47764880D01*
X86214880Y-47959465D01*
X86061995Y-48188273D01*
X86030000Y-48265515D01*
X85998005Y-48188273D01*
X85845120Y-47959465D01*
X85650535Y-47764880D01*
X85421727Y-47611995D01*
X85167490Y-47506686D01*
X84897592Y-47453000D01*
X84622408Y-47453000D01*
X84352510Y-47506686D01*
X84098273Y-47611995D01*
X83869465Y-47764880D01*
X83674880Y-47959465D01*
X83521995Y-48188273D01*
X83490000Y-48265515D01*
X83458005Y-48188273D01*
X83305120Y-47959465D01*
X83110535Y-47764880D01*
X82881727Y-47611995D01*
X82627490Y-47506686D01*
X82357592Y-47453000D01*
X82082408Y-47453000D01*
X81812510Y-47506686D01*
X81558273Y-47611995D01*
X81329465Y-47764880D01*
X81134880Y-47959465D01*
X80981995Y-48188273D01*
X80950000Y-48265515D01*
X80918005Y-48188273D01*
X80765120Y-47959465D01*
X80570535Y-47764880D01*
X80341727Y-47611995D01*
X80087490Y-47506686D01*
X79817592Y-47453000D01*
X79542408Y-47453000D01*
X79272510Y-47506686D01*
X79018273Y-47611995D01*
X78789465Y-47764880D01*
X78594880Y-47959465D01*
X78441995Y-48188273D01*
X78410000Y-48265515D01*
X78378005Y-48188273D01*
X78225120Y-47959465D01*
X78030535Y-47764880D01*
X77801727Y-47611995D01*
X77547490Y-47506686D01*
X77277592Y-47453000D01*
X77002408Y-47453000D01*
X76732510Y-47506686D01*
X76630000Y-47549147D01*
X76630000Y-46772341D01*
X76760535Y-46685120D01*
X76955120Y-46490535D01*
X77108005Y-46261727D01*
X77140000Y-46184485D01*
X77171995Y-46261727D01*
X77324880Y-46490535D01*
X77519465Y-46685120D01*
X77748273Y-46838005D01*
X78002510Y-46943314D01*
X78272408Y-46997000D01*
X78547592Y-46997000D01*
X78817490Y-46943314D01*
X79071727Y-46838005D01*
X79300535Y-46685120D01*
X79495120Y-46490535D01*
X79648005Y-46261727D01*
X79680000Y-46184485D01*
X79711995Y-46261727D01*
X79864880Y-46490535D01*
X80059465Y-46685120D01*
X80288273Y-46838005D01*
X80542510Y-46943314D01*
X80812408Y-46997000D01*
X81087592Y-46997000D01*
X81357490Y-46943314D01*
X81611727Y-46838005D01*
X81840535Y-46685120D01*
X82035120Y-46490535D01*
X82188005Y-46261727D01*
X82220000Y-46184485D01*
X82251995Y-46261727D01*
X82404880Y-46490535D01*
X82599465Y-46685120D01*
X82828273Y-46838005D01*
X83082510Y-46943314D01*
X83352408Y-46997000D01*
X83627592Y-46997000D01*
X83897490Y-46943314D01*
X84151727Y-46838005D01*
X84380535Y-46685120D01*
X84575120Y-46490535D01*
X84728005Y-46261727D01*
X84760000Y-46184485D01*
X84791995Y-46261727D01*
X84944880Y-46490535D01*
X85139465Y-46685120D01*
X85368273Y-46838005D01*
X85622510Y-46943314D01*
X85892408Y-46997000D01*
X86167592Y-46997000D01*
X86437490Y-46943314D01*
X86691727Y-46838005D01*
X86920535Y-46685120D01*
X87115120Y-46490535D01*
X87268005Y-46261727D01*
X87300000Y-46184485D01*
X87331995Y-46261727D01*
X87484880Y-46490535D01*
X87679465Y-46685120D01*
X87908273Y-46838005D01*
X88162510Y-46943314D01*
X88432408Y-46997000D01*
X88707592Y-46997000D01*
X88977490Y-46943314D01*
X89231727Y-46838005D01*
X89460535Y-46685120D01*
X89655120Y-46490535D01*
X89808005Y-46261727D01*
X89840000Y-46184485D01*
X89871995Y-46261727D01*
X90024880Y-46490535D01*
X90219465Y-46685120D01*
X90448273Y-46838005D01*
X90702510Y-46943314D01*
X90972408Y-46997000D01*
X91247592Y-46997000D01*
X91517490Y-46943314D01*
X91771727Y-46838005D01*
X92000535Y-46685120D01*
X92195120Y-46490535D01*
X92348005Y-46261727D01*
X92380000Y-46184485D01*
X92411995Y-46261727D01*
X92564880Y-46490535D01*
X92759465Y-46685120D01*
X92988273Y-46838005D01*
X93242510Y-46943314D01*
X93512408Y-46997000D01*
X93787592Y-46997000D01*
X94057490Y-46943314D01*
X94311727Y-46838005D01*
X94540535Y-46685120D01*
X94735120Y-46490535D01*
X94888005Y-46261727D01*
X94920000Y-46184485D01*
X94951995Y-46261727D01*
X95104880Y-46490535D01*
X95299465Y-46685120D01*
X95528273Y-46838005D01*
X95782510Y-46943314D01*
X96052408Y-46997000D01*
X96327592Y-46997000D01*
X96597490Y-46943314D01*
X96851727Y-46838005D01*
X97080535Y-46685120D01*
X97275120Y-46490535D01*
X97428005Y-46261727D01*
X97460000Y-46184485D01*
X97491995Y-46261727D01*
G37*
G04 #@! TD.AperFunction*
D13*
X102571995Y-46261727D02*
X102724880Y-46490535D01*
X102919465Y-46685120D01*
X103050001Y-46772341D01*
X103050000Y-47549147D01*
X102947490Y-47506686D01*
X102677592Y-47453000D01*
X102402408Y-47453000D01*
X102132510Y-47506686D01*
X102030000Y-47549147D01*
X102030000Y-46772341D01*
X102160535Y-46685120D01*
X102355120Y-46490535D01*
X102508005Y-46261727D01*
X102540000Y-46184485D01*
X102571995Y-46261727D01*
G04 #@! TA.AperFunction,NonConductor*
D14*
G36*
X102571995Y-46261727D02*
G01*
X102724880Y-46490535D01*
X102919465Y-46685120D01*
X103050001Y-46772341D01*
X103050000Y-47549147D01*
X102947490Y-47506686D01*
X102677592Y-47453000D01*
X102402408Y-47453000D01*
X102132510Y-47506686D01*
X102030000Y-47549147D01*
X102030000Y-46772341D01*
X102160535Y-46685120D01*
X102355120Y-46490535D01*
X102508005Y-46261727D01*
X102540000Y-46184485D01*
X102571995Y-46261727D01*
G37*
G04 #@! TD.AperFunction*
D13*
X100031995Y-46261727D02*
X100184880Y-46490535D01*
X100379465Y-46685120D01*
X100510001Y-46772341D01*
X100510000Y-47549147D01*
X100407490Y-47506686D01*
X100137592Y-47453000D01*
X99862408Y-47453000D01*
X99592510Y-47506686D01*
X99490000Y-47549147D01*
X99490000Y-46772341D01*
X99620535Y-46685120D01*
X99815120Y-46490535D01*
X99968005Y-46261727D01*
X100000000Y-46184485D01*
X100031995Y-46261727D01*
G04 #@! TA.AperFunction,NonConductor*
D14*
G36*
X100031995Y-46261727D02*
G01*
X100184880Y-46490535D01*
X100379465Y-46685120D01*
X100510001Y-46772341D01*
X100510000Y-47549147D01*
X100407490Y-47506686D01*
X100137592Y-47453000D01*
X99862408Y-47453000D01*
X99592510Y-47506686D01*
X99490000Y-47549147D01*
X99490000Y-46772341D01*
X99620535Y-46685120D01*
X99815120Y-46490535D01*
X99968005Y-46261727D01*
X100000000Y-46184485D01*
X100031995Y-46261727D01*
G37*
G04 #@! TD.AperFunction*
M02*
